<svg width="1060" height="423" viewBox="0 0 1060 423" fill="none" xmlns="http://www.w3.org/2000/svg">
<path d="M220 0L269.393 146.143H429.232L299.92 236.464L349.313 382.607L220 292.286L90.6872 382.607L140.08 236.464L10.7676 146.143H170.607L220 0Z" fill="white"/>
<path d="M578.07 164.875C578.07 174.391 574.484 181.703 567.312 186.812C560.141 191.875 549.758 194.406 536.164 194.406C511.367 194.406 496.953 185.57 492.922 167.898L510.641 164.805C512.047 170.289 514.859 174.297 519.078 176.828C523.344 179.312 529.203 180.555 536.656 180.555C544.391 180.555 550.25 179.336 554.234 176.898C558.219 174.414 560.211 170.734 560.211 165.859C560.211 162.906 559.414 160.492 557.82 158.617C556.227 156.742 553.977 155.172 551.07 153.906C549.195 153.062 546.664 152.266 543.477 151.516C540.289 150.719 536.516 149.852 532.156 148.914C527.094 147.742 523.039 146.688 519.992 145.75C516.992 144.812 514.555 143.898 512.68 143.008C510.805 142.07 509.07 141.039 507.477 139.914C504.336 137.805 501.898 135.109 500.164 131.828C498.43 128.5 497.562 124.469 497.562 119.734C497.562 110.969 500.891 104.242 507.547 99.5547C514.203 94.8203 523.836 92.4531 536.445 92.4531C548.352 92.4531 557.352 94.3047 563.445 98.0078C569.539 101.711 573.594 107.898 575.609 116.57L557.75 119.172C556.578 114.578 554.258 111.18 550.789 108.977C547.32 106.727 542.422 105.602 536.094 105.602C529.25 105.602 524.094 106.703 520.625 108.906C517.156 111.109 515.422 114.391 515.422 118.75C515.422 121.469 516.125 123.719 517.531 125.5C518.984 127.234 521.094 128.711 523.859 129.93C526.438 131.148 531.992 132.672 540.523 134.5C544.977 135.484 548.961 136.445 552.477 137.383C555.992 138.32 558.969 139.305 561.406 140.336C563.422 141.227 565.25 142.188 566.891 143.219C568.578 144.25 570.031 145.398 571.25 146.664C573.453 148.82 575.141 151.398 576.312 154.398C577.484 157.398 578.07 160.891 578.07 164.875ZM663.641 154.891C663.641 167.547 660.383 177.297 653.867 184.141C647.352 190.984 638.188 194.406 626.375 194.406C614.797 194.406 605.797 190.938 599.375 184C593 177.062 589.812 167.359 589.812 154.891C589.812 142.375 593 132.695 599.375 125.852C605.797 118.961 614.938 115.516 626.797 115.516C638.984 115.516 648.172 118.844 654.359 125.5C660.547 132.156 663.641 141.953 663.641 154.891ZM645.43 154.891C645.43 145.375 643.906 138.461 640.859 134.148C637.859 129.836 633.266 127.68 627.078 127.68C620.609 127.68 615.828 129.93 612.734 134.43C609.641 138.883 608.094 145.703 608.094 154.891C608.094 163.891 609.594 170.711 612.594 175.352C615.641 179.992 620.188 182.312 626.234 182.312C632.797 182.312 637.625 180.062 640.719 175.562C643.859 171.016 645.43 164.125 645.43 154.891ZM696.758 88.6562V193H679.32V88.6562H696.758ZM734.094 88.6562V102.367H716.727V88.6562H734.094ZM734.094 116.922V193H716.727V116.922H734.094ZM785 194.406C773.797 194.406 765.148 191.008 759.055 184.211C753.008 177.367 749.984 167.711 749.984 155.242C749.984 142.586 753.031 132.812 759.125 125.922C765.219 118.984 773.891 115.516 785.141 115.516C793.719 115.516 800.82 117.695 806.445 122.055C812.07 126.367 815.586 132.344 816.992 139.984L799.414 140.969C798.805 136.984 797.305 133.82 794.914 131.477C792.523 129.086 789.148 127.891 784.789 127.891C779.117 127.891 774.945 130.047 772.273 134.359C769.602 138.672 768.266 145.422 768.266 154.609C768.266 163.844 769.648 170.734 772.414 175.281C775.227 179.828 779.422 182.102 785 182.102C788.984 182.102 792.312 180.906 794.984 178.516C797.703 176.125 799.391 172.516 800.047 167.688L817.555 168.602C816.852 173.758 815.047 178.281 812.141 182.172C809.234 186.062 805.461 189.086 800.82 191.242C796.18 193.352 790.906 194.406 785 194.406ZM848.984 88.6562V102.367H831.617V88.6562H848.984ZM848.984 116.922V193H831.617V116.922H848.984ZM902.914 192.086C898.32 193.492 893.188 194.195 887.516 194.195C881.938 194.195 877.672 192.672 874.719 189.625C871.812 186.531 870.359 181.891 870.359 175.703V128.875H861.008V116.922H871.203L876.547 99.3438H887.586V116.922H901.93V128.875H887.586V171.273C887.586 174.93 888.242 177.602 889.555 179.289C890.914 180.93 893.07 181.75 896.023 181.75C897.523 181.75 899.82 181.422 902.914 180.766V192.086ZM983.984 154.891C983.984 167.547 980.727 177.297 974.211 184.141C967.695 190.984 958.531 194.406 946.719 194.406C935.141 194.406 926.141 190.938 919.719 184C913.344 177.062 910.156 167.359 910.156 154.891C910.156 142.375 913.344 132.695 919.719 125.852C926.141 118.961 935.281 115.516 947.141 115.516C959.328 115.516 968.516 118.844 974.703 125.5C980.891 132.156 983.984 141.953 983.984 154.891ZM965.773 154.891C965.773 145.375 964.25 138.461 961.203 134.148C958.203 129.836 953.609 127.68 947.422 127.68C940.953 127.68 936.172 129.93 933.078 134.43C929.984 138.883 928.438 145.703 928.438 154.891C928.438 163.891 929.938 170.711 932.938 175.352C935.984 179.992 940.531 182.312 946.578 182.312C953.141 182.312 957.969 180.062 961.062 175.562C964.203 171.016 965.773 164.125 965.773 154.891ZM1017.17 154.891V193H999.805V134.711C999.805 131.055 999.734 127.82 999.594 125.008C999.5 122.148 999.383 119.453 999.242 116.922H1015.84C1015.93 117.906 1016 119.172 1016.05 120.719C1016.14 122.266 1016.23 123.859 1016.33 125.5C1016.42 127.141 1016.49 128.641 1016.54 130C1016.59 131.359 1016.61 132.344 1016.61 132.953H1016.89C1018.62 127.891 1020.29 124.188 1021.88 121.844C1023.43 119.594 1025.23 117.977 1027.3 116.992C1029.36 115.961 1031.94 115.445 1035.03 115.445C1037.33 115.445 1039.27 115.773 1040.87 116.43V131.266C1038.24 130.656 1035.62 130.352 1032.99 130.352C1027.93 130.352 1024.02 132.438 1021.25 136.609C1018.53 140.781 1017.17 146.875 1017.17 154.891ZM516.887 323.965L507.789 349H490.324L525.852 255.434H546.039L581.234 349H563.969L554.871 323.965H516.887ZM535.879 268.25C535.348 270.242 534.639 272.566 533.754 275.223C532.868 277.879 532.16 279.938 531.629 281.398L521.137 310.816H550.688L539.996 280.867C539.376 279.141 538.712 277.193 538.004 275.023C537.296 272.81 536.587 270.552 535.879 268.25ZM672.941 322.438C672.941 330.849 669.798 337.379 663.512 342.027C657.27 346.676 648.57 349 637.414 349H593.52V255.434H633.43C644.719 255.434 653.219 257.382 658.93 261.277C664.685 265.173 667.562 270.973 667.562 278.676C667.562 284.077 666.057 288.615 663.047 292.289C660.081 295.964 655.632 298.443 649.699 299.727C657.225 300.612 662.98 303.047 666.965 307.031C670.949 310.971 672.941 316.107 672.941 322.438ZM650.164 280.934C650.164 276.462 648.681 273.275 645.715 271.371C642.793 269.467 638.499 268.516 632.832 268.516H610.852V293.816H632.898C638.831 293.816 643.191 292.754 645.98 290.629C648.77 288.504 650.164 285.272 650.164 280.934ZM655.609 321.043C655.609 311.525 648.836 306.766 635.289 306.766H610.852V335.918H636.086C642.859 335.918 647.796 334.678 650.895 332.199C654.038 329.72 655.609 326.001 655.609 321.043ZM732.441 336.582C744.704 336.582 753.448 330.473 758.672 318.254L773.547 324.23C769.784 332.952 764.361 339.482 757.277 343.82C750.238 348.159 741.893 350.328 732.242 350.328C722.414 350.328 714.003 348.402 707.008 344.551C700.057 340.655 694.745 335.077 691.07 327.816C687.396 320.556 685.559 311.879 685.559 301.785C685.559 291.603 687.329 282.97 690.871 275.887C694.457 268.803 699.681 263.402 706.543 259.684C713.449 255.921 721.816 254.039 731.645 254.039C742.27 254.039 750.991 256.164 757.809 260.414C764.671 264.62 769.54 270.862 772.418 279.141L756.945 283.59C755.219 278.632 752.12 274.758 747.648 271.969C743.221 269.18 737.975 267.785 731.91 267.785C722.569 267.785 715.397 270.729 710.395 276.617C705.436 282.461 702.957 290.85 702.957 301.785C702.957 309.09 704.108 315.354 706.41 320.578C708.757 325.758 712.121 329.72 716.504 332.465C720.887 335.21 726.199 336.582 732.441 336.582ZM886.57 336.383V349H824.812V336.383H848.188V269.844L826.207 284.188V270.641L849.184 255.434H864.656V336.383H886.57ZM961.078 335.387V349H896.797V337.578C898.612 333.461 900.892 329.587 903.637 325.957C906.426 322.327 909.591 318.829 913.133 315.465C916.674 312.1 920.548 308.736 924.754 305.371C927.543 303.113 929.956 301.033 931.992 299.129C934.073 297.225 935.777 295.454 937.105 293.816C938.921 291.78 940.337 289.699 941.355 287.574C942.374 285.405 942.883 283.147 942.883 280.801C942.883 276.374 941.688 273.009 939.297 270.707C936.951 268.405 933.52 267.254 929.004 267.254C924.665 267.254 921.234 268.427 918.711 270.773C916.232 273.12 914.682 276.551 914.062 281.066L897.461 280.004C898.479 271.725 901.711 265.328 907.156 260.812C912.602 256.297 919.862 254.039 928.938 254.039C938.81 254.039 946.38 256.319 951.648 260.879C956.961 265.439 959.617 271.858 959.617 280.137C959.617 284.475 958.688 288.482 956.828 292.156C954.969 295.831 952.49 299.306 949.391 302.582C947.221 304.973 944.565 307.452 941.422 310.02C938.279 312.543 934.98 315.199 931.527 317.988C927.764 321.043 924.533 323.965 921.832 326.754C919.132 329.543 917.139 332.421 915.855 335.387H961.078ZM1037.45 323.102C1037.45 331.823 1034.61 338.574 1028.95 343.355C1023.28 348.092 1015.2 350.461 1004.71 350.461C994.835 350.461 986.977 348.203 981.133 343.688C975.333 339.172 971.902 332.62 970.84 324.031L987.641 322.57C988.969 332.221 994.635 337.047 1004.64 337.047C1009.64 337.047 1013.54 335.829 1016.33 333.395C1019.12 330.915 1020.51 327.174 1020.51 322.172C1020.51 317.701 1018.85 314.27 1015.53 311.879C1012.26 309.444 1007.41 308.227 1000.99 308.227H994.348V294.68H1000.59C1006.35 294.68 1010.73 293.484 1013.74 291.094C1016.75 288.659 1018.25 285.25 1018.25 280.867C1018.25 276.617 1017.04 273.297 1014.6 270.906C1012.21 268.471 1008.67 267.254 1003.98 267.254C999.682 267.254 996.185 268.405 993.484 270.707C990.828 273.009 989.301 276.285 988.902 280.535L972.434 279.34C973.408 271.415 976.706 265.217 982.328 260.746C987.951 256.275 995.255 254.039 1004.24 254.039C1013.89 254.039 1021.42 256.23 1026.82 260.613C1032.27 264.996 1034.99 271.083 1034.99 278.875C1034.99 284.763 1033.28 289.589 1029.88 293.352C1026.47 297.115 1021.55 299.638 1015.13 300.922V301.188C1022.22 301.984 1027.71 304.331 1031.6 308.227C1035.5 312.122 1037.45 317.081 1037.45 323.102Z" fill="white"/>
</svg>
