<svg width="1060" height="425" viewBox="0 0 1060 425" fill="none" xmlns="http://www.w3.org/2000/svg">
<path d="M220 7.84111L267.024 147.631L267.596 149.334H269.393H421.318L298.484 235.536L296.955 236.609L297.55 238.379L344.515 377.995L221.436 291.621L220 290.614L218.564 291.621L95.4849 377.995L142.45 238.379L143.045 236.609L141.516 235.536L18.6821 149.334H170.607H172.404L172.976 147.631L220 7.84111Z" fill="#00FF00" stroke="white" stroke-width="5"/>
<path d="M578.07 165.159C578.07 174.674 574.484 181.987 567.312 187.096C560.141 192.159 549.758 194.69 536.164 194.69C511.367 194.69 496.953 185.854 492.922 168.182L510.641 165.088C512.047 170.573 514.859 174.581 519.078 177.112C523.344 179.596 529.203 180.838 536.656 180.838C544.391 180.838 550.25 179.62 554.234 177.182C558.219 174.698 560.211 171.018 560.211 166.143C560.211 163.19 559.414 160.776 557.82 158.901C556.227 157.026 553.977 155.456 551.07 154.19C549.195 153.346 546.664 152.549 543.477 151.799C540.289 151.002 536.516 150.135 532.156 149.198C527.094 148.026 523.039 146.971 519.992 146.034C516.992 145.096 514.555 144.182 512.68 143.292C510.805 142.354 509.07 141.323 507.477 140.198C504.336 138.088 501.898 135.393 500.164 132.112C498.43 128.784 497.562 124.752 497.562 120.018C497.562 111.252 500.891 104.526 507.547 99.8384C514.203 95.104 523.836 92.7368 536.445 92.7368C548.352 92.7368 557.352 94.5884 563.445 98.2915C569.539 101.995 573.594 108.182 575.609 116.854L557.75 119.456C556.578 114.862 554.258 111.463 550.789 109.26C547.32 107.01 542.422 105.885 536.094 105.885C529.25 105.885 524.094 106.987 520.625 109.19C517.156 111.393 515.422 114.674 515.422 119.034C515.422 121.752 516.125 124.002 517.531 125.784C518.984 127.518 521.094 128.995 523.859 130.213C526.438 131.432 531.992 132.956 540.523 134.784C544.977 135.768 548.961 136.729 552.477 137.667C555.992 138.604 558.969 139.588 561.406 140.62C563.422 141.51 565.25 142.471 566.891 143.502C568.578 144.534 570.031 145.682 571.25 146.948C573.453 149.104 575.141 151.682 576.312 154.682C577.484 157.682 578.07 161.174 578.07 165.159ZM663.641 155.174C663.641 167.831 660.383 177.581 653.867 184.424C647.352 191.268 638.188 194.69 626.375 194.69C614.797 194.69 605.797 191.221 599.375 184.284C593 177.346 589.812 167.643 589.812 155.174C589.812 142.659 593 132.979 599.375 126.135C605.797 119.245 614.938 115.799 626.797 115.799C638.984 115.799 648.172 119.127 654.359 125.784C660.547 132.44 663.641 142.237 663.641 155.174ZM645.43 155.174C645.43 145.659 643.906 138.745 640.859 134.432C637.859 130.12 633.266 127.963 627.078 127.963C620.609 127.963 615.828 130.213 612.734 134.713C609.641 139.167 608.094 145.987 608.094 155.174C608.094 164.174 609.594 170.995 612.594 175.635C615.641 180.276 620.188 182.596 626.234 182.596C632.797 182.596 637.625 180.346 640.719 175.846C643.859 171.299 645.43 164.409 645.43 155.174ZM696.758 88.9399V193.284H679.32V88.9399H696.758ZM734.094 88.9399V102.651H716.727V88.9399H734.094ZM734.094 117.206V193.284H716.727V117.206H734.094ZM785 194.69C773.797 194.69 765.148 191.292 759.055 184.495C753.008 177.651 749.984 167.995 749.984 155.526C749.984 142.87 753.031 133.096 759.125 126.206C765.219 119.268 773.891 115.799 785.141 115.799C793.719 115.799 800.82 117.979 806.445 122.338C812.07 126.651 815.586 132.627 816.992 140.268L799.414 141.252C798.805 137.268 797.305 134.104 794.914 131.76C792.523 129.37 789.148 128.174 784.789 128.174C779.117 128.174 774.945 130.331 772.273 134.643C769.602 138.956 768.266 145.706 768.266 154.893C768.266 164.127 769.648 171.018 772.414 175.565C775.227 180.112 779.422 182.385 785 182.385C788.984 182.385 792.312 181.19 794.984 178.799C797.703 176.409 799.391 172.799 800.047 167.971L817.555 168.885C816.852 174.042 815.047 178.565 812.141 182.456C809.234 186.346 805.461 189.37 800.82 191.526C796.18 193.635 790.906 194.69 785 194.69ZM848.984 88.9399V102.651H831.617V88.9399H848.984ZM848.984 117.206V193.284H831.617V117.206H848.984ZM902.914 192.37C898.32 193.776 893.188 194.479 887.516 194.479C881.938 194.479 877.672 192.956 874.719 189.909C871.812 186.815 870.359 182.174 870.359 175.987V129.159H861.008V117.206H871.203L876.547 99.6274H887.586V117.206H901.93V129.159H887.586V171.557C887.586 175.213 888.242 177.885 889.555 179.573C890.914 181.213 893.07 182.034 896.023 182.034C897.523 182.034 899.82 181.706 902.914 181.049V192.37ZM983.984 155.174C983.984 167.831 980.727 177.581 974.211 184.424C967.695 191.268 958.531 194.69 946.719 194.69C935.141 194.69 926.141 191.221 919.719 184.284C913.344 177.346 910.156 167.643 910.156 155.174C910.156 142.659 913.344 132.979 919.719 126.135C926.141 119.245 935.281 115.799 947.141 115.799C959.328 115.799 968.516 119.127 974.703 125.784C980.891 132.44 983.984 142.237 983.984 155.174ZM965.773 155.174C965.773 145.659 964.25 138.745 961.203 134.432C958.203 130.12 953.609 127.963 947.422 127.963C940.953 127.963 936.172 130.213 933.078 134.713C929.984 139.167 928.438 145.987 928.438 155.174C928.438 164.174 929.938 170.995 932.938 175.635C935.984 180.276 940.531 182.596 946.578 182.596C953.141 182.596 957.969 180.346 961.062 175.846C964.203 171.299 965.773 164.409 965.773 155.174ZM1017.17 155.174V193.284H999.805V134.995C999.805 131.338 999.734 128.104 999.594 125.292C999.5 122.432 999.383 119.737 999.242 117.206H1015.84C1015.93 118.19 1016 119.456 1016.05 121.002C1016.14 122.549 1016.23 124.143 1016.33 125.784C1016.42 127.424 1016.49 128.924 1016.54 130.284C1016.59 131.643 1016.61 132.627 1016.61 133.237H1016.89C1018.62 128.174 1020.29 124.471 1021.88 122.127C1023.43 119.877 1025.23 118.26 1027.3 117.276C1029.36 116.245 1031.94 115.729 1035.03 115.729C1037.33 115.729 1039.27 116.057 1040.87 116.713V131.549C1038.24 130.94 1035.62 130.635 1032.99 130.635C1027.93 130.635 1024.02 132.721 1021.25 136.893C1018.53 141.065 1017.17 147.159 1017.17 155.174ZM516.887 324.249L507.789 349.284H490.324L525.852 255.717H546.039L581.234 349.284H563.969L554.871 324.249H516.887ZM535.879 268.534C535.348 270.526 534.639 272.85 533.754 275.506C532.868 278.163 532.16 280.221 531.629 281.682L521.137 311.1H550.688L539.996 281.151C539.376 279.424 538.712 277.476 538.004 275.307C537.296 273.094 536.587 270.836 535.879 268.534ZM672.941 322.721C672.941 331.133 669.798 337.663 663.512 342.311C657.27 346.959 648.57 349.284 637.414 349.284H593.52V255.717H633.43C644.719 255.717 653.219 257.665 658.93 261.561C664.685 265.457 667.562 271.256 667.562 278.959C667.562 284.361 666.057 288.898 663.047 292.573C660.081 296.247 655.632 298.726 649.699 300.01C657.225 300.896 662.98 303.331 666.965 307.315C670.949 311.255 672.941 316.39 672.941 322.721ZM650.164 281.217C650.164 276.746 648.681 273.558 645.715 271.655C642.793 269.751 638.499 268.799 632.832 268.799H610.852V294.1H632.898C638.831 294.1 643.191 293.038 645.98 290.913C648.77 288.788 650.164 285.556 650.164 281.217ZM655.609 321.327C655.609 311.808 648.836 307.049 635.289 307.049H610.852V336.202H636.086C642.859 336.202 647.796 334.962 650.895 332.483C654.038 330.004 655.609 326.285 655.609 321.327ZM732.441 336.866C744.704 336.866 753.448 330.756 758.672 318.538L773.547 324.514C769.784 333.236 764.361 339.765 757.277 344.104C750.238 348.443 741.893 350.612 732.242 350.612C722.414 350.612 714.003 348.686 707.008 344.834C700.057 340.939 694.745 335.361 691.07 328.1C687.396 320.84 685.559 312.163 685.559 302.069C685.559 291.887 687.329 283.254 690.871 276.17C694.457 269.087 699.681 263.686 706.543 259.967C713.449 256.204 721.816 254.323 731.645 254.323C742.27 254.323 750.991 256.448 757.809 260.698C764.671 264.903 769.54 271.146 772.418 279.424L756.945 283.874C755.219 278.915 752.12 275.042 747.648 272.252C743.221 269.463 737.975 268.069 731.91 268.069C722.569 268.069 715.397 271.013 710.395 276.901C705.436 282.745 702.957 291.134 702.957 302.069C702.957 309.374 704.108 315.638 706.41 320.862C708.757 326.042 712.121 330.004 716.504 332.749C720.887 335.493 726.199 336.866 732.441 336.866ZM886.57 336.667V349.284H824.812V336.667H848.188V270.127L826.207 284.471V270.924L849.184 255.717H864.656V336.667H886.57ZM961.078 335.67V349.284H896.797V337.862C898.612 333.745 900.892 329.871 903.637 326.241C906.426 322.611 909.591 319.113 913.133 315.749C916.674 312.384 920.548 309.019 924.754 305.655C927.543 303.397 929.956 301.316 931.992 299.413C934.073 297.509 935.777 295.738 937.105 294.1C938.921 292.064 940.337 289.983 941.355 287.858C942.374 285.689 942.883 283.431 942.883 281.084C942.883 276.657 941.688 273.293 939.297 270.991C936.951 268.689 933.52 267.538 929.004 267.538C924.665 267.538 921.234 268.711 918.711 271.057C916.232 273.403 914.682 276.834 914.062 281.35L897.461 280.288C898.479 272.009 901.711 265.612 907.156 261.096C912.602 256.581 919.862 254.323 928.938 254.323C938.81 254.323 946.38 256.603 951.648 261.163C956.961 265.722 959.617 272.142 959.617 280.42C959.617 284.759 958.688 288.765 956.828 292.44C954.969 296.114 952.49 299.59 949.391 302.866C947.221 305.256 944.565 307.736 941.422 310.303C938.279 312.827 934.98 315.483 931.527 318.272C927.764 321.327 924.533 324.249 921.832 327.038C919.132 329.827 917.139 332.704 915.855 335.67H961.078ZM1037.45 323.385C1037.45 332.107 1034.61 338.858 1028.95 343.639C1023.28 348.376 1015.2 350.745 1004.71 350.745C994.835 350.745 986.977 348.487 981.133 343.971C975.333 339.456 971.902 332.903 970.84 324.315L987.641 322.854C988.969 332.505 994.635 337.331 1004.64 337.331C1009.64 337.331 1013.54 336.113 1016.33 333.678C1019.12 331.199 1020.51 327.458 1020.51 322.456C1020.51 317.984 1018.85 314.553 1015.53 312.163C1012.26 309.728 1007.41 308.51 1000.99 308.51H994.348V294.963H1000.59C1006.35 294.963 1010.73 293.768 1013.74 291.377C1016.75 288.943 1018.25 285.534 1018.25 281.151C1018.25 276.901 1017.04 273.581 1014.6 271.19C1012.21 268.755 1008.67 267.538 1003.98 267.538C999.682 267.538 996.185 268.689 993.484 270.991C990.828 273.293 989.301 276.569 988.902 280.819L972.434 279.624C973.408 271.699 976.706 265.501 982.328 261.03C987.951 256.558 995.255 254.323 1004.24 254.323C1013.89 254.323 1021.42 256.514 1026.82 260.897C1032.27 265.28 1034.99 271.367 1034.99 279.159C1034.99 285.047 1033.28 289.872 1029.88 293.635C1026.47 297.398 1021.55 299.922 1015.13 301.206V301.471C1022.22 302.268 1027.71 304.614 1031.6 308.51C1035.5 312.406 1037.45 317.364 1037.45 323.385Z" fill="#00FF00"/>
<path d="M567.312 187.096L569.043 189.547L569.053 189.54L567.312 187.096ZM492.922 168.182L492.406 165.227L489.295 165.77L489.997 168.849L492.922 168.182ZM510.641 165.088L513.547 164.343L512.858 161.656L510.125 162.133L510.641 165.088ZM519.078 177.112L517.535 179.684L517.551 179.694L517.568 179.704L519.078 177.112ZM554.234 177.182L555.8 179.741L555.811 179.735L555.822 179.728L554.234 177.182ZM551.07 154.19L549.839 156.926L549.856 156.933L549.873 156.94L551.07 154.19ZM543.477 151.799L542.749 154.71L542.769 154.715L542.789 154.72L543.477 151.799ZM532.156 149.198L531.48 152.12L531.503 152.126L531.526 152.131L532.156 149.198ZM519.992 146.034L519.097 148.897L519.11 148.901L519.992 146.034ZM512.68 143.292L511.338 145.975L511.365 145.988L511.393 146.001L512.68 143.292ZM507.477 140.198L509.207 137.747L509.178 137.727L509.149 137.707L507.477 140.198ZM500.164 132.112L497.504 133.498L497.508 133.506L497.512 133.514L500.164 132.112ZM507.547 99.8384L509.274 102.291L509.286 102.283L507.547 99.8384ZM575.609 116.854L576.042 119.823L579.27 119.352L578.531 116.175L575.609 116.854ZM557.75 119.456L554.843 120.197L555.511 122.813L558.182 122.424L557.75 119.456ZM550.789 109.26L549.156 111.777L549.169 111.785L549.181 111.793L550.789 109.26ZM517.531 125.784L515.177 127.643L515.204 127.677L515.232 127.71L517.531 125.784ZM523.859 130.213L525.142 127.501L525.106 127.484L525.069 127.468L523.859 130.213ZM540.523 134.784L541.171 131.854L541.162 131.852L541.152 131.85L540.523 134.784ZM561.406 140.62L562.619 137.876L562.597 137.866L562.575 137.857L561.406 140.62ZM566.891 143.502L565.294 146.042L565.31 146.052L565.326 146.062L566.891 143.502ZM571.25 146.948L569.089 149.029L569.12 149.061L569.152 149.092L571.25 146.948ZM575.07 165.159C575.07 173.796 571.882 180.157 565.572 184.653L569.053 189.54C577.087 183.816 581.07 175.553 581.07 165.159H575.07ZM565.582 184.645C559.125 189.203 549.455 191.69 536.164 191.69V197.69C550.061 197.69 561.156 195.114 569.043 189.547L565.582 184.645ZM536.164 191.69C524.077 191.69 514.888 189.529 508.324 185.505C501.858 181.542 497.697 175.627 495.847 167.515L489.997 168.849C492.178 178.409 497.239 185.748 505.188 190.621C513.038 195.433 523.455 197.69 536.164 197.69V191.69ZM493.438 171.137L511.157 168.044L510.125 162.133L492.406 165.227L493.438 171.137ZM507.735 165.834C509.305 171.958 512.536 176.685 517.535 179.684L520.622 174.539C517.183 172.476 514.789 169.188 513.547 164.343L507.735 165.834ZM517.568 179.704C522.468 182.558 528.923 183.838 536.656 183.838V177.838C529.484 177.838 524.219 176.634 520.588 174.519L517.568 179.704ZM536.656 183.838C544.619 183.838 551.129 182.599 555.8 179.741L552.669 174.623C549.371 176.64 544.162 177.838 536.656 177.838V183.838ZM555.822 179.728C560.725 176.671 563.211 172.005 563.211 166.143H557.211C557.211 170.031 555.713 172.725 552.647 174.636L555.822 179.728ZM563.211 166.143C563.211 162.627 562.249 159.479 560.106 156.958L555.534 160.844C556.579 162.073 557.211 163.753 557.211 166.143H563.211ZM560.106 156.958C558.143 154.649 555.477 152.837 552.268 151.439L549.873 156.94C552.476 158.074 554.31 159.403 555.534 160.844L560.106 156.958ZM552.301 151.454C550.18 150.5 547.442 149.65 544.164 148.879L542.789 154.72C545.886 155.448 548.211 156.193 549.839 156.926L552.301 151.454ZM544.204 148.889C540.975 148.082 537.168 147.207 532.787 146.265L531.526 152.131C535.863 153.064 539.603 153.923 542.749 154.71L544.204 148.889ZM532.833 146.275C527.802 145.111 523.825 144.074 520.874 143.166L519.11 148.901C522.253 149.868 526.385 150.941 531.48 152.12L532.833 146.275ZM520.887 143.17C517.961 142.256 515.668 141.39 513.967 140.582L511.393 146.001C513.441 146.975 516.024 147.937 519.097 148.897L520.887 143.17ZM514.021 140.608C512.272 139.733 510.668 138.779 509.207 137.747L505.747 142.649C507.472 143.867 509.338 144.975 511.338 145.975L514.021 140.608ZM509.149 137.707C506.412 135.869 504.314 133.544 502.816 130.71L497.512 133.514C499.482 137.242 502.26 140.308 505.804 142.688L509.149 137.707ZM502.824 130.725C501.364 127.923 500.562 124.393 500.562 120.018H494.562C494.562 125.112 495.495 129.645 497.504 133.498L502.824 130.725ZM500.562 120.018C500.562 112.14 503.485 106.368 509.274 102.291L505.82 97.3856C498.296 102.684 494.562 110.364 494.562 120.018H500.562ZM509.286 102.283C515.226 98.058 524.143 95.7368 536.445 95.7368V89.7368C523.529 89.7368 513.18 92.15 505.808 97.3937L509.286 102.283ZM536.445 95.7368C548.13 95.7368 556.481 97.5697 561.887 100.855L565.003 95.7278C558.222 91.6071 548.574 89.7368 536.445 89.7368V95.7368ZM561.887 100.855C567.129 104.04 570.806 109.44 572.687 117.533L578.531 116.175C576.381 106.924 571.949 99.9489 565.003 95.7278L561.887 100.855ZM575.177 113.885L557.318 116.487L558.182 122.424L576.042 119.823L575.177 113.885ZM560.657 118.714C559.327 113.502 556.61 109.404 552.397 106.728L549.181 111.793C551.905 113.523 553.829 116.222 554.843 120.197L560.657 118.714ZM552.422 106.743C548.273 104.052 542.716 102.885 536.094 102.885V108.885C542.128 108.885 546.368 109.968 549.156 111.777L552.422 106.743ZM536.094 102.885C529.019 102.885 523.189 104.007 519.017 106.658L522.233 111.722C524.998 109.966 529.481 108.885 536.094 108.885V102.885ZM519.017 106.658C514.62 109.45 512.422 113.723 512.422 119.034H518.422C518.422 115.626 519.693 113.336 522.233 111.722L519.017 106.658ZM512.422 119.034C512.422 122.289 513.274 125.233 515.177 127.643L519.886 123.925C518.976 122.772 518.422 121.216 518.422 119.034H512.422ZM515.232 127.71C517.062 129.896 519.598 131.614 522.65 132.959L525.069 127.468C522.59 126.376 520.906 125.141 519.831 123.857L515.232 127.71ZM522.577 132.926C525.523 134.318 531.427 135.903 539.895 137.717L541.152 131.85C532.557 130.009 527.352 128.546 525.142 127.501L522.577 132.926ZM539.876 137.713C544.297 138.69 548.238 139.641 551.704 140.565L553.25 134.768C549.683 133.817 545.656 132.846 541.171 131.854L539.876 137.713ZM551.704 140.565C555.13 141.479 557.966 142.422 560.237 143.383L562.575 137.857C559.971 136.755 556.854 135.729 553.25 134.768L551.704 140.565ZM560.194 143.364C562.094 144.203 563.792 145.098 565.294 146.042L568.487 140.963C566.708 139.844 564.749 138.817 562.619 137.876L560.194 143.364ZM565.326 146.062C566.822 146.976 568.069 147.969 569.089 149.029L573.411 144.867C571.994 143.395 570.334 142.091 568.455 140.943L565.326 146.062ZM569.152 149.092C571.037 150.937 572.494 153.152 573.518 155.774L579.107 153.591C577.787 150.213 575.869 147.271 573.348 144.804L569.152 149.092ZM573.518 155.774C574.526 158.354 575.07 161.462 575.07 165.159H581.07C581.07 160.886 580.443 157.01 579.107 153.591L573.518 155.774ZM599.375 184.284L597.166 186.314L597.173 186.322L599.375 184.284ZM599.375 126.135L597.18 124.09L597.18 124.09L599.375 126.135ZM640.859 134.432L638.397 136.145L638.403 136.154L638.409 136.163L640.859 134.432ZM612.734 134.713L615.198 136.425L615.202 136.419L615.207 136.413L612.734 134.713ZM612.594 175.635L610.074 177.264L610.08 177.273L610.086 177.282L612.594 175.635ZM640.719 175.846L638.25 174.141L638.247 174.147L640.719 175.846ZM660.641 155.174C660.641 167.328 657.519 176.237 651.694 182.356L656.04 186.493C663.246 178.924 666.641 168.333 666.641 155.174H660.641ZM651.694 182.356C645.88 188.463 637.585 191.69 626.375 191.69V197.69C638.79 197.69 648.823 194.073 656.04 186.493L651.694 182.356ZM626.375 191.69C615.43 191.69 607.306 188.436 601.577 182.246L597.173 186.322C604.287 194.007 614.163 197.69 626.375 197.69V191.69ZM601.584 182.254C595.864 176.029 592.812 167.14 592.812 155.174H586.812C586.812 168.146 590.136 178.663 597.166 186.314L601.584 182.254ZM592.812 155.174C592.812 143.156 595.867 134.303 601.57 128.18L597.18 124.09C590.133 131.655 586.812 142.162 586.812 155.174H592.812ZM601.57 128.181C607.284 122.049 615.54 118.799 626.797 118.799V112.799C614.335 112.799 604.309 116.441 597.18 124.09L601.57 128.181ZM626.797 118.799C638.447 118.799 646.717 121.968 652.162 127.826L656.557 123.741C649.627 116.287 639.521 112.799 626.797 112.799V118.799ZM652.162 127.826C657.651 133.731 660.641 142.674 660.641 155.174H666.641C666.641 141.799 663.443 131.149 656.557 123.741L652.162 127.826ZM648.43 155.174C648.43 145.473 646.902 137.786 643.31 132.701L638.409 136.163C640.91 139.703 642.43 145.844 642.43 155.174H648.43ZM643.322 132.719C639.656 127.449 634.047 124.963 627.078 124.963V130.963C632.484 130.963 636.063 132.79 638.397 136.145L643.322 132.719ZM627.078 124.963C619.831 124.963 614.025 127.541 610.262 133.014L615.207 136.413C617.632 132.885 621.388 130.963 627.078 130.963V124.963ZM610.271 133.002C606.66 138.199 605.094 145.756 605.094 155.174H611.094C611.094 146.218 612.621 140.134 615.198 136.425L610.271 133.002ZM605.094 155.174C605.094 164.424 606.62 171.921 610.074 177.264L615.113 174.007C612.567 170.068 611.094 163.925 611.094 155.174H605.094ZM610.086 177.282C613.744 182.853 619.284 185.596 626.234 185.596V179.596C621.091 179.596 617.538 177.699 615.102 173.989L610.086 177.282ZM626.234 185.596C633.557 185.596 639.42 183.031 643.191 177.546L638.247 174.147C635.83 177.661 632.037 179.596 626.234 179.596V185.596ZM643.187 177.551C646.837 172.268 648.43 164.65 648.43 155.174H642.43C642.43 164.168 640.882 170.331 638.25 174.141L643.187 177.551ZM696.758 88.9399H699.758V85.9399H696.758V88.9399ZM696.758 193.284V196.284H699.758V193.284H696.758ZM679.32 193.284H676.32V196.284H679.32V193.284ZM679.32 88.9399V85.9399H676.32V88.9399H679.32ZM693.758 88.9399V193.284H699.758V88.9399H693.758ZM696.758 190.284H679.32V196.284H696.758V190.284ZM682.32 193.284V88.9399H676.32V193.284H682.32ZM679.32 91.9399H696.758V85.9399H679.32V91.9399ZM734.094 88.9399H737.094V85.9399H734.094V88.9399ZM734.094 102.651V105.651H737.094V102.651H734.094ZM716.727 102.651H713.727V105.651H716.727V102.651ZM716.727 88.9399V85.9399H713.727V88.9399H716.727ZM734.094 117.206H737.094V114.206H734.094V117.206ZM734.094 193.284V196.284H737.094V193.284H734.094ZM716.727 193.284H713.727V196.284H716.727V193.284ZM716.727 117.206V114.206H713.727V117.206H716.727ZM731.094 88.9399V102.651H737.094V88.9399H731.094ZM734.094 99.6509H716.727V105.651H734.094V99.6509ZM719.727 102.651V88.9399H713.727V102.651H719.727ZM716.727 91.9399H734.094V85.9399H716.727V91.9399ZM731.094 117.206V193.284H737.094V117.206H731.094ZM734.094 190.284H716.727V196.284H734.094V190.284ZM719.727 193.284V117.206H713.727V193.284H719.727ZM716.727 120.206H734.094V114.206H716.727V120.206ZM759.055 184.495L756.807 186.481L756.814 186.489L756.821 186.497L759.055 184.495ZM759.125 126.206L761.372 128.193L761.379 128.185L759.125 126.206ZM806.445 122.338L804.608 124.71L804.614 124.714L804.62 124.719L806.445 122.338ZM816.992 140.268L817.16 143.263L820.559 143.073L819.943 139.725L816.992 140.268ZM799.414 141.252L796.449 141.706L796.861 144.4L799.582 144.248L799.414 141.252ZM794.914 131.76L792.793 133.882L792.803 133.892L792.814 133.902L794.914 131.76ZM772.414 175.565L769.851 177.124L769.857 177.134L769.863 177.143L772.414 175.565ZM794.984 178.799L793.003 176.546L792.994 176.555L792.984 176.564L794.984 178.799ZM800.047 167.971L800.203 164.975L797.446 164.831L797.074 167.567L800.047 167.971ZM817.555 168.885L820.527 169.291L820.968 166.059L817.711 165.889L817.555 168.885ZM800.82 191.526L802.062 194.257L802.073 194.252L802.084 194.247L800.82 191.526ZM785 191.69C774.44 191.69 766.687 188.513 761.288 182.492L756.821 186.497C763.61 194.07 773.154 197.69 785 197.69V191.69ZM761.303 182.508C755.893 176.385 752.984 167.532 752.984 155.526H746.984C746.984 168.457 750.123 178.916 756.807 186.481L761.303 182.508ZM752.984 155.526C752.984 143.326 755.92 134.359 761.372 128.193L756.878 124.218C750.143 131.834 746.984 142.414 746.984 155.526H752.984ZM761.379 128.185C766.78 122.036 774.549 118.799 785.141 118.799V112.799C773.233 112.799 763.657 116.5 756.871 124.226L761.379 128.185ZM785.141 118.799C793.194 118.799 799.61 120.836 804.608 124.71L808.283 119.967C802.031 115.122 794.243 112.799 785.141 112.799V118.799ZM804.62 124.719C809.597 128.535 812.756 133.825 814.042 140.811L819.943 139.725C818.416 131.43 814.544 124.767 808.271 119.958L804.62 124.719ZM816.824 137.273L799.246 138.257L799.582 144.248L817.16 143.263L816.824 137.273ZM802.38 140.799C801.693 136.307 799.957 132.503 797.014 129.618L792.814 133.902C794.652 135.705 795.917 138.229 796.449 141.706L802.38 140.799ZM797.035 129.639C793.932 126.536 789.703 125.174 784.789 125.174V131.174C788.593 131.174 791.115 132.204 792.793 133.882L797.035 129.639ZM784.789 125.174C778.225 125.174 773.015 127.75 769.723 133.063L774.824 136.223C776.876 132.911 780.01 131.174 784.789 131.174V125.174ZM769.723 133.063C766.604 138.098 765.266 145.537 765.266 154.893H771.266C771.266 145.874 772.599 139.813 774.824 136.223L769.723 133.063ZM765.266 154.893C765.266 164.323 766.659 171.876 769.851 177.124L774.977 174.006C772.638 170.16 771.266 163.931 771.266 154.893H765.266ZM769.863 177.143C773.25 182.619 778.437 185.385 785 185.385V179.385C780.407 179.385 777.203 177.604 774.965 173.987L769.863 177.143ZM785 185.385C789.634 185.385 793.7 183.974 796.985 181.035L792.984 176.564C790.925 178.406 788.335 179.385 785 179.385V185.385ZM796.965 181.052C800.39 178.041 802.3 173.669 803.02 168.375L797.074 167.567C796.481 171.929 795.017 174.776 793.003 176.546L796.965 181.052ZM799.89 170.967L817.398 171.881L817.711 165.889L800.203 164.975L799.89 170.967ZM814.582 168.48C813.943 173.169 812.317 177.206 809.737 180.66L814.544 184.251C817.777 179.924 819.76 174.914 820.527 169.291L814.582 168.48ZM809.737 180.66C807.144 184.131 803.771 186.847 799.556 188.805L802.084 194.247C807.151 191.893 811.324 188.561 814.544 184.251L809.737 180.66ZM799.579 188.795C795.385 190.701 790.546 191.69 785 191.69V197.69C791.267 197.69 796.974 196.57 802.062 194.257L799.579 188.795ZM848.984 88.9399H851.984V85.9399H848.984V88.9399ZM848.984 102.651V105.651H851.984V102.651H848.984ZM831.617 102.651H828.617V105.651H831.617V102.651ZM831.617 88.9399V85.9399H828.617V88.9399H831.617ZM848.984 117.206H851.984V114.206H848.984V117.206ZM848.984 193.284V196.284H851.984V193.284H848.984ZM831.617 193.284H828.617V196.284H831.617V193.284ZM831.617 117.206V114.206H828.617V117.206H831.617ZM845.984 88.9399V102.651H851.984V88.9399H845.984ZM848.984 99.6509H831.617V105.651H848.984V99.6509ZM834.617 102.651V88.9399H828.617V102.651H834.617ZM831.617 91.9399H848.984V85.9399H831.617V91.9399ZM845.984 117.206V193.284H851.984V117.206H845.984ZM848.984 190.284H831.617V196.284H848.984V190.284ZM834.617 193.284V117.206H828.617V193.284H834.617ZM831.617 120.206H848.984V114.206H831.617V120.206ZM902.914 192.37L903.792 195.238L905.914 194.589V192.37H902.914ZM874.719 189.909L872.532 191.963L872.548 191.98L872.565 191.997L874.719 189.909ZM870.359 129.159H873.359V126.159H870.359V129.159ZM861.008 129.159H858.008V132.159H861.008V129.159ZM861.008 117.206V114.206H858.008V117.206H861.008ZM871.203 117.206V120.206H873.427L874.073 118.078L871.203 117.206ZM876.547 99.6274V96.6274H874.323L873.677 98.7549L876.547 99.6274ZM887.586 99.6274H890.586V96.6274H887.586V99.6274ZM887.586 117.206H884.586V120.206H887.586V117.206ZM901.93 117.206H904.93V114.206H901.93V117.206ZM901.93 129.159V132.159H904.93V129.159H901.93ZM887.586 129.159V126.159H884.586V129.159H887.586ZM889.555 179.573L887.187 181.415L887.215 181.451L887.245 181.487L889.555 179.573ZM902.914 181.049H905.914V177.346L902.292 178.115L902.914 181.049ZM902.036 189.501C897.773 190.806 892.942 191.479 887.516 191.479V197.479C893.433 197.479 898.868 196.746 903.792 195.238L902.036 189.501ZM887.516 191.479C882.483 191.479 879.099 190.118 876.873 187.821L872.565 191.997C876.245 195.794 881.392 197.479 887.516 197.479V191.479ZM876.905 187.855C874.718 185.526 873.359 181.757 873.359 175.987H867.359C867.359 182.592 868.907 188.104 872.532 191.963L876.905 187.855ZM873.359 175.987V129.159H867.359V175.987H873.359ZM870.359 126.159H861.008V132.159H870.359V126.159ZM864.008 129.159V117.206H858.008V129.159H864.008ZM861.008 120.206H871.203V114.206H861.008V120.206ZM874.073 118.078L879.417 100.5L873.677 98.7549L868.333 116.333L874.073 118.078ZM876.547 102.627H887.586V96.6274H876.547V102.627ZM884.586 99.6274V117.206H890.586V99.6274H884.586ZM887.586 120.206H901.93V114.206H887.586V120.206ZM898.93 117.206V129.159H904.93V117.206H898.93ZM901.93 126.159H887.586V132.159H901.93V126.159ZM884.586 129.159V171.557H890.586V129.159H884.586ZM884.586 171.557C884.586 175.452 885.262 178.941 887.187 181.415L891.923 177.731C891.222 176.83 890.586 174.974 890.586 171.557H884.586ZM887.245 181.487C889.371 184.053 892.539 185.034 896.023 185.034V179.034C893.601 179.034 892.458 178.374 891.865 177.659L887.245 181.487ZM896.023 185.034C897.856 185.034 900.411 184.647 903.537 183.984L902.292 178.115C899.229 178.764 897.191 179.034 896.023 179.034V185.034ZM899.914 181.049V192.37H905.914V181.049H899.914ZM919.719 184.284L917.51 186.314L917.517 186.322L919.719 184.284ZM919.719 126.135L917.524 124.09L917.524 124.09L919.719 126.135ZM961.203 134.432L958.74 136.145L958.747 136.154L958.753 136.163L961.203 134.432ZM933.078 134.713L935.542 136.425L935.546 136.419L935.55 136.413L933.078 134.713ZM932.938 175.635L930.418 177.264L930.424 177.273L930.43 177.282L932.938 175.635ZM961.062 175.846L958.594 174.141L958.59 174.147L961.062 175.846ZM980.984 155.174C980.984 167.328 977.863 176.237 972.038 182.356L976.384 186.493C983.59 178.924 986.984 168.333 986.984 155.174H980.984ZM972.038 182.356C966.224 188.463 957.929 191.69 946.719 191.69V197.69C959.134 197.69 969.167 194.073 976.384 186.493L972.038 182.356ZM946.719 191.69C935.774 191.69 927.65 188.436 921.92 182.246L917.517 186.322C924.631 194.007 934.507 197.69 946.719 197.69V191.69ZM921.928 182.254C916.208 176.029 913.156 167.14 913.156 155.174H907.156C907.156 168.146 910.48 178.663 917.51 186.314L921.928 182.254ZM913.156 155.174C913.156 143.156 916.211 134.303 921.914 128.18L917.524 124.09C910.477 131.655 907.156 142.162 907.156 155.174H913.156ZM921.913 128.181C927.628 122.049 935.884 118.799 947.141 118.799V112.799C934.679 112.799 924.653 116.441 917.524 124.09L921.913 128.181ZM947.141 118.799C958.791 118.799 967.06 121.968 972.506 127.826L976.9 123.741C969.971 116.287 959.865 112.799 947.141 112.799V118.799ZM972.506 127.826C977.994 133.731 980.984 142.674 980.984 155.174H986.984C986.984 141.799 983.787 131.149 976.9 123.741L972.506 127.826ZM968.773 155.174C968.773 145.473 967.246 137.786 963.653 132.701L958.753 136.163C961.254 139.703 962.773 145.844 962.773 155.174H968.773ZM963.666 132.719C960 127.449 954.391 124.963 947.422 124.963V130.963C952.828 130.963 956.407 132.79 958.74 136.145L963.666 132.719ZM947.422 124.963C940.174 124.963 934.368 127.541 930.606 133.014L935.55 136.413C937.975 132.885 941.732 130.963 947.422 130.963V124.963ZM930.614 133.002C927.004 138.199 925.438 145.756 925.438 155.174H931.438C931.438 146.218 932.965 140.134 935.542 136.425L930.614 133.002ZM925.438 155.174C925.438 164.424 926.964 171.921 930.418 177.264L935.457 174.007C932.911 170.068 931.438 163.925 931.438 155.174H925.438ZM930.43 177.282C934.087 182.853 939.628 185.596 946.578 185.596V179.596C941.435 179.596 937.881 177.699 935.445 173.989L930.43 177.282ZM946.578 185.596C953.901 185.596 959.764 183.031 963.535 177.546L958.59 174.147C956.174 177.661 952.38 179.596 946.578 179.596V185.596ZM963.531 177.551C967.18 172.268 968.773 164.65 968.773 155.174H962.773C962.773 164.168 961.226 170.331 958.594 174.141L963.531 177.551ZM1017.17 193.284V196.284H1020.17V193.284H1017.17ZM999.805 193.284H996.805V196.284H999.805V193.284ZM999.594 125.292L996.595 125.39L996.596 125.416L996.597 125.441L999.594 125.292ZM999.242 117.206V114.206H996.071L996.247 117.372L999.242 117.206ZM1015.84 117.206L1018.82 116.921L1018.56 114.206H1015.84V117.206ZM1016.05 121.002L1013.05 121.093L1013.05 121.139L1013.05 121.184L1016.05 121.002ZM1016.61 133.237H1013.61V136.237H1016.61V133.237ZM1016.89 133.237V136.237H1019.03L1019.73 134.209L1016.89 133.237ZM1021.88 122.127L1019.41 120.428L1019.41 120.434L1019.4 120.441L1021.88 122.127ZM1027.3 117.276L1028.59 119.983L1028.61 119.971L1028.64 119.959L1027.3 117.276ZM1040.87 116.713H1043.87V114.704L1042.01 113.939L1040.87 116.713ZM1040.87 131.549L1040.19 134.472L1043.87 135.326V131.549H1040.87ZM1021.25 136.893L1018.75 135.235L1018.74 135.245L1018.74 135.255L1021.25 136.893ZM1014.17 155.174V193.284H1020.17V155.174H1014.17ZM1017.17 190.284H999.805V196.284H1017.17V190.284ZM1002.8 193.284V134.995H996.805V193.284H1002.8ZM1002.8 134.995C1002.8 131.302 1002.73 128.016 1002.59 125.142L996.597 125.441C996.735 128.192 996.805 131.375 996.805 134.995H1002.8ZM1002.59 125.193C1002.5 122.314 1002.38 119.596 1002.24 117.039L996.247 117.372C996.386 119.878 996.502 122.55 996.595 125.39L1002.59 125.193ZM999.242 120.206H1015.84V114.206H999.242V120.206ZM1012.85 117.49C1012.93 118.385 1013 119.579 1013.05 121.093L1019.05 120.912C1019 119.332 1018.92 117.995 1018.82 116.921L1012.85 117.49ZM1013.05 121.184C1013.15 122.727 1013.24 124.317 1013.33 125.955L1019.32 125.613C1019.23 123.969 1019.14 122.371 1019.04 120.821L1013.05 121.184ZM1013.33 125.955C1013.43 127.577 1013.49 129.054 1013.54 130.387L1019.54 130.18C1019.49 128.794 1019.42 127.271 1019.32 125.613L1013.33 125.955ZM1013.54 130.387C1013.59 131.743 1013.61 132.683 1013.61 133.237H1019.61C1019.61 132.572 1019.58 131.543 1019.54 130.18L1013.54 130.387ZM1016.61 136.237H1016.89V130.237H1016.61V136.237ZM1019.73 134.209C1021.44 129.218 1023 125.82 1024.36 123.814L1019.4 120.441C1017.58 123.122 1015.81 127.131 1014.05 132.265L1019.73 134.209ZM1024.35 123.827C1025.66 121.926 1027.09 120.701 1028.59 119.983L1026 114.568C1023.38 115.82 1021.2 117.829 1019.41 120.428L1024.35 123.827ZM1028.64 119.959C1030.17 119.195 1032.25 118.729 1035.03 118.729V112.729C1031.62 112.729 1028.55 113.294 1025.96 114.593L1028.64 119.959ZM1035.03 118.729C1037.06 118.729 1038.59 119.021 1039.72 119.487L1042.01 113.939C1039.95 113.093 1037.6 112.729 1035.03 112.729V118.729ZM1037.87 116.713V131.549H1043.87V116.713H1037.87ZM1041.55 128.627C1038.7 127.967 1035.85 127.635 1032.99 127.635V133.635C1035.38 133.635 1037.78 133.912 1040.19 134.472L1041.55 128.627ZM1032.99 127.635C1026.94 127.635 1022.08 130.214 1018.75 135.235L1023.75 138.551C1025.95 135.229 1028.92 133.635 1032.99 133.635V127.635ZM1018.74 135.255C1015.56 140.128 1014.17 146.9 1014.17 155.174H1020.17C1020.17 147.418 1021.5 142.002 1023.76 138.531L1018.74 135.255ZM516.887 324.249V321.249H514.785L514.067 323.224L516.887 324.249ZM507.789 349.284V352.284H509.891L510.609 350.308L507.789 349.284ZM490.324 349.284L487.52 348.219L485.976 352.284H490.324V349.284ZM525.852 255.717V252.717H523.782L523.047 254.652L525.852 255.717ZM546.039 255.717L548.847 254.661L548.116 252.717H546.039V255.717ZM581.234 349.284V352.284H585.568L584.042 348.227L581.234 349.284ZM563.969 349.284L561.149 350.308L561.867 352.284H563.969V349.284ZM554.871 324.249L557.691 323.224L556.973 321.249H554.871V324.249ZM535.879 268.534L538.746 267.651L535.673 257.663L532.98 267.761L535.879 268.534ZM531.629 281.682L528.81 280.657L528.806 280.666L528.803 280.674L531.629 281.682ZM521.137 311.1L518.311 310.092L516.882 314.1H521.137V311.1ZM550.688 311.1V314.1H554.944L553.513 310.091L550.688 311.1ZM539.996 281.151L542.821 280.142L542.82 280.137L539.996 281.151ZM538.004 275.307L535.147 276.221L535.149 276.23L535.152 276.238L538.004 275.307ZM514.067 323.224L504.969 348.259L510.609 350.308L519.706 325.273L514.067 323.224ZM507.789 346.284H490.324V352.284H507.789V346.284ZM493.129 350.349L528.656 256.782L523.047 254.652L487.52 348.219L493.129 350.349ZM525.852 258.717H546.039V252.717H525.852V258.717ZM543.231 256.773L578.426 350.34L584.042 348.227L548.847 254.661L543.231 256.773ZM581.234 346.284H563.969V352.284H581.234V346.284ZM566.788 348.259L557.691 323.224L552.051 325.273L561.149 350.308L566.788 348.259ZM554.871 321.249H516.887V327.249H554.871V321.249ZM532.98 267.761C532.469 269.677 531.78 271.94 530.908 274.558L536.6 276.455C537.498 273.76 538.226 271.375 538.778 269.307L532.98 267.761ZM530.908 274.558C530.025 277.205 529.327 279.234 528.81 280.657L534.448 282.707C534.993 281.209 535.712 279.12 536.6 276.455L530.908 274.558ZM528.803 280.674L518.311 310.092L523.962 312.108L534.455 282.69L528.803 280.674ZM521.137 314.1H550.688V308.1H521.137V314.1ZM553.513 310.091L542.821 280.142L537.171 282.159L547.862 312.109L553.513 310.091ZM542.82 280.137C542.212 278.444 541.557 276.524 540.856 274.376L535.152 276.238C535.867 278.429 536.541 280.405 537.173 282.164L542.82 280.137ZM540.861 274.393C540.156 272.19 539.451 269.943 538.746 267.651L533.012 269.416C533.723 271.728 534.435 273.997 535.147 276.221L540.861 274.393ZM663.512 342.311L661.728 339.899L661.72 339.905L663.512 342.311ZM593.52 349.284H590.52V352.284H593.52V349.284ZM593.52 255.717V252.717H590.52V255.717H593.52ZM658.93 261.561L657.239 264.039L657.248 264.045L658.93 261.561ZM663.047 292.573L660.726 290.672L660.719 290.68L660.713 290.688L663.047 292.573ZM649.699 300.01L649.065 297.078L649.349 302.99L649.699 300.01ZM666.965 307.315L664.844 309.436L664.849 309.442L664.855 309.448L666.965 307.315ZM645.715 271.655L644.077 274.168L644.086 274.174L644.094 274.18L645.715 271.655ZM610.852 268.799V265.799H607.852V268.799H610.852ZM610.852 294.1H607.852V297.1H610.852V294.1ZM610.852 307.049V304.049H607.852V307.049H610.852ZM610.852 336.202H607.852V339.202H610.852V336.202ZM650.895 332.483L649.037 330.127L649.029 330.134L649.02 330.14L650.895 332.483ZM669.941 322.721C669.941 330.265 667.184 335.864 661.728 339.899L665.295 344.723C672.412 339.461 675.941 332 675.941 322.721H669.941ZM661.72 339.905C656.177 344.033 648.195 346.284 637.414 346.284V352.284C648.945 352.284 658.362 349.886 665.304 344.717L661.72 339.905ZM637.414 346.284H593.52V352.284H637.414V346.284ZM596.52 349.284V255.717H590.52V349.284H596.52ZM593.52 258.717H633.43V252.717H593.52V258.717ZM633.43 258.717C644.462 258.717 652.252 260.637 657.239 264.039L660.62 259.083C654.186 254.693 644.975 252.717 633.43 252.717V258.717ZM657.248 264.045C662.079 267.316 664.562 272.125 664.562 278.959H670.562C670.562 270.387 667.291 263.598 660.611 259.077L657.248 264.045ZM664.562 278.959C664.562 283.768 663.238 287.606 660.726 290.672L665.368 294.474C668.877 290.19 670.562 284.953 670.562 278.959H664.562ZM660.713 290.688C658.287 293.694 654.521 295.897 649.065 297.078L650.334 302.942C656.742 301.556 661.875 298.801 665.381 294.457L660.713 290.688ZM649.349 302.99C656.435 303.823 661.478 306.07 664.844 309.436L669.086 305.194C664.483 300.591 658.016 297.968 650.05 297.031L649.349 302.99ZM664.855 309.448C668.194 312.749 669.941 317.078 669.941 322.721H675.941C675.941 315.703 673.705 309.761 669.074 305.182L664.855 309.448ZM653.164 281.217C653.164 276.036 651.394 271.735 647.335 269.13L644.094 274.18C645.968 275.382 647.164 277.456 647.164 281.217H653.164ZM647.352 269.141C643.726 266.779 638.751 265.799 632.832 265.799V271.799C638.247 271.799 641.86 272.724 644.077 274.168L647.352 269.141ZM632.832 265.799H610.852V271.799H632.832V265.799ZM607.852 268.799V294.1H613.852V268.799H607.852ZM610.852 297.1H632.898V291.1H610.852V297.1ZM632.898 297.1C639.076 297.1 644.234 296.015 647.799 293.299L644.162 288.526C642.149 290.06 638.586 291.1 632.898 291.1V297.1ZM647.799 293.299C651.509 290.472 653.164 286.245 653.164 281.217H647.164C647.164 284.866 646.03 287.103 644.162 288.526L647.799 293.299ZM658.609 321.327C658.609 315.759 656.569 311.196 652.254 308.164C648.132 305.268 642.322 304.049 635.289 304.049V310.049C641.803 310.049 646.153 311.21 648.805 313.073C651.263 314.801 652.609 317.376 652.609 321.327H658.609ZM635.289 304.049H610.852V310.049H635.289V304.049ZM607.852 307.049V336.202H613.852V307.049H607.852ZM610.852 339.202H636.086V333.202H610.852V339.202ZM636.086 339.202C643.104 339.202 648.875 337.94 652.769 334.826L649.02 330.14C646.716 331.984 642.615 333.202 636.086 333.202V339.202ZM652.752 334.838C656.787 331.656 658.609 326.962 658.609 321.327H652.609C652.609 325.608 651.288 328.352 649.037 330.127L652.752 334.838ZM758.672 318.538L759.79 315.754L757.067 314.66L755.913 317.358L758.672 318.538ZM773.547 324.514L776.301 325.703L777.52 322.878L774.665 321.73L773.547 324.514ZM757.277 344.104L755.71 341.546L755.703 341.55L757.277 344.104ZM707.008 344.834L705.541 347.451L705.551 347.457L705.561 347.462L707.008 344.834ZM690.871 276.17L688.195 274.815L688.191 274.822L688.188 274.829L690.871 276.17ZM706.543 259.967L707.972 262.605L707.978 262.602L706.543 259.967ZM757.809 260.698L756.222 263.244L756.231 263.25L756.241 263.256L757.809 260.698ZM772.418 279.424L773.247 282.307L776.292 281.432L775.252 278.439L772.418 279.424ZM756.945 283.874L754.112 284.86L755.046 287.541L757.774 286.757L756.945 283.874ZM747.648 272.252L746.049 274.791L746.061 274.798L747.648 272.252ZM710.395 276.901L708.108 274.958L708.107 274.96L710.395 276.901ZM706.41 320.862L703.665 322.072L703.671 322.086L703.677 322.1L706.41 320.862ZM732.441 339.866C739.092 339.866 744.966 338.2 749.915 334.743C754.847 331.297 758.652 326.216 761.43 319.717L755.913 317.358C753.468 323.078 750.289 327.161 746.478 329.825C742.683 332.476 738.053 333.866 732.441 333.866V339.866ZM757.553 321.321L772.428 327.298L774.665 321.73L759.79 315.754L757.553 321.321ZM770.792 323.326C767.238 331.563 762.193 337.575 755.71 341.546L758.844 346.662C766.529 341.956 772.33 334.908 776.301 325.703L770.792 323.326ZM755.703 341.55C749.212 345.551 741.432 347.612 732.242 347.612V353.612C742.355 353.612 751.265 351.334 758.851 346.658L755.703 341.55ZM732.242 347.612C722.805 347.612 714.915 345.764 708.455 342.207L705.561 347.462C713.09 351.608 722.024 353.612 732.242 353.612V347.612ZM708.475 342.218C702.055 338.619 697.159 333.486 693.747 326.745L688.394 329.455C692.331 337.235 698.059 343.258 705.541 347.451L708.475 342.218ZM693.747 326.745C690.33 319.994 688.559 311.803 688.559 302.069H682.559C682.559 312.522 684.462 321.686 688.394 329.455L693.747 326.745ZM688.559 302.069C688.559 292.223 690.272 284.077 693.554 277.512L688.188 274.829C684.387 282.43 682.559 291.55 682.559 302.069H688.559ZM693.548 277.525C696.863 270.976 701.657 266.028 707.972 262.605L705.114 257.33C697.705 261.344 692.051 267.198 688.195 274.815L693.548 277.525ZM707.978 262.602C714.347 259.131 722.195 257.323 731.645 257.323V251.323C721.438 251.323 712.551 253.277 705.108 257.333L707.978 262.602ZM731.645 257.323C741.885 257.323 750.01 259.372 756.222 263.244L759.396 258.152C751.971 253.524 742.654 251.323 731.645 251.323V257.323ZM756.241 263.256C762.458 267.066 766.913 272.723 769.584 280.409L775.252 278.439C772.168 269.568 766.883 262.741 759.376 258.14L756.241 263.256ZM771.589 276.541L756.116 280.99L757.774 286.757L773.247 282.307L771.589 276.541ZM759.778 282.887C757.826 277.28 754.286 272.857 749.236 269.707L746.061 274.798C749.954 277.226 752.612 280.551 754.112 284.86L759.778 282.887ZM749.248 269.714C744.269 266.578 738.449 265.069 731.91 265.069V271.069C737.501 271.069 742.173 272.349 746.049 274.791L749.248 269.714ZM731.91 265.069C721.891 265.069 713.8 268.26 708.108 274.958L712.681 278.843C716.994 273.766 723.248 271.069 731.91 271.069V265.069ZM708.107 274.96C702.527 281.537 699.957 290.722 699.957 302.069H705.957C705.957 291.546 708.346 283.953 712.682 278.842L708.107 274.96ZM699.957 302.069C699.957 309.678 701.155 316.376 703.665 322.072L709.155 319.652C707.061 314.9 705.957 309.069 705.957 302.069H699.957ZM703.677 322.1C706.242 327.761 709.979 332.202 714.912 335.291L718.096 330.206C714.263 327.805 711.271 324.322 709.143 319.624L703.677 322.1ZM714.912 335.291C719.862 338.392 725.753 339.866 732.441 339.866V333.866C726.645 333.866 721.911 332.595 718.096 330.206L714.912 335.291ZM886.57 336.667H889.57V333.667H886.57V336.667ZM886.57 349.284V352.284H889.57V349.284H886.57ZM824.812 349.284H821.812V352.284H824.812V349.284ZM824.812 336.667V333.667H821.812V336.667H824.812ZM848.188 336.667V339.667H851.188V336.667H848.188ZM848.188 270.127H851.188V264.587L846.548 267.615L848.188 270.127ZM826.207 284.471H823.207V290.011L827.847 286.984L826.207 284.471ZM826.207 270.924L824.551 268.423L823.207 269.312V270.924H826.207ZM849.184 255.717V252.717H848.281L847.528 253.216L849.184 255.717ZM864.656 255.717H867.656V252.717H864.656V255.717ZM864.656 336.667H861.656V339.667H864.656V336.667ZM883.57 336.667V349.284H889.57V336.667H883.57ZM886.57 346.284H824.812V352.284H886.57V346.284ZM827.812 349.284V336.667H821.812V349.284H827.812ZM824.812 339.667H848.188V333.667H824.812V339.667ZM851.188 336.667V270.127H845.188V336.667H851.188ZM846.548 267.615L824.568 281.959L827.847 286.984L849.827 272.64L846.548 267.615ZM829.207 284.471V270.924H823.207V284.471H829.207ZM827.863 273.426L850.839 258.219L847.528 253.216L824.551 268.423L827.863 273.426ZM849.184 258.717H864.656V252.717H849.184V258.717ZM861.656 255.717V336.667H867.656V255.717H861.656ZM864.656 339.667H886.57V333.667H864.656V339.667ZM961.078 335.67H964.078V332.67H961.078V335.67ZM961.078 349.284V352.284H964.078V349.284H961.078ZM896.797 349.284H893.797V352.284H896.797V349.284ZM896.797 337.862L894.052 336.652L893.797 337.23V337.862H896.797ZM903.637 326.241L901.258 324.413L901.251 324.422L901.244 324.431L903.637 326.241ZM913.133 315.749L911.067 313.574L913.133 315.749ZM924.754 305.655L926.628 307.997L926.635 307.992L926.642 307.987L924.754 305.655ZM931.992 299.413L929.967 297.199L929.955 297.21L929.944 297.221L931.992 299.413ZM937.105 294.1L934.866 292.104L934.819 292.156L934.775 292.211L937.105 294.1ZM941.355 287.858L944.061 289.154L944.066 289.143L944.071 289.133L941.355 287.858ZM939.297 270.991L937.196 273.132L937.206 273.142L937.216 273.152L939.297 270.991ZM918.711 271.057L916.668 268.86L916.658 268.869L916.649 268.878L918.711 271.057ZM914.062 281.35L913.871 284.344L916.655 284.522L917.035 281.758L914.062 281.35ZM897.461 280.288L894.483 279.921L894.095 283.078L897.269 283.281L897.461 280.288ZM951.648 261.163L949.685 263.431L949.695 263.439L951.648 261.163ZM949.391 302.866L947.211 300.804L947.19 300.827L947.169 300.85L949.391 302.866ZM941.422 310.303L943.3 312.643L943.31 312.635L943.32 312.627L941.422 310.303ZM931.527 318.272L929.642 315.938L929.637 315.943L931.527 318.272ZM915.855 335.67L913.102 334.479L911.288 338.67H915.855V335.67ZM958.078 335.67V349.284H964.078V335.67H958.078ZM961.078 346.284H896.797V352.284H961.078V346.284ZM899.797 349.284V337.862H893.797V349.284H899.797ZM899.542 339.072C901.262 335.17 903.423 331.497 906.03 328.05L901.244 324.431C898.36 328.245 895.962 332.319 894.052 336.652L899.542 339.072ZM906.016 328.068C908.704 324.57 911.763 321.188 915.199 317.924L911.067 313.574C907.419 317.038 904.148 320.651 901.258 324.413L906.016 328.068ZM915.199 317.924C918.673 314.623 922.482 311.314 926.628 307.997L922.88 303.312C918.614 306.725 914.676 310.145 911.067 313.574L915.199 317.924ZM926.642 307.987C929.471 305.696 931.94 303.568 934.041 301.604L929.944 297.221C927.971 299.065 925.615 301.098 922.866 303.323L926.642 307.987ZM934.017 301.626C936.174 299.653 937.989 297.774 939.436 295.99L934.775 292.211C933.566 293.702 931.972 295.365 929.967 297.199L934.017 301.626ZM939.345 296.096C941.319 293.882 942.904 291.57 944.061 289.154L938.65 286.562C937.771 288.396 936.522 290.245 934.866 292.104L939.345 296.096ZM944.071 289.133C945.273 286.573 945.883 283.881 945.883 281.084H939.883C939.883 282.981 939.475 284.804 938.64 286.583L944.071 289.133ZM945.883 281.084C945.883 276.125 944.532 271.867 941.378 268.83L937.216 273.152C938.843 274.718 939.883 277.19 939.883 281.084H945.883ZM941.398 268.849C938.308 265.818 934.006 264.538 929.004 264.538V270.538C933.033 270.538 935.593 271.559 937.196 273.132L941.398 268.849ZM929.004 264.538C924.112 264.538 919.88 265.873 916.668 268.86L920.754 273.254C922.589 271.548 925.219 270.538 929.004 270.538V264.538ZM916.649 268.878C913.529 271.831 911.772 275.977 911.09 280.942L917.035 281.758C917.593 277.692 918.934 274.976 920.773 273.236L916.649 268.878ZM914.254 278.356L897.653 277.294L897.269 283.281L913.871 284.344L914.254 278.356ZM900.439 280.654C901.381 272.99 904.319 267.347 909.071 263.405L905.241 258.787C899.103 263.877 895.577 271.028 894.483 279.921L900.439 280.654ZM909.071 263.405C913.841 259.45 920.36 257.323 928.938 257.323V251.323C919.364 251.323 911.362 253.711 905.241 258.787L909.071 263.405ZM928.938 257.323C938.386 257.323 945.151 259.507 949.685 263.431L953.612 258.894C947.609 253.699 939.234 251.323 928.938 251.323V257.323ZM949.695 263.439C954.22 267.324 956.617 272.841 956.617 280.42H962.617C962.617 271.443 959.702 264.121 953.602 258.886L949.695 263.439ZM956.617 280.42C956.617 284.314 955.787 287.853 954.151 291.085L959.505 293.794C961.588 289.678 962.617 285.204 962.617 280.42H956.617ZM954.151 291.085C952.435 294.478 950.13 297.719 947.211 300.804L951.57 304.927C954.849 301.461 957.503 297.751 959.505 293.794L954.151 291.085ZM947.169 300.85C945.121 303.106 942.58 305.484 939.524 307.98L943.32 312.627C946.551 309.987 949.321 307.406 951.612 304.882L947.169 300.85ZM939.544 307.964C936.398 310.489 933.098 313.147 929.642 315.938L933.412 320.606C936.863 317.818 940.159 315.164 943.3 312.643L939.544 307.964ZM929.637 315.943C925.802 319.055 922.478 322.058 919.677 324.951L923.987 329.124C926.587 326.439 929.726 323.598 933.418 320.601L929.637 315.943ZM919.677 324.951C916.774 327.949 914.556 331.121 913.102 334.479L918.609 336.862C919.723 334.287 921.489 331.704 923.987 329.124L919.677 324.951ZM915.855 338.67H961.078V332.67H915.855V338.67ZM1028.95 343.639L1030.87 345.941L1030.88 345.932L1028.95 343.639ZM981.133 343.971L979.29 346.338L979.298 346.345L981.133 343.971ZM970.84 324.315L970.58 321.326L967.481 321.596L967.863 324.683L970.84 324.315ZM987.641 322.854L990.613 322.445L990.224 319.618L987.381 319.865L987.641 322.854ZM1016.33 333.678L1018.3 335.938L1018.31 335.929L1018.32 335.92L1016.33 333.678ZM1015.53 312.163L1013.74 314.57L1013.76 314.584L1013.78 314.597L1015.53 312.163ZM994.348 308.51H991.348V311.51H994.348V308.51ZM994.348 294.963V291.963H991.348V294.963H994.348ZM1013.74 291.377L1015.6 293.727L1015.61 293.718L1015.62 293.71L1013.74 291.377ZM1014.6 271.19L1012.46 273.292L1012.48 273.311L1012.5 273.331L1014.6 271.19ZM993.484 270.991L991.538 268.708L991.529 268.716L991.52 268.724L993.484 270.991ZM988.902 280.819L988.685 283.811L991.615 284.024L991.889 281.099L988.902 280.819ZM972.434 279.624L969.456 279.258L969.071 282.387L972.216 282.616L972.434 279.624ZM982.328 261.03L980.461 258.682L982.328 261.03ZM1026.82 260.897L1024.93 263.227L1024.94 263.234L1026.82 260.897ZM1015.13 301.206L1014.54 298.264L1012.13 298.746V301.206H1015.13ZM1015.13 301.471H1012.13V304.153L1014.8 304.452L1015.13 301.471ZM1031.6 308.51L1029.48 310.632L1031.6 308.51ZM1034.45 323.385C1034.45 331.395 1031.88 337.238 1027.01 341.346L1030.88 345.932C1037.34 340.478 1040.45 332.818 1040.45 323.385H1034.45ZM1027.02 341.337C1022.08 345.466 1014.79 347.745 1004.71 347.745V353.745C1015.61 353.745 1024.48 351.286 1030.87 345.941L1027.02 341.337ZM1004.71 347.745C995.276 347.745 988.133 345.589 982.967 341.597L979.298 346.345C985.82 351.384 994.393 353.745 1004.71 353.745V347.745ZM982.976 341.604C977.915 337.664 974.801 331.896 973.817 323.947L967.863 324.683C969.004 333.911 972.751 341.247 979.29 346.338L982.976 341.604ZM971.1 327.304L987.901 325.843L987.381 319.865L970.58 321.326L971.1 327.304ZM984.669 323.263C985.401 328.588 987.392 332.973 990.942 335.995C994.48 339.009 999.172 340.331 1004.64 340.331V334.331C1000.1 334.331 996.96 333.24 994.832 331.427C992.714 329.624 991.208 326.771 990.613 322.445L984.669 323.263ZM1004.64 340.331C1010.11 340.331 1014.8 338.996 1018.3 335.938L1014.36 331.418C1012.28 333.231 1009.17 334.331 1004.64 334.331V340.331ZM1018.32 335.92C1021.95 332.696 1023.51 328.008 1023.51 322.456H1017.51C1017.51 326.908 1016.29 329.702 1014.34 331.436L1018.32 335.92ZM1023.51 322.456C1023.51 317.124 1021.47 312.741 1017.28 309.728L1013.78 314.597C1016.23 316.366 1017.51 318.845 1017.51 322.456H1023.51ZM1017.32 309.755C1013.31 306.771 1007.71 305.51 1000.99 305.51V311.51C1007.11 311.51 1011.2 312.684 1013.74 314.57L1017.32 309.755ZM1000.99 305.51H994.348V311.51H1000.99V305.51ZM997.348 308.51V294.963H991.348V308.51H997.348ZM994.348 297.963H1000.59V291.963H994.348V297.963ZM1000.59 297.963C1006.7 297.963 1011.86 296.703 1015.6 293.727L1011.87 289.028C1009.6 290.833 1005.99 291.963 1000.59 291.963V297.963ZM1015.62 293.71C1019.44 290.626 1021.25 286.304 1021.25 281.151H1015.25C1015.25 284.763 1014.06 287.259 1011.85 289.045L1015.62 293.71ZM1021.25 281.151C1021.25 276.305 1019.85 272.136 1016.7 269.049L1012.5 273.331C1014.23 275.025 1015.25 277.496 1015.25 281.151H1021.25ZM1016.74 269.088C1013.6 265.89 1009.16 264.538 1003.98 264.538V270.538C1008.17 270.538 1010.82 271.62 1012.46 273.292L1016.74 269.088ZM1003.98 264.538C999.125 264.538 994.89 265.851 991.538 268.708L995.431 273.274C997.48 271.527 1000.24 270.538 1003.98 270.538V264.538ZM991.52 268.724C988.159 271.636 986.37 275.694 985.915 280.539L991.889 281.099C992.232 277.443 993.497 274.95 995.449 273.258L991.52 268.724ZM989.12 277.827L972.651 276.631L972.216 282.616L988.685 283.811L989.12 277.827ZM975.411 279.989C976.301 272.751 979.26 267.303 984.195 263.378L980.461 258.682C974.152 263.699 970.514 270.647 969.456 279.258L975.411 279.989ZM984.195 263.378C989.165 259.425 995.759 257.323 1004.24 257.323V251.323C994.751 251.323 986.736 253.691 980.461 258.682L984.195 263.378ZM1004.24 257.323C1013.47 257.323 1020.24 259.419 1024.93 263.226L1028.71 258.567C1022.6 253.61 1014.32 251.323 1004.24 251.323V257.323ZM1024.94 263.234C1029.59 266.977 1031.99 272.157 1031.99 279.159H1037.99C1037.99 270.577 1034.94 263.582 1028.7 258.56L1024.94 263.234ZM1031.99 279.159C1031.99 284.429 1030.48 288.497 1027.65 291.621L1032.1 295.649C1036.09 291.247 1037.99 285.665 1037.99 279.159H1031.99ZM1027.65 291.621C1024.78 294.786 1020.52 297.069 1014.54 298.264L1015.72 304.147C1022.59 302.774 1028.15 300.011 1032.1 295.649L1027.65 291.621ZM1012.13 301.206V301.471H1018.13V301.206H1012.13ZM1014.8 304.452C1021.41 305.196 1026.19 307.342 1029.48 310.632L1033.72 306.389C1029.22 301.887 1023.03 299.34 1015.47 298.49L1014.8 304.452ZM1029.48 310.632C1032.76 313.91 1034.45 318.079 1034.45 323.385H1040.45C1040.45 316.65 1038.24 310.902 1033.72 306.389L1029.48 310.632Z" fill="white"/>
</svg>
