<svg width="1060" height="423" viewBox="0 0 1060 423" fill="none" xmlns="http://www.w3.org/2000/svg">
<path d="M220 0L269.393 146.143H429.232L299.92 236.464L349.313 382.607L220 292.286L90.6872 382.607L140.08 236.464L10.7676 146.143H170.607L220 0Z" fill="white"/>
<path d="M578.07 164.875C578.07 174.391 574.484 181.703 567.312 186.812C560.141 191.875 549.758 194.406 536.164 194.406C511.367 194.406 496.953 185.57 492.922 167.898L510.641 164.805C512.047 170.289 514.859 174.297 519.078 176.828C523.344 179.312 529.203 180.555 536.656 180.555C544.391 180.555 550.25 179.336 554.234 176.898C558.219 174.414 560.211 170.734 560.211 165.859C560.211 162.906 559.414 160.492 557.82 158.617C556.227 156.742 553.977 155.172 551.07 153.906C549.195 153.062 546.664 152.266 543.477 151.516C540.289 150.719 536.516 149.852 532.156 148.914C527.094 147.742 523.039 146.688 519.992 145.75C516.992 144.812 514.555 143.898 512.68 143.008C510.805 142.07 509.07 141.039 507.477 139.914C504.336 137.805 501.898 135.109 500.164 131.828C498.43 128.5 497.562 124.469 497.562 119.734C497.562 110.969 500.891 104.242 507.547 99.5547C514.203 94.8203 523.836 92.4531 536.445 92.4531C548.352 92.4531 557.352 94.3047 563.445 98.0078C569.539 101.711 573.594 107.898 575.609 116.57L557.75 119.172C556.578 114.578 554.258 111.18 550.789 108.977C547.32 106.727 542.422 105.602 536.094 105.602C529.25 105.602 524.094 106.703 520.625 108.906C517.156 111.109 515.422 114.391 515.422 118.75C515.422 121.469 516.125 123.719 517.531 125.5C518.984 127.234 521.094 128.711 523.859 129.93C526.438 131.148 531.992 132.672 540.523 134.5C544.977 135.484 548.961 136.445 552.477 137.383C555.992 138.32 558.969 139.305 561.406 140.336C563.422 141.227 565.25 142.188 566.891 143.219C568.578 144.25 570.031 145.398 571.25 146.664C573.453 148.82 575.141 151.398 576.312 154.398C577.484 157.398 578.07 160.891 578.07 164.875ZM663.641 154.891C663.641 167.547 660.383 177.297 653.867 184.141C647.352 190.984 638.188 194.406 626.375 194.406C614.797 194.406 605.797 190.938 599.375 184C593 177.062 589.812 167.359 589.812 154.891C589.812 142.375 593 132.695 599.375 125.852C605.797 118.961 614.938 115.516 626.797 115.516C638.984 115.516 648.172 118.844 654.359 125.5C660.547 132.156 663.641 141.953 663.641 154.891ZM645.43 154.891C645.43 145.375 643.906 138.461 640.859 134.148C637.859 129.836 633.266 127.68 627.078 127.68C620.609 127.68 615.828 129.93 612.734 134.43C609.641 138.883 608.094 145.703 608.094 154.891C608.094 163.891 609.594 170.711 612.594 175.352C615.641 179.992 620.188 182.312 626.234 182.312C632.797 182.312 637.625 180.062 640.719 175.562C643.859 171.016 645.43 164.125 645.43 154.891ZM696.758 88.6562V193H679.32V88.6562H696.758ZM734.094 88.6562V102.367H716.727V88.6562H734.094ZM734.094 116.922V193H716.727V116.922H734.094ZM785 194.406C773.797 194.406 765.148 191.008 759.055 184.211C753.008 177.367 749.984 167.711 749.984 155.242C749.984 142.586 753.031 132.812 759.125 125.922C765.219 118.984 773.891 115.516 785.141 115.516C793.719 115.516 800.82 117.695 806.445 122.055C812.07 126.367 815.586 132.344 816.992 139.984L799.414 140.969C798.805 136.984 797.305 133.82 794.914 131.477C792.523 129.086 789.148 127.891 784.789 127.891C779.117 127.891 774.945 130.047 772.273 134.359C769.602 138.672 768.266 145.422 768.266 154.609C768.266 163.844 769.648 170.734 772.414 175.281C775.227 179.828 779.422 182.102 785 182.102C788.984 182.102 792.312 180.906 794.984 178.516C797.703 176.125 799.391 172.516 800.047 167.688L817.555 168.602C816.852 173.758 815.047 178.281 812.141 182.172C809.234 186.062 805.461 189.086 800.82 191.242C796.18 193.352 790.906 194.406 785 194.406ZM848.984 88.6562V102.367H831.617V88.6562H848.984ZM848.984 116.922V193H831.617V116.922H848.984ZM902.914 192.086C898.32 193.492 893.188 194.195 887.516 194.195C881.938 194.195 877.672 192.672 874.719 189.625C871.812 186.531 870.359 181.891 870.359 175.703V128.875H861.008V116.922H871.203L876.547 99.3438H887.586V116.922H901.93V128.875H887.586V171.273C887.586 174.93 888.242 177.602 889.555 179.289C890.914 180.93 893.07 181.75 896.023 181.75C897.523 181.75 899.82 181.422 902.914 180.766V192.086ZM983.984 154.891C983.984 167.547 980.727 177.297 974.211 184.141C967.695 190.984 958.531 194.406 946.719 194.406C935.141 194.406 926.141 190.938 919.719 184C913.344 177.062 910.156 167.359 910.156 154.891C910.156 142.375 913.344 132.695 919.719 125.852C926.141 118.961 935.281 115.516 947.141 115.516C959.328 115.516 968.516 118.844 974.703 125.5C980.891 132.156 983.984 141.953 983.984 154.891ZM965.773 154.891C965.773 145.375 964.25 138.461 961.203 134.148C958.203 129.836 953.609 127.68 947.422 127.68C940.953 127.68 936.172 129.93 933.078 134.43C929.984 138.883 928.438 145.703 928.438 154.891C928.438 163.891 929.938 170.711 932.938 175.352C935.984 179.992 940.531 182.312 946.578 182.312C953.141 182.312 957.969 180.062 961.062 175.562C964.203 171.016 965.773 164.125 965.773 154.891ZM1017.17 154.891V193H999.805V134.711C999.805 131.055 999.734 127.82 999.594 125.008C999.5 122.148 999.383 119.453 999.242 116.922H1015.84C1015.93 117.906 1016 119.172 1016.05 120.719C1016.14 122.266 1016.23 123.859 1016.33 125.5C1016.42 127.141 1016.49 128.641 1016.54 130C1016.59 131.359 1016.61 132.344 1016.61 132.953H1016.89C1018.62 127.891 1020.29 124.188 1021.88 121.844C1023.43 119.594 1025.23 117.977 1027.3 116.992C1029.36 115.961 1031.94 115.445 1035.03 115.445C1037.33 115.445 1039.27 115.773 1040.87 116.43V131.266C1038.24 130.656 1035.62 130.352 1032.99 130.352C1027.93 130.352 1024.02 132.438 1021.25 136.609C1018.53 140.781 1017.17 146.875 1017.17 154.891ZM585.664 308.656C585.664 319.203 583.625 328.227 579.547 335.727C575.469 343.227 569.797 348.992 562.531 353.023C555.312 357.008 546.945 359 537.43 359H498.336V259.93H533.211C549.898 259.93 562.812 264.148 571.953 272.586C581.094 280.977 585.664 293 585.664 308.656ZM567.242 308.656C567.242 297.453 564.266 288.922 558.312 283.062C552.406 277.156 543.898 274.203 532.789 274.203H516.688V344.727H535.742C542.164 344.727 547.719 343.273 552.406 340.367C557.094 337.414 560.727 333.242 563.305 327.852C565.93 322.461 567.242 316.062 567.242 308.656ZM682.273 344.656V359H602.398V259.93H679.391V274.273H620.75V301.484H675.172V315.758H620.75V344.656H682.273ZM716.797 321.383V359H698.445V259.93H770.656V274.273H716.797V306.969H768.969V321.383H716.797ZM880.906 338.047V359H864.383V338.047H818.75V324.898L861.781 259.93H880.906V324.969H894.406V338.047H880.906ZM833.375 324.969H864.383V290.164C864.383 287.773 864.43 285.242 864.523 282.57C864.664 279.852 864.781 277.859 864.875 276.594C864.125 278.141 863.234 279.781 862.203 281.516C861.219 283.203 860.094 285.031 858.828 287L833.375 324.969ZM971.75 326.234C971.75 336.734 968.539 345.055 962.117 351.195C955.695 357.336 946.859 360.406 935.609 360.406C925.906 360.406 918.102 358.25 912.195 353.938C906.336 349.578 902.68 343.297 901.227 335.094L918.664 333.547C919.836 338 921.852 341.281 924.711 343.391C927.617 345.453 931.32 346.484 935.82 346.484C941.352 346.484 945.734 344.773 948.969 341.352C952.203 337.883 953.82 332.984 953.82 326.656C953.82 321.078 952.25 316.625 949.109 313.297C946.016 309.922 941.703 308.234 936.172 308.234C933.219 308.234 930.5 308.773 928.016 309.852C925.531 310.883 923.234 312.547 921.125 314.844H904.109L907.555 259.93H965.984V273.289H923.305L921.617 300.5C926.633 296.281 932.891 294.172 940.391 294.172C946.766 294.172 952.297 295.484 956.984 298.109C961.672 300.734 965.305 304.461 967.883 309.289C970.461 314.07 971.75 319.719 971.75 326.234ZM1051.06 326.586C1051.06 337.086 1048.13 345.359 1042.27 351.406C1036.46 357.406 1028.42 360.406 1018.16 360.406C1006.67 360.406 997.859 356.305 991.719 348.102C985.578 339.852 982.508 327.734 982.508 311.75C982.508 294.266 985.648 281.023 991.93 272.023C998.211 262.977 1007.16 258.453 1018.79 258.453C1026.9 258.453 1033.34 260.258 1038.12 263.867C1042.95 267.43 1046.35 272.938 1048.32 280.391L1031.87 282.852C1029.9 275.82 1025.45 272.305 1018.51 272.305C1012.55 272.305 1007.91 275.188 1004.59 280.953C1001.26 286.719 999.594 295.32 999.594 306.758C1001.75 303.008 1004.77 300.148 1008.66 298.18C1012.55 296.164 1016.98 295.156 1021.95 295.156C1030.91 295.156 1037.98 297.992 1043.19 303.664C1048.44 309.289 1051.06 316.93 1051.06 326.586ZM1033.55 327.148C1033.55 321.008 1032.1 316.297 1029.2 313.016C1026.29 309.734 1022.26 308.094 1017.1 308.094C1012.23 308.094 1008.31 309.594 1005.36 312.594C1002.41 315.594 1000.93 319.648 1000.93 324.758C1000.93 328.977 1001.63 332.75 1003.04 336.078C1004.45 339.406 1006.39 342.031 1008.88 343.953C1011.41 345.828 1014.31 346.766 1017.59 346.766C1022.61 346.766 1026.52 345.031 1029.34 341.562C1032.15 338.047 1033.55 333.242 1033.55 327.148Z" fill="white"/>
</svg>
