<svg width="1060" height="425" viewBox="0 0 1060 425" fill="none" xmlns="http://www.w3.org/2000/svg">
<path d="M220 7.84111L267.024 147.631L267.596 149.334H269.393H421.318L298.484 235.536L296.955 236.609L297.55 238.379L344.515 377.995L221.436 291.621L220 290.614L218.564 291.621L95.4849 377.995L142.45 238.379L143.045 236.609L141.516 235.536L18.6821 149.334H170.607H172.404L172.976 147.631L220 7.84111Z" fill="#0F0F0F" stroke="white" stroke-width="5"/>
<path d="M578.07 165.159C578.07 174.674 574.484 181.987 567.312 187.096C560.141 192.159 549.758 194.69 536.164 194.69C511.367 194.69 496.953 185.854 492.922 168.182L510.641 165.088C512.047 170.573 514.859 174.581 519.078 177.112C523.344 179.596 529.203 180.838 536.656 180.838C544.391 180.838 550.25 179.62 554.234 177.182C558.219 174.698 560.211 171.018 560.211 166.143C560.211 163.19 559.414 160.776 557.82 158.901C556.227 157.026 553.977 155.456 551.07 154.19C549.195 153.346 546.664 152.549 543.477 151.799C540.289 151.002 536.516 150.135 532.156 149.198C527.094 148.026 523.039 146.971 519.992 146.034C516.992 145.096 514.555 144.182 512.68 143.292C510.805 142.354 509.07 141.323 507.477 140.198C504.336 138.088 501.898 135.393 500.164 132.112C498.43 128.784 497.562 124.752 497.562 120.018C497.562 111.252 500.891 104.526 507.547 99.8384C514.203 95.104 523.836 92.7368 536.445 92.7368C548.352 92.7368 557.352 94.5884 563.445 98.2915C569.539 101.995 573.594 108.182 575.609 116.854L557.75 119.456C556.578 114.862 554.258 111.463 550.789 109.26C547.32 107.01 542.422 105.885 536.094 105.885C529.25 105.885 524.094 106.987 520.625 109.19C517.156 111.393 515.422 114.674 515.422 119.034C515.422 121.752 516.125 124.002 517.531 125.784C518.984 127.518 521.094 128.995 523.859 130.213C526.438 131.432 531.992 132.956 540.523 134.784C544.977 135.768 548.961 136.729 552.477 137.667C555.992 138.604 558.969 139.588 561.406 140.62C563.422 141.51 565.25 142.471 566.891 143.502C568.578 144.534 570.031 145.682 571.25 146.948C573.453 149.104 575.141 151.682 576.312 154.682C577.484 157.682 578.07 161.174 578.07 165.159ZM663.641 155.174C663.641 167.831 660.383 177.581 653.867 184.424C647.352 191.268 638.188 194.69 626.375 194.69C614.797 194.69 605.797 191.221 599.375 184.284C593 177.346 589.812 167.643 589.812 155.174C589.812 142.659 593 132.979 599.375 126.135C605.797 119.245 614.938 115.799 626.797 115.799C638.984 115.799 648.172 119.127 654.359 125.784C660.547 132.44 663.641 142.237 663.641 155.174ZM645.43 155.174C645.43 145.659 643.906 138.745 640.859 134.432C637.859 130.12 633.266 127.963 627.078 127.963C620.609 127.963 615.828 130.213 612.734 134.713C609.641 139.167 608.094 145.987 608.094 155.174C608.094 164.174 609.594 170.995 612.594 175.635C615.641 180.276 620.188 182.596 626.234 182.596C632.797 182.596 637.625 180.346 640.719 175.846C643.859 171.299 645.43 164.409 645.43 155.174ZM696.758 88.9399V193.284H679.32V88.9399H696.758ZM734.094 88.9399V102.651H716.727V88.9399H734.094ZM734.094 117.206V193.284H716.727V117.206H734.094ZM785 194.69C773.797 194.69 765.148 191.292 759.055 184.495C753.008 177.651 749.984 167.995 749.984 155.526C749.984 142.87 753.031 133.096 759.125 126.206C765.219 119.268 773.891 115.799 785.141 115.799C793.719 115.799 800.82 117.979 806.445 122.338C812.07 126.651 815.586 132.627 816.992 140.268L799.414 141.252C798.805 137.268 797.305 134.104 794.914 131.76C792.523 129.37 789.148 128.174 784.789 128.174C779.117 128.174 774.945 130.331 772.273 134.643C769.602 138.956 768.266 145.706 768.266 154.893C768.266 164.127 769.648 171.018 772.414 175.565C775.227 180.112 779.422 182.385 785 182.385C788.984 182.385 792.312 181.19 794.984 178.799C797.703 176.409 799.391 172.799 800.047 167.971L817.555 168.885C816.852 174.042 815.047 178.565 812.141 182.456C809.234 186.346 805.461 189.37 800.82 191.526C796.18 193.635 790.906 194.69 785 194.69ZM848.984 88.9399V102.651H831.617V88.9399H848.984ZM848.984 117.206V193.284H831.617V117.206H848.984ZM902.914 192.37C898.32 193.776 893.188 194.479 887.516 194.479C881.938 194.479 877.672 192.956 874.719 189.909C871.812 186.815 870.359 182.174 870.359 175.987V129.159H861.008V117.206H871.203L876.547 99.6274H887.586V117.206H901.93V129.159H887.586V171.557C887.586 175.213 888.242 177.885 889.555 179.573C890.914 181.213 893.07 182.034 896.023 182.034C897.523 182.034 899.82 181.706 902.914 181.049V192.37ZM983.984 155.174C983.984 167.831 980.727 177.581 974.211 184.424C967.695 191.268 958.531 194.69 946.719 194.69C935.141 194.69 926.141 191.221 919.719 184.284C913.344 177.346 910.156 167.643 910.156 155.174C910.156 142.659 913.344 132.979 919.719 126.135C926.141 119.245 935.281 115.799 947.141 115.799C959.328 115.799 968.516 119.127 974.703 125.784C980.891 132.44 983.984 142.237 983.984 155.174ZM965.773 155.174C965.773 145.659 964.25 138.745 961.203 134.432C958.203 130.12 953.609 127.963 947.422 127.963C940.953 127.963 936.172 130.213 933.078 134.713C929.984 139.167 928.438 145.987 928.438 155.174C928.438 164.174 929.938 170.995 932.938 175.635C935.984 180.276 940.531 182.596 946.578 182.596C953.141 182.596 957.969 180.346 961.062 175.846C964.203 171.299 965.773 164.409 965.773 155.174ZM1017.17 155.174V193.284H999.805V134.995C999.805 131.338 999.734 128.104 999.594 125.292C999.5 122.432 999.383 119.737 999.242 117.206H1015.84C1015.93 118.19 1016 119.456 1016.05 121.002C1016.14 122.549 1016.23 124.143 1016.33 125.784C1016.42 127.424 1016.49 128.924 1016.54 130.284C1016.59 131.643 1016.61 132.627 1016.61 133.237H1016.89C1018.62 128.174 1020.29 124.471 1021.88 122.127C1023.43 119.877 1025.23 118.26 1027.3 117.276C1029.36 116.245 1031.94 115.729 1035.03 115.729C1037.33 115.729 1039.27 116.057 1040.87 116.713V131.549C1038.24 130.94 1035.62 130.635 1032.99 130.635C1027.93 130.635 1024.02 132.721 1021.25 136.893C1018.53 141.065 1017.17 147.159 1017.17 155.174ZM585.664 308.94C585.664 319.487 583.625 328.51 579.547 336.01C575.469 343.51 569.797 349.276 562.531 353.307C555.312 357.292 546.945 359.284 537.43 359.284H498.336V260.213H533.211C549.898 260.213 562.812 264.432 571.953 272.87C581.094 281.26 585.664 293.284 585.664 308.94ZM567.242 308.94C567.242 297.737 564.266 289.206 558.312 283.346C552.406 277.44 543.898 274.487 532.789 274.487H516.688V345.01H535.742C542.164 345.01 547.719 343.557 552.406 340.651C557.094 337.698 560.727 333.526 563.305 328.135C565.93 322.745 567.242 316.346 567.242 308.94ZM682.273 344.94V359.284H602.398V260.213H679.391V274.557H620.75V301.768H675.172V316.042H620.75V344.94H682.273ZM716.797 321.667V359.284H698.445V260.213H770.656V274.557H716.797V307.252H768.969V321.667H716.797ZM880.906 338.331V359.284H864.383V338.331H818.75V325.182L861.781 260.213H880.906V325.252H894.406V338.331H880.906ZM833.375 325.252H864.383V290.448C864.383 288.057 864.43 285.526 864.523 282.854C864.664 280.135 864.781 278.143 864.875 276.877C864.125 278.424 863.234 280.065 862.203 281.799C861.219 283.487 860.094 285.315 858.828 287.284L833.375 325.252ZM971.75 326.518C971.75 337.018 968.539 345.338 962.117 351.479C955.695 357.62 946.859 360.69 935.609 360.69C925.906 360.69 918.102 358.534 912.195 354.221C906.336 349.862 902.68 343.581 901.227 335.377L918.664 333.831C919.836 338.284 921.852 341.565 924.711 343.674C927.617 345.737 931.32 346.768 935.82 346.768C941.352 346.768 945.734 345.057 948.969 341.635C952.203 338.167 953.82 333.268 953.82 326.94C953.82 321.362 952.25 316.909 949.109 313.581C946.016 310.206 941.703 308.518 936.172 308.518C933.219 308.518 930.5 309.057 928.016 310.135C925.531 311.167 923.234 312.831 921.125 315.127H904.109L907.555 260.213H965.984V273.573H923.305L921.617 300.784C926.633 296.565 932.891 294.456 940.391 294.456C946.766 294.456 952.297 295.768 956.984 298.393C961.672 301.018 965.305 304.745 967.883 309.573C970.461 314.354 971.75 320.002 971.75 326.518ZM1051.06 326.87C1051.06 337.37 1048.13 345.643 1042.27 351.69C1036.46 357.69 1028.42 360.69 1018.16 360.69C1006.67 360.69 997.859 356.588 991.719 348.385C985.578 340.135 982.508 328.018 982.508 312.034C982.508 294.549 985.648 281.307 991.93 272.307C998.211 263.26 1007.16 258.737 1018.79 258.737C1026.9 258.737 1033.34 260.542 1038.12 264.151C1042.95 267.713 1046.35 273.221 1048.32 280.674L1031.87 283.135C1029.9 276.104 1025.45 272.588 1018.51 272.588C1012.55 272.588 1007.91 275.471 1004.59 281.237C1001.26 287.002 999.594 295.604 999.594 307.042C1001.75 303.292 1004.77 300.432 1008.66 298.463C1012.55 296.448 1016.98 295.44 1021.95 295.44C1030.91 295.44 1037.98 298.276 1043.19 303.948C1048.44 309.573 1051.06 317.213 1051.06 326.87ZM1033.55 327.432C1033.55 321.292 1032.1 316.581 1029.2 313.299C1026.29 310.018 1022.26 308.377 1017.1 308.377C1012.23 308.377 1008.31 309.877 1005.36 312.877C1002.41 315.877 1000.93 319.932 1000.93 325.042C1000.93 329.26 1001.63 333.034 1003.04 336.362C1004.45 339.69 1006.39 342.315 1008.88 344.237C1011.41 346.112 1014.31 347.049 1017.59 347.049C1022.61 347.049 1026.52 345.315 1029.34 341.846C1032.15 338.331 1033.55 333.526 1033.55 327.432Z" fill="#0F0F0F"/>
<path d="M567.312 187.096L569.043 189.547L569.053 189.54L567.312 187.096ZM492.922 168.182L492.406 165.227L489.295 165.77L489.997 168.849L492.922 168.182ZM510.641 165.088L513.547 164.343L512.858 161.656L510.125 162.133L510.641 165.088ZM519.078 177.112L517.535 179.684L517.551 179.694L517.568 179.704L519.078 177.112ZM554.234 177.182L555.8 179.741L555.811 179.735L555.822 179.728L554.234 177.182ZM551.07 154.19L549.839 156.926L549.856 156.933L549.873 156.94L551.07 154.19ZM543.477 151.799L542.749 154.71L542.769 154.715L542.789 154.72L543.477 151.799ZM532.156 149.198L531.48 152.12L531.503 152.126L531.526 152.131L532.156 149.198ZM519.992 146.034L519.097 148.897L519.11 148.901L519.992 146.034ZM512.68 143.292L511.338 145.975L511.365 145.988L511.393 146.001L512.68 143.292ZM507.477 140.198L509.207 137.747L509.178 137.727L509.149 137.707L507.477 140.198ZM500.164 132.112L497.504 133.498L497.508 133.506L497.512 133.514L500.164 132.112ZM507.547 99.8384L509.274 102.291L509.286 102.283L507.547 99.8384ZM575.609 116.854L576.042 119.823L579.27 119.352L578.531 116.175L575.609 116.854ZM557.75 119.456L554.843 120.197L555.511 122.813L558.182 122.424L557.75 119.456ZM550.789 109.26L549.156 111.777L549.169 111.785L549.181 111.793L550.789 109.26ZM517.531 125.784L515.177 127.643L515.204 127.677L515.232 127.71L517.531 125.784ZM523.859 130.213L525.142 127.501L525.106 127.484L525.069 127.468L523.859 130.213ZM540.523 134.784L541.171 131.854L541.162 131.852L541.152 131.85L540.523 134.784ZM561.406 140.62L562.619 137.876L562.597 137.866L562.575 137.857L561.406 140.62ZM566.891 143.502L565.294 146.042L565.31 146.052L565.326 146.062L566.891 143.502ZM571.25 146.948L569.089 149.029L569.12 149.061L569.152 149.092L571.25 146.948ZM575.07 165.159C575.07 173.796 571.882 180.157 565.572 184.653L569.053 189.54C577.087 183.816 581.07 175.553 581.07 165.159H575.07ZM565.582 184.645C559.125 189.203 549.455 191.69 536.164 191.69V197.69C550.061 197.69 561.156 195.114 569.043 189.547L565.582 184.645ZM536.164 191.69C524.077 191.69 514.888 189.529 508.324 185.505C501.858 181.542 497.697 175.627 495.847 167.515L489.997 168.849C492.178 178.409 497.239 185.748 505.188 190.621C513.038 195.433 523.455 197.69 536.164 197.69V191.69ZM493.438 171.137L511.157 168.044L510.125 162.133L492.406 165.227L493.438 171.137ZM507.735 165.834C509.305 171.958 512.536 176.685 517.535 179.684L520.622 174.539C517.183 172.476 514.789 169.188 513.547 164.343L507.735 165.834ZM517.568 179.704C522.468 182.558 528.923 183.838 536.656 183.838V177.838C529.484 177.838 524.219 176.634 520.588 174.519L517.568 179.704ZM536.656 183.838C544.619 183.838 551.129 182.599 555.8 179.741L552.669 174.623C549.371 176.64 544.162 177.838 536.656 177.838V183.838ZM555.822 179.728C560.725 176.671 563.211 172.005 563.211 166.143H557.211C557.211 170.031 555.713 172.725 552.647 174.636L555.822 179.728ZM563.211 166.143C563.211 162.627 562.249 159.479 560.106 156.958L555.534 160.844C556.579 162.073 557.211 163.753 557.211 166.143H563.211ZM560.106 156.958C558.143 154.649 555.477 152.837 552.268 151.439L549.873 156.94C552.476 158.074 554.31 159.403 555.534 160.844L560.106 156.958ZM552.301 151.454C550.18 150.5 547.442 149.65 544.164 148.879L542.789 154.72C545.886 155.448 548.211 156.193 549.839 156.926L552.301 151.454ZM544.204 148.889C540.975 148.082 537.168 147.207 532.787 146.265L531.526 152.131C535.863 153.064 539.603 153.923 542.749 154.71L544.204 148.889ZM532.833 146.275C527.802 145.111 523.825 144.074 520.874 143.166L519.11 148.901C522.253 149.868 526.385 150.941 531.48 152.12L532.833 146.275ZM520.887 143.17C517.961 142.256 515.668 141.39 513.967 140.582L511.393 146.001C513.441 146.975 516.024 147.937 519.097 148.897L520.887 143.17ZM514.021 140.608C512.272 139.733 510.668 138.779 509.207 137.747L505.747 142.649C507.472 143.867 509.338 144.975 511.338 145.975L514.021 140.608ZM509.149 137.707C506.412 135.869 504.314 133.544 502.816 130.71L497.512 133.514C499.482 137.242 502.26 140.308 505.804 142.688L509.149 137.707ZM502.824 130.725C501.364 127.923 500.562 124.393 500.562 120.018H494.562C494.562 125.112 495.495 129.645 497.504 133.498L502.824 130.725ZM500.562 120.018C500.562 112.14 503.485 106.368 509.274 102.291L505.82 97.3856C498.296 102.684 494.562 110.364 494.562 120.018H500.562ZM509.286 102.283C515.226 98.058 524.143 95.7368 536.445 95.7368V89.7368C523.529 89.7368 513.18 92.15 505.808 97.3937L509.286 102.283ZM536.445 95.7368C548.13 95.7368 556.481 97.5697 561.887 100.855L565.003 95.7278C558.222 91.6071 548.574 89.7368 536.445 89.7368V95.7368ZM561.887 100.855C567.129 104.04 570.806 109.44 572.687 117.533L578.531 116.175C576.381 106.924 571.949 99.9489 565.003 95.7278L561.887 100.855ZM575.177 113.885L557.318 116.487L558.182 122.424L576.042 119.823L575.177 113.885ZM560.657 118.714C559.327 113.502 556.61 109.404 552.397 106.728L549.181 111.793C551.905 113.523 553.829 116.222 554.843 120.197L560.657 118.714ZM552.422 106.743C548.273 104.052 542.716 102.885 536.094 102.885V108.885C542.128 108.885 546.368 109.968 549.156 111.777L552.422 106.743ZM536.094 102.885C529.019 102.885 523.189 104.007 519.017 106.658L522.233 111.722C524.998 109.966 529.481 108.885 536.094 108.885V102.885ZM519.017 106.658C514.62 109.45 512.422 113.723 512.422 119.034H518.422C518.422 115.626 519.693 113.336 522.233 111.722L519.017 106.658ZM512.422 119.034C512.422 122.289 513.274 125.233 515.177 127.643L519.886 123.925C518.976 122.772 518.422 121.216 518.422 119.034H512.422ZM515.232 127.71C517.062 129.896 519.598 131.614 522.65 132.959L525.069 127.468C522.59 126.376 520.906 125.141 519.831 123.857L515.232 127.71ZM522.577 132.926C525.523 134.318 531.427 135.903 539.895 137.717L541.152 131.85C532.557 130.009 527.352 128.546 525.142 127.501L522.577 132.926ZM539.876 137.713C544.297 138.69 548.238 139.641 551.704 140.565L553.25 134.768C549.683 133.817 545.656 132.846 541.171 131.854L539.876 137.713ZM551.704 140.565C555.13 141.479 557.966 142.422 560.237 143.383L562.575 137.857C559.971 136.755 556.854 135.729 553.25 134.768L551.704 140.565ZM560.194 143.364C562.094 144.203 563.792 145.098 565.294 146.042L568.487 140.963C566.708 139.844 564.749 138.817 562.619 137.876L560.194 143.364ZM565.326 146.062C566.822 146.976 568.069 147.969 569.089 149.029L573.411 144.867C571.994 143.395 570.334 142.091 568.455 140.943L565.326 146.062ZM569.152 149.092C571.037 150.937 572.494 153.152 573.518 155.774L579.107 153.591C577.787 150.213 575.869 147.271 573.348 144.804L569.152 149.092ZM573.518 155.774C574.526 158.354 575.07 161.462 575.07 165.159H581.07C581.07 160.886 580.443 157.01 579.107 153.591L573.518 155.774ZM599.375 184.284L597.166 186.314L597.173 186.322L599.375 184.284ZM599.375 126.135L597.18 124.09L597.18 124.09L599.375 126.135ZM640.859 134.432L638.397 136.145L638.403 136.154L638.409 136.163L640.859 134.432ZM612.734 134.713L615.198 136.425L615.202 136.419L615.207 136.413L612.734 134.713ZM612.594 175.635L610.074 177.264L610.08 177.273L610.086 177.282L612.594 175.635ZM640.719 175.846L638.25 174.141L638.247 174.147L640.719 175.846ZM660.641 155.174C660.641 167.328 657.519 176.237 651.694 182.356L656.04 186.493C663.246 178.924 666.641 168.333 666.641 155.174H660.641ZM651.694 182.356C645.88 188.463 637.585 191.69 626.375 191.69V197.69C638.79 197.69 648.823 194.073 656.04 186.493L651.694 182.356ZM626.375 191.69C615.43 191.69 607.306 188.436 601.577 182.246L597.173 186.322C604.287 194.007 614.163 197.69 626.375 197.69V191.69ZM601.584 182.254C595.864 176.029 592.812 167.14 592.812 155.174H586.812C586.812 168.146 590.136 178.663 597.166 186.314L601.584 182.254ZM592.812 155.174C592.812 143.156 595.867 134.303 601.57 128.18L597.18 124.09C590.133 131.655 586.812 142.162 586.812 155.174H592.812ZM601.57 128.181C607.284 122.049 615.54 118.799 626.797 118.799V112.799C614.335 112.799 604.309 116.441 597.18 124.09L601.57 128.181ZM626.797 118.799C638.447 118.799 646.717 121.968 652.162 127.826L656.557 123.741C649.627 116.287 639.521 112.799 626.797 112.799V118.799ZM652.162 127.826C657.651 133.731 660.641 142.674 660.641 155.174H666.641C666.641 141.799 663.443 131.149 656.557 123.741L652.162 127.826ZM648.43 155.174C648.43 145.473 646.902 137.786 643.31 132.701L638.409 136.163C640.91 139.703 642.43 145.844 642.43 155.174H648.43ZM643.322 132.719C639.656 127.449 634.047 124.963 627.078 124.963V130.963C632.484 130.963 636.063 132.79 638.397 136.145L643.322 132.719ZM627.078 124.963C619.831 124.963 614.025 127.541 610.262 133.014L615.207 136.413C617.632 132.885 621.388 130.963 627.078 130.963V124.963ZM610.271 133.002C606.66 138.199 605.094 145.756 605.094 155.174H611.094C611.094 146.218 612.621 140.134 615.198 136.425L610.271 133.002ZM605.094 155.174C605.094 164.424 606.62 171.921 610.074 177.264L615.113 174.007C612.567 170.068 611.094 163.925 611.094 155.174H605.094ZM610.086 177.282C613.744 182.853 619.284 185.596 626.234 185.596V179.596C621.091 179.596 617.538 177.699 615.102 173.989L610.086 177.282ZM626.234 185.596C633.557 185.596 639.42 183.031 643.191 177.546L638.247 174.147C635.83 177.661 632.037 179.596 626.234 179.596V185.596ZM643.187 177.551C646.837 172.268 648.43 164.65 648.43 155.174H642.43C642.43 164.168 640.882 170.331 638.25 174.141L643.187 177.551ZM696.758 88.9399H699.758V85.9399H696.758V88.9399ZM696.758 193.284V196.284H699.758V193.284H696.758ZM679.32 193.284H676.32V196.284H679.32V193.284ZM679.32 88.9399V85.9399H676.32V88.9399H679.32ZM693.758 88.9399V193.284H699.758V88.9399H693.758ZM696.758 190.284H679.32V196.284H696.758V190.284ZM682.32 193.284V88.9399H676.32V193.284H682.32ZM679.32 91.9399H696.758V85.9399H679.32V91.9399ZM734.094 88.9399H737.094V85.9399H734.094V88.9399ZM734.094 102.651V105.651H737.094V102.651H734.094ZM716.727 102.651H713.727V105.651H716.727V102.651ZM716.727 88.9399V85.9399H713.727V88.9399H716.727ZM734.094 117.206H737.094V114.206H734.094V117.206ZM734.094 193.284V196.284H737.094V193.284H734.094ZM716.727 193.284H713.727V196.284H716.727V193.284ZM716.727 117.206V114.206H713.727V117.206H716.727ZM731.094 88.9399V102.651H737.094V88.9399H731.094ZM734.094 99.6509H716.727V105.651H734.094V99.6509ZM719.727 102.651V88.9399H713.727V102.651H719.727ZM716.727 91.9399H734.094V85.9399H716.727V91.9399ZM731.094 117.206V193.284H737.094V117.206H731.094ZM734.094 190.284H716.727V196.284H734.094V190.284ZM719.727 193.284V117.206H713.727V193.284H719.727ZM716.727 120.206H734.094V114.206H716.727V120.206ZM759.055 184.495L756.807 186.481L756.814 186.489L756.821 186.497L759.055 184.495ZM759.125 126.206L761.372 128.193L761.379 128.185L759.125 126.206ZM806.445 122.338L804.608 124.71L804.614 124.714L804.62 124.719L806.445 122.338ZM816.992 140.268L817.16 143.263L820.559 143.073L819.943 139.725L816.992 140.268ZM799.414 141.252L796.449 141.706L796.861 144.4L799.582 144.248L799.414 141.252ZM794.914 131.76L792.793 133.882L792.803 133.892L792.814 133.902L794.914 131.76ZM772.414 175.565L769.851 177.124L769.857 177.134L769.863 177.143L772.414 175.565ZM794.984 178.799L793.003 176.546L792.994 176.555L792.984 176.564L794.984 178.799ZM800.047 167.971L800.203 164.975L797.446 164.831L797.074 167.567L800.047 167.971ZM817.555 168.885L820.527 169.291L820.968 166.059L817.711 165.889L817.555 168.885ZM800.82 191.526L802.062 194.257L802.073 194.252L802.084 194.247L800.82 191.526ZM785 191.69C774.44 191.69 766.687 188.513 761.288 182.492L756.821 186.497C763.61 194.07 773.154 197.69 785 197.69V191.69ZM761.303 182.508C755.893 176.385 752.984 167.532 752.984 155.526H746.984C746.984 168.457 750.123 178.916 756.807 186.481L761.303 182.508ZM752.984 155.526C752.984 143.326 755.92 134.359 761.372 128.193L756.878 124.218C750.143 131.834 746.984 142.414 746.984 155.526H752.984ZM761.379 128.185C766.78 122.036 774.549 118.799 785.141 118.799V112.799C773.233 112.799 763.657 116.5 756.871 124.226L761.379 128.185ZM785.141 118.799C793.194 118.799 799.61 120.836 804.608 124.71L808.283 119.967C802.031 115.122 794.243 112.799 785.141 112.799V118.799ZM804.62 124.719C809.597 128.535 812.756 133.825 814.042 140.811L819.943 139.725C818.416 131.43 814.544 124.767 808.271 119.958L804.62 124.719ZM816.824 137.273L799.246 138.257L799.582 144.248L817.16 143.263L816.824 137.273ZM802.38 140.799C801.693 136.307 799.957 132.503 797.014 129.618L792.814 133.902C794.652 135.705 795.917 138.229 796.449 141.706L802.38 140.799ZM797.035 129.639C793.932 126.536 789.703 125.174 784.789 125.174V131.174C788.593 131.174 791.115 132.204 792.793 133.882L797.035 129.639ZM784.789 125.174C778.225 125.174 773.015 127.75 769.723 133.063L774.824 136.223C776.876 132.911 780.01 131.174 784.789 131.174V125.174ZM769.723 133.063C766.604 138.098 765.266 145.537 765.266 154.893H771.266C771.266 145.874 772.599 139.813 774.824 136.223L769.723 133.063ZM765.266 154.893C765.266 164.323 766.659 171.876 769.851 177.124L774.977 174.006C772.638 170.16 771.266 163.931 771.266 154.893H765.266ZM769.863 177.143C773.25 182.619 778.437 185.385 785 185.385V179.385C780.407 179.385 777.203 177.604 774.965 173.987L769.863 177.143ZM785 185.385C789.634 185.385 793.7 183.974 796.985 181.035L792.984 176.564C790.925 178.406 788.335 179.385 785 179.385V185.385ZM796.965 181.052C800.39 178.041 802.3 173.669 803.02 168.375L797.074 167.567C796.481 171.929 795.017 174.776 793.003 176.546L796.965 181.052ZM799.89 170.967L817.398 171.881L817.711 165.889L800.203 164.975L799.89 170.967ZM814.582 168.48C813.943 173.169 812.317 177.206 809.737 180.66L814.544 184.251C817.777 179.924 819.76 174.914 820.527 169.291L814.582 168.48ZM809.737 180.66C807.144 184.131 803.771 186.847 799.556 188.805L802.084 194.247C807.151 191.893 811.324 188.561 814.544 184.251L809.737 180.66ZM799.579 188.795C795.385 190.701 790.546 191.69 785 191.69V197.69C791.267 197.69 796.974 196.57 802.062 194.257L799.579 188.795ZM848.984 88.9399H851.984V85.9399H848.984V88.9399ZM848.984 102.651V105.651H851.984V102.651H848.984ZM831.617 102.651H828.617V105.651H831.617V102.651ZM831.617 88.9399V85.9399H828.617V88.9399H831.617ZM848.984 117.206H851.984V114.206H848.984V117.206ZM848.984 193.284V196.284H851.984V193.284H848.984ZM831.617 193.284H828.617V196.284H831.617V193.284ZM831.617 117.206V114.206H828.617V117.206H831.617ZM845.984 88.9399V102.651H851.984V88.9399H845.984ZM848.984 99.6509H831.617V105.651H848.984V99.6509ZM834.617 102.651V88.9399H828.617V102.651H834.617ZM831.617 91.9399H848.984V85.9399H831.617V91.9399ZM845.984 117.206V193.284H851.984V117.206H845.984ZM848.984 190.284H831.617V196.284H848.984V190.284ZM834.617 193.284V117.206H828.617V193.284H834.617ZM831.617 120.206H848.984V114.206H831.617V120.206ZM902.914 192.37L903.792 195.238L905.914 194.589V192.37H902.914ZM874.719 189.909L872.532 191.963L872.548 191.98L872.565 191.997L874.719 189.909ZM870.359 129.159H873.359V126.159H870.359V129.159ZM861.008 129.159H858.008V132.159H861.008V129.159ZM861.008 117.206V114.206H858.008V117.206H861.008ZM871.203 117.206V120.206H873.427L874.073 118.078L871.203 117.206ZM876.547 99.6274V96.6274H874.323L873.677 98.7549L876.547 99.6274ZM887.586 99.6274H890.586V96.6274H887.586V99.6274ZM887.586 117.206H884.586V120.206H887.586V117.206ZM901.93 117.206H904.93V114.206H901.93V117.206ZM901.93 129.159V132.159H904.93V129.159H901.93ZM887.586 129.159V126.159H884.586V129.159H887.586ZM889.555 179.573L887.187 181.415L887.215 181.451L887.245 181.487L889.555 179.573ZM902.914 181.049H905.914V177.346L902.292 178.115L902.914 181.049ZM902.036 189.501C897.773 190.806 892.942 191.479 887.516 191.479V197.479C893.433 197.479 898.868 196.746 903.792 195.238L902.036 189.501ZM887.516 191.479C882.483 191.479 879.099 190.118 876.873 187.821L872.565 191.997C876.245 195.794 881.392 197.479 887.516 197.479V191.479ZM876.905 187.855C874.718 185.526 873.359 181.757 873.359 175.987H867.359C867.359 182.592 868.907 188.104 872.532 191.963L876.905 187.855ZM873.359 175.987V129.159H867.359V175.987H873.359ZM870.359 126.159H861.008V132.159H870.359V126.159ZM864.008 129.159V117.206H858.008V129.159H864.008ZM861.008 120.206H871.203V114.206H861.008V120.206ZM874.073 118.078L879.417 100.5L873.677 98.7549L868.333 116.333L874.073 118.078ZM876.547 102.627H887.586V96.6274H876.547V102.627ZM884.586 99.6274V117.206H890.586V99.6274H884.586ZM887.586 120.206H901.93V114.206H887.586V120.206ZM898.93 117.206V129.159H904.93V117.206H898.93ZM901.93 126.159H887.586V132.159H901.93V126.159ZM884.586 129.159V171.557H890.586V129.159H884.586ZM884.586 171.557C884.586 175.452 885.262 178.941 887.187 181.415L891.923 177.731C891.222 176.83 890.586 174.974 890.586 171.557H884.586ZM887.245 181.487C889.371 184.053 892.539 185.034 896.023 185.034V179.034C893.601 179.034 892.458 178.374 891.865 177.659L887.245 181.487ZM896.023 185.034C897.856 185.034 900.411 184.647 903.537 183.984L902.292 178.115C899.229 178.764 897.191 179.034 896.023 179.034V185.034ZM899.914 181.049V192.37H905.914V181.049H899.914ZM919.719 184.284L917.51 186.314L917.517 186.322L919.719 184.284ZM919.719 126.135L917.524 124.09L917.524 124.09L919.719 126.135ZM961.203 134.432L958.74 136.145L958.747 136.154L958.753 136.163L961.203 134.432ZM933.078 134.713L935.542 136.425L935.546 136.419L935.55 136.413L933.078 134.713ZM932.938 175.635L930.418 177.264L930.424 177.273L930.43 177.282L932.938 175.635ZM961.062 175.846L958.594 174.141L958.59 174.147L961.062 175.846ZM980.984 155.174C980.984 167.328 977.863 176.237 972.038 182.356L976.384 186.493C983.59 178.924 986.984 168.333 986.984 155.174H980.984ZM972.038 182.356C966.224 188.463 957.929 191.69 946.719 191.69V197.69C959.134 197.69 969.167 194.073 976.384 186.493L972.038 182.356ZM946.719 191.69C935.774 191.69 927.65 188.436 921.92 182.246L917.517 186.322C924.631 194.007 934.507 197.69 946.719 197.69V191.69ZM921.928 182.254C916.208 176.029 913.156 167.14 913.156 155.174H907.156C907.156 168.146 910.48 178.663 917.51 186.314L921.928 182.254ZM913.156 155.174C913.156 143.156 916.211 134.303 921.914 128.18L917.524 124.09C910.477 131.655 907.156 142.162 907.156 155.174H913.156ZM921.913 128.181C927.628 122.049 935.884 118.799 947.141 118.799V112.799C934.679 112.799 924.653 116.441 917.524 124.09L921.913 128.181ZM947.141 118.799C958.791 118.799 967.06 121.968 972.506 127.826L976.9 123.741C969.971 116.287 959.865 112.799 947.141 112.799V118.799ZM972.506 127.826C977.994 133.731 980.984 142.674 980.984 155.174H986.984C986.984 141.799 983.787 131.149 976.9 123.741L972.506 127.826ZM968.773 155.174C968.773 145.473 967.246 137.786 963.653 132.701L958.753 136.163C961.254 139.703 962.773 145.844 962.773 155.174H968.773ZM963.666 132.719C960 127.449 954.391 124.963 947.422 124.963V130.963C952.828 130.963 956.407 132.79 958.74 136.145L963.666 132.719ZM947.422 124.963C940.174 124.963 934.368 127.541 930.606 133.014L935.55 136.413C937.975 132.885 941.732 130.963 947.422 130.963V124.963ZM930.614 133.002C927.004 138.199 925.438 145.756 925.438 155.174H931.438C931.438 146.218 932.965 140.134 935.542 136.425L930.614 133.002ZM925.438 155.174C925.438 164.424 926.964 171.921 930.418 177.264L935.457 174.007C932.911 170.068 931.438 163.925 931.438 155.174H925.438ZM930.43 177.282C934.087 182.853 939.628 185.596 946.578 185.596V179.596C941.435 179.596 937.881 177.699 935.445 173.989L930.43 177.282ZM946.578 185.596C953.901 185.596 959.764 183.031 963.535 177.546L958.59 174.147C956.174 177.661 952.38 179.596 946.578 179.596V185.596ZM963.531 177.551C967.18 172.268 968.773 164.65 968.773 155.174H962.773C962.773 164.168 961.226 170.331 958.594 174.141L963.531 177.551ZM1017.17 193.284V196.284H1020.17V193.284H1017.17ZM999.805 193.284H996.805V196.284H999.805V193.284ZM999.594 125.292L996.595 125.39L996.596 125.416L996.597 125.441L999.594 125.292ZM999.242 117.206V114.206H996.071L996.247 117.372L999.242 117.206ZM1015.84 117.206L1018.82 116.921L1018.56 114.206H1015.84V117.206ZM1016.05 121.002L1013.05 121.093L1013.05 121.139L1013.05 121.184L1016.05 121.002ZM1016.61 133.237H1013.61V136.237H1016.61V133.237ZM1016.89 133.237V136.237H1019.03L1019.73 134.209L1016.89 133.237ZM1021.88 122.127L1019.41 120.428L1019.41 120.434L1019.4 120.441L1021.88 122.127ZM1027.3 117.276L1028.59 119.983L1028.61 119.971L1028.64 119.959L1027.3 117.276ZM1040.87 116.713H1043.87V114.704L1042.01 113.939L1040.87 116.713ZM1040.87 131.549L1040.19 134.472L1043.87 135.326V131.549H1040.87ZM1021.25 136.893L1018.75 135.235L1018.74 135.245L1018.74 135.255L1021.25 136.893ZM1014.17 155.174V193.284H1020.17V155.174H1014.17ZM1017.17 190.284H999.805V196.284H1017.17V190.284ZM1002.8 193.284V134.995H996.805V193.284H1002.8ZM1002.8 134.995C1002.8 131.302 1002.73 128.016 1002.59 125.142L996.597 125.441C996.735 128.192 996.805 131.375 996.805 134.995H1002.8ZM1002.59 125.193C1002.5 122.314 1002.38 119.596 1002.24 117.039L996.247 117.372C996.386 119.878 996.502 122.55 996.595 125.39L1002.59 125.193ZM999.242 120.206H1015.84V114.206H999.242V120.206ZM1012.85 117.49C1012.93 118.385 1013 119.579 1013.05 121.093L1019.05 120.912C1019 119.332 1018.92 117.995 1018.82 116.921L1012.85 117.49ZM1013.05 121.184C1013.15 122.727 1013.24 124.317 1013.33 125.955L1019.32 125.613C1019.23 123.969 1019.14 122.371 1019.04 120.821L1013.05 121.184ZM1013.33 125.955C1013.43 127.577 1013.49 129.054 1013.54 130.387L1019.54 130.18C1019.49 128.794 1019.42 127.271 1019.32 125.613L1013.33 125.955ZM1013.54 130.387C1013.59 131.743 1013.61 132.683 1013.61 133.237H1019.61C1019.61 132.572 1019.58 131.543 1019.54 130.18L1013.54 130.387ZM1016.61 136.237H1016.89V130.237H1016.61V136.237ZM1019.73 134.209C1021.44 129.218 1023 125.82 1024.36 123.814L1019.4 120.441C1017.58 123.122 1015.81 127.131 1014.05 132.265L1019.73 134.209ZM1024.35 123.827C1025.66 121.926 1027.09 120.701 1028.59 119.983L1026 114.568C1023.38 115.82 1021.2 117.829 1019.41 120.428L1024.35 123.827ZM1028.64 119.959C1030.17 119.195 1032.25 118.729 1035.03 118.729V112.729C1031.62 112.729 1028.55 113.294 1025.96 114.593L1028.64 119.959ZM1035.03 118.729C1037.06 118.729 1038.59 119.021 1039.72 119.487L1042.01 113.939C1039.95 113.093 1037.6 112.729 1035.03 112.729V118.729ZM1037.87 116.713V131.549H1043.87V116.713H1037.87ZM1041.55 128.627C1038.7 127.967 1035.85 127.635 1032.99 127.635V133.635C1035.38 133.635 1037.78 133.912 1040.19 134.472L1041.55 128.627ZM1032.99 127.635C1026.94 127.635 1022.08 130.214 1018.75 135.235L1023.75 138.551C1025.95 135.229 1028.92 133.635 1032.99 133.635V127.635ZM1018.74 135.255C1015.56 140.128 1014.17 146.9 1014.17 155.174H1020.17C1020.17 147.418 1021.5 142.002 1023.76 138.531L1018.74 135.255ZM562.531 353.307L563.981 355.934L563.987 355.93L562.531 353.307ZM498.336 359.284H495.336V362.284H498.336V359.284ZM498.336 260.213V257.213H495.336V260.213H498.336ZM571.953 272.87L569.918 275.074L569.924 275.08L571.953 272.87ZM558.312 283.346L556.191 285.468L556.2 285.476L556.208 285.484L558.312 283.346ZM516.688 274.487V271.487H513.688V274.487H516.688ZM516.688 345.01H513.688V348.01H516.688V345.01ZM552.406 340.651L553.987 343.201L553.996 343.195L554.005 343.189L552.406 340.651ZM563.305 328.135L560.607 326.822L560.603 326.831L560.598 326.841L563.305 328.135ZM582.664 308.94C582.664 319.103 580.7 327.609 576.911 334.577L582.182 337.443C586.55 329.412 588.664 319.871 588.664 308.94H582.664ZM576.911 334.577C573.098 341.591 567.829 346.937 561.076 350.684L563.987 355.93C571.765 351.615 577.84 345.43 582.182 337.443L576.911 334.577ZM561.082 350.681C554.371 354.385 546.517 356.284 537.43 356.284V362.284C547.374 362.284 556.254 360.198 563.981 355.934L561.082 350.681ZM537.43 356.284H498.336V362.284H537.43V356.284ZM501.336 359.284V260.213H495.336V359.284H501.336ZM498.336 263.213H533.211V257.213H498.336V263.213ZM533.211 263.213C549.407 263.213 561.498 267.302 569.918 275.074L573.988 270.665C564.127 261.562 550.39 257.213 533.211 257.213V263.213ZM569.924 275.08C578.292 282.761 582.664 293.889 582.664 308.94H588.664C588.664 292.678 583.895 279.76 573.982 270.66L569.924 275.08ZM570.242 308.94C570.242 297.216 567.118 287.803 560.417 281.208L556.208 285.484C561.414 290.608 564.242 298.257 564.242 308.94H570.242ZM560.434 281.225C553.798 274.589 544.423 271.487 532.789 271.487V277.487C543.374 277.487 551.014 280.29 556.191 285.468L560.434 281.225ZM532.789 271.487H516.688V277.487H532.789V271.487ZM513.688 274.487V345.01H519.688V274.487H513.688ZM516.688 348.01H535.742V342.01H516.688V348.01ZM535.742 348.01C542.629 348.01 548.751 346.447 553.987 343.201L550.825 338.101C546.686 340.667 541.699 342.01 535.742 342.01V348.01ZM554.005 343.189C559.21 339.91 563.209 335.289 566.011 329.43L560.598 326.841C558.244 331.762 554.978 335.485 550.807 338.113L554.005 343.189ZM566.002 329.449C568.867 323.564 570.242 316.696 570.242 308.94H564.242C564.242 315.996 562.992 321.925 560.607 326.822L566.002 329.449ZM682.273 344.94H685.273V341.94H682.273V344.94ZM682.273 359.284V362.284H685.273V359.284H682.273ZM602.398 359.284H599.398V362.284H602.398V359.284ZM602.398 260.213V257.213H599.398V260.213H602.398ZM679.391 260.213H682.391V257.213H679.391V260.213ZM679.391 274.557V277.557H682.391V274.557H679.391ZM620.75 274.557V271.557H617.75V274.557H620.75ZM620.75 301.768H617.75V304.768H620.75V301.768ZM675.172 301.768H678.172V298.768H675.172V301.768ZM675.172 316.042V319.042H678.172V316.042H675.172ZM620.75 316.042V313.042H617.75V316.042H620.75ZM620.75 344.94H617.75V347.94H620.75V344.94ZM679.273 344.94V359.284H685.273V344.94H679.273ZM682.273 356.284H602.398V362.284H682.273V356.284ZM605.398 359.284V260.213H599.398V359.284H605.398ZM602.398 263.213H679.391V257.213H602.398V263.213ZM676.391 260.213V274.557H682.391V260.213H676.391ZM679.391 271.557H620.75V277.557H679.391V271.557ZM617.75 274.557V301.768H623.75V274.557H617.75ZM620.75 304.768H675.172V298.768H620.75V304.768ZM672.172 301.768V316.042H678.172V301.768H672.172ZM675.172 313.042H620.75V319.042H675.172V313.042ZM617.75 316.042V344.94H623.75V316.042H617.75ZM620.75 347.94H682.273V341.94H620.75V347.94ZM716.797 321.667V318.667H713.797V321.667H716.797ZM716.797 359.284V362.284H719.797V359.284H716.797ZM698.445 359.284H695.445V362.284H698.445V359.284ZM698.445 260.213V257.213H695.445V260.213H698.445ZM770.656 260.213H773.656V257.213H770.656V260.213ZM770.656 274.557V277.557H773.656V274.557H770.656ZM716.797 274.557V271.557H713.797V274.557H716.797ZM716.797 307.252H713.797V310.252H716.797V307.252ZM768.969 307.252H771.969V304.252H768.969V307.252ZM768.969 321.667V324.667H771.969V321.667H768.969ZM713.797 321.667V359.284H719.797V321.667H713.797ZM716.797 356.284H698.445V362.284H716.797V356.284ZM701.445 359.284V260.213H695.445V359.284H701.445ZM698.445 263.213H770.656V257.213H698.445V263.213ZM767.656 260.213V274.557H773.656V260.213H767.656ZM770.656 271.557H716.797V277.557H770.656V271.557ZM713.797 274.557V307.252H719.797V274.557H713.797ZM716.797 310.252H768.969V304.252H716.797V310.252ZM765.969 307.252V321.667H771.969V307.252H765.969ZM768.969 318.667H716.797V324.667H768.969V318.667ZM880.906 338.331V335.331H877.906V338.331H880.906ZM880.906 359.284V362.284H883.906V359.284H880.906ZM864.383 359.284H861.383V362.284H864.383V359.284ZM864.383 338.331H867.383V335.331H864.383V338.331ZM818.75 338.331H815.75V341.331H818.75V338.331ZM818.75 325.182L816.249 323.526L815.75 324.279V325.182H818.75ZM861.781 260.213V257.213H860.17L859.28 258.557L861.781 260.213ZM880.906 260.213H883.906V257.213H880.906V260.213ZM880.906 325.252H877.906V328.252H880.906V325.252ZM894.406 325.252H897.406V322.252H894.406V325.252ZM894.406 338.331V341.331H897.406V338.331H894.406ZM833.375 325.252L830.883 323.582L827.752 328.252H833.375V325.252ZM864.383 325.252V328.252H867.383V325.252H864.383ZM864.523 282.854L861.527 282.699L861.526 282.724L861.525 282.749L864.523 282.854ZM864.875 276.877L867.867 277.099L862.176 275.569L864.875 276.877ZM862.203 281.799L859.625 280.266L859.618 280.277L859.612 280.288L862.203 281.799ZM858.828 287.284L861.32 288.954L861.336 288.93L861.352 288.906L858.828 287.284ZM877.906 338.331V359.284H883.906V338.331H877.906ZM880.906 356.284H864.383V362.284H880.906V356.284ZM867.383 359.284V338.331H861.383V359.284H867.383ZM864.383 335.331H818.75V341.331H864.383V335.331ZM821.75 338.331V325.182H815.75V338.331H821.75ZM821.251 326.839L864.282 261.87L859.28 258.557L816.249 323.526L821.251 326.839ZM861.781 263.213H880.906V257.213H861.781V263.213ZM877.906 260.213V325.252H883.906V260.213H877.906ZM880.906 328.252H894.406V322.252H880.906V328.252ZM891.406 325.252V338.331H897.406V325.252H891.406ZM894.406 335.331H880.906V341.331H894.406V335.331ZM833.375 328.252H864.383V322.252H833.375V328.252ZM867.383 325.252V290.448H861.383V325.252H867.383ZM867.383 290.448C867.383 288.096 867.429 285.6 867.522 282.959L861.525 282.749C861.43 285.452 861.383 288.018 861.383 290.448H867.383ZM867.519 283.009C867.66 280.293 867.776 278.329 867.867 277.099L861.883 276.656C861.787 277.957 861.668 279.977 861.527 282.699L867.519 283.009ZM862.176 275.569C861.468 277.027 860.62 278.593 859.625 280.266L864.782 283.333C865.849 281.537 866.782 279.821 867.574 278.186L862.176 275.569ZM859.612 280.288C858.653 281.931 857.551 283.722 856.305 285.661L861.352 288.906C862.636 286.908 863.785 285.042 864.794 283.311L859.612 280.288ZM856.336 285.613L830.883 323.582L835.867 326.923L861.32 288.954L856.336 285.613ZM912.195 354.221L910.405 356.628L910.415 356.636L910.426 356.644L912.195 354.221ZM901.227 335.377L900.961 332.389L897.702 332.678L898.273 335.901L901.227 335.377ZM918.664 333.831L921.565 333.067L920.921 330.619L918.399 330.842L918.664 333.831ZM924.711 343.674L922.93 346.088L922.952 346.105L922.975 346.121L924.711 343.674ZM948.969 341.635L951.149 343.696L951.156 343.689L951.163 343.681L948.969 341.635ZM949.109 313.581L946.898 315.608L946.913 315.624L946.927 315.64L949.109 313.581ZM928.016 310.135L929.166 312.906L929.188 312.897L929.21 312.887L928.016 310.135ZM921.125 315.127V318.127H922.443L923.335 317.157L921.125 315.127ZM904.109 315.127L901.115 314.94L900.915 318.127H904.109V315.127ZM907.555 260.213V257.213H904.737L904.561 260.026L907.555 260.213ZM965.984 260.213H968.984V257.213H965.984V260.213ZM965.984 273.573V276.573H968.984V273.573H965.984ZM923.305 273.573V270.573H920.485L920.31 273.387L923.305 273.573ZM921.617 300.784L918.623 300.598L918.19 307.587L923.548 303.08L921.617 300.784ZM967.883 309.573L965.236 310.986L965.242 310.997L967.883 309.573ZM968.75 326.518C968.75 336.36 965.767 343.839 960.044 349.311L964.19 353.647C971.311 346.838 974.75 337.676 974.75 326.518H968.75ZM960.044 349.311C954.318 354.786 946.302 357.69 935.609 357.69V363.69C947.417 363.69 957.072 360.454 964.19 353.647L960.044 349.311ZM935.609 357.69C926.336 357.69 919.212 355.63 913.964 351.798L910.426 356.644C916.991 361.437 925.476 363.69 935.609 363.69V357.69ZM913.986 351.814C908.828 347.976 905.52 342.418 904.181 334.854L898.273 335.901C899.839 344.743 903.844 351.747 910.405 356.628L913.986 351.814ZM901.492 338.366L918.929 336.819L918.399 330.842L900.961 332.389L901.492 338.366ZM915.763 334.594C917.057 339.511 919.375 343.466 922.93 346.088L926.492 341.26C924.328 339.664 922.615 337.056 921.565 333.067L915.763 334.594ZM922.975 346.121C926.508 348.628 930.862 349.768 935.82 349.768V343.768C931.778 343.768 928.727 342.846 926.447 341.228L922.975 346.121ZM935.82 349.768C942.02 349.768 947.249 347.823 951.149 343.696L946.789 339.575C944.22 342.292 940.683 343.768 935.82 343.768V349.768ZM951.163 343.681C955.068 339.493 956.82 333.768 956.82 326.94H950.82C950.82 332.768 949.338 336.84 946.775 339.589L951.163 343.681ZM956.82 326.94C956.82 320.773 955.067 315.523 951.291 311.522L946.927 315.64C949.433 318.294 950.82 321.95 950.82 326.94H956.82ZM951.321 311.553C947.542 307.431 942.354 305.518 936.172 305.518V311.518C941.052 311.518 944.489 312.98 946.898 315.608L951.321 311.553ZM936.172 305.518C932.845 305.518 929.716 306.127 926.821 307.383L929.21 312.887C931.284 311.987 933.592 311.518 936.172 311.518V305.518ZM926.865 307.364C923.919 308.588 921.273 310.531 918.915 313.098L923.335 317.157C925.196 315.13 927.144 313.745 929.166 312.906L926.865 307.364ZM921.125 312.127H904.109V318.127H921.125V312.127ZM907.103 315.315L910.549 260.401L904.561 260.026L901.115 314.94L907.103 315.315ZM907.555 263.213H965.984V257.213H907.555V263.213ZM962.984 260.213V273.573H968.984V260.213H962.984ZM965.984 270.573H923.305V276.573H965.984V270.573ZM920.31 273.387L918.623 300.598L924.611 300.969L926.299 273.758L920.31 273.387ZM923.548 303.08C927.946 299.381 933.489 297.456 940.391 297.456V291.456C932.292 291.456 925.32 293.749 919.686 298.488L923.548 303.08ZM940.391 297.456C946.348 297.456 951.356 298.679 955.519 301.011L958.45 295.776C953.238 292.857 947.183 291.456 940.391 291.456V297.456ZM955.519 301.011C959.696 303.35 962.923 306.654 965.236 310.986L970.529 308.16C967.686 302.835 963.648 298.686 958.45 295.776L955.519 301.011ZM965.242 310.997C967.542 315.261 968.75 320.401 968.75 326.518H974.75C974.75 319.604 973.38 313.447 970.523 308.149L965.242 310.997ZM1042.27 351.69L1040.12 349.602L1040.12 349.603L1042.27 351.69ZM991.719 348.385L989.312 350.176L989.317 350.183L991.719 348.385ZM991.93 272.307L994.39 274.024L994.394 274.018L991.93 272.307ZM1038.12 264.151L1036.32 266.545L1036.33 266.555L1036.34 266.565L1038.12 264.151ZM1048.32 280.674L1048.76 283.641L1052.08 283.146L1051.22 279.908L1048.32 280.674ZM1031.87 283.135L1028.98 283.944L1029.69 286.494L1032.31 286.102L1031.87 283.135ZM999.594 307.042H996.594V318.277L1002.19 308.537L999.594 307.042ZM1008.66 298.463L1010.02 301.14L1010.03 301.134L1010.04 301.127L1008.66 298.463ZM1043.19 303.948L1040.98 305.976L1040.99 305.985L1040.99 305.995L1043.19 303.948ZM1008.88 344.237L1007.04 346.61L1007.06 346.629L1007.09 346.647L1008.88 344.237ZM1029.34 341.846L1031.67 343.736L1031.67 343.728L1031.68 343.72L1029.34 341.846ZM1048.06 326.87C1048.06 336.793 1045.31 344.245 1040.12 349.602L1044.43 353.778C1050.96 347.041 1054.06 337.946 1054.06 326.87H1048.06ZM1040.12 349.603C1035 354.891 1027.81 357.69 1018.16 357.69V363.69C1029.04 363.69 1037.93 360.489 1044.43 353.777L1040.12 349.603ZM1018.16 357.69C1007.49 357.69 999.62 353.935 994.12 346.587L989.317 350.183C996.098 359.242 1005.86 363.69 1018.16 363.69V357.69ZM994.125 346.594C988.531 339.078 985.508 327.708 985.508 312.034H979.508C979.508 328.329 982.625 341.193 989.312 350.176L994.125 346.594ZM985.508 312.034C985.508 294.828 988.612 282.302 994.39 274.024L989.47 270.59C982.684 280.312 979.508 294.27 979.508 312.034H985.508ZM994.394 274.018C1000.08 265.83 1008.08 261.737 1018.79 261.737V255.737C1006.25 255.737 996.343 260.69 989.465 270.596L994.394 274.018ZM1018.79 261.737C1026.47 261.737 1032.21 263.447 1036.32 266.545L1039.93 261.757C1034.47 257.636 1027.32 255.737 1018.79 255.737V261.737ZM1036.34 266.565C1040.48 269.618 1043.58 274.457 1045.42 281.44L1051.22 279.908C1049.13 271.985 1045.42 265.809 1039.91 261.737L1036.34 266.565ZM1047.88 277.707L1031.42 280.168L1032.31 286.102L1048.76 283.641L1047.88 277.707ZM1034.76 282.326C1033.65 278.375 1031.76 275.121 1028.91 272.87C1026.04 270.608 1022.5 269.588 1018.51 269.588V275.588C1021.46 275.588 1023.6 276.327 1025.19 277.58C1026.79 278.845 1028.12 280.864 1028.98 283.944L1034.76 282.326ZM1018.51 269.588C1011.34 269.588 1005.78 273.176 1001.99 279.737L1007.18 282.737C1010.05 277.767 1013.77 275.588 1018.51 275.588V269.588ZM1001.99 279.737C998.27 286.178 996.594 295.408 996.594 307.042H1002.59C1002.59 295.8 1004.25 287.826 1007.18 282.737L1001.99 279.737ZM1002.19 308.537C1004.06 305.298 1006.65 302.847 1010.02 301.14L1007.31 295.787C1002.9 298.017 999.443 301.285 996.993 305.546L1002.19 308.537ZM1010.04 301.127C1013.45 299.36 1017.4 298.44 1021.95 298.44V292.44C1016.57 292.44 1011.66 293.535 1007.28 295.8L1010.04 301.127ZM1021.95 298.44C1030.22 298.44 1036.44 301.026 1040.98 305.976L1045.4 301.92C1039.53 295.526 1031.6 292.44 1021.95 292.44V298.44ZM1040.99 305.995C1045.6 310.932 1048.06 317.771 1048.06 326.87H1054.06C1054.06 316.656 1051.27 308.213 1045.38 301.901L1040.99 305.995ZM1036.55 327.432C1036.55 320.851 1035 315.326 1031.44 311.31L1026.95 315.288C1029.21 317.836 1030.55 321.732 1030.55 327.432H1036.55ZM1031.44 311.31C1027.86 307.271 1022.95 305.377 1017.1 305.377V311.377C1021.57 311.377 1024.71 312.765 1026.95 315.288L1031.44 311.31ZM1017.1 305.377C1011.56 305.377 1006.83 307.109 1003.22 310.773L1007.5 314.982C1009.8 312.646 1012.89 311.377 1017.1 311.377V305.377ZM1003.22 310.773C999.602 314.45 997.93 319.324 997.93 325.042H1003.93C1003.93 320.541 1005.21 317.305 1007.5 314.982L1003.22 310.773ZM997.93 325.042C997.93 329.595 998.689 333.775 1000.28 337.529L1005.8 335.194C1004.58 332.292 1003.93 328.926 1003.93 325.042H997.93ZM1000.28 337.529C1001.85 341.26 1004.09 344.328 1007.04 346.61L1010.71 341.864C1008.69 340.302 1007.04 338.12 1005.8 335.194L1000.28 337.529ZM1007.09 346.647C1010.16 348.922 1013.7 350.049 1017.59 350.049V344.049C1014.93 344.049 1012.65 343.302 1010.66 341.826L1007.09 346.647ZM1017.59 350.049C1023.39 350.049 1028.21 347.999 1031.67 343.736L1027.01 339.957C1024.84 342.631 1021.83 344.049 1017.59 344.049V350.049ZM1031.68 343.72C1035.05 339.512 1036.55 333.967 1036.55 327.432H1030.55C1030.55 333.084 1029.25 337.15 1026.99 339.972L1031.68 343.72Z" fill="white"/>
</svg>
