<svg width="1060" height="423" viewBox="0 0 1060 423" fill="none" xmlns="http://www.w3.org/2000/svg">
<path d="M220 0L269.393 146.143H429.232L299.92 236.464L349.313 382.607L220 292.286L90.6872 382.607L140.08 236.464L10.7676 146.143H170.607L220 0Z" fill="white"/>
<path d="M578.07 164.875C578.07 174.391 574.484 181.703 567.312 186.812C560.141 191.875 549.758 194.406 536.164 194.406C511.367 194.406 496.953 185.57 492.922 167.898L510.641 164.805C512.047 170.289 514.859 174.297 519.078 176.828C523.344 179.312 529.203 180.555 536.656 180.555C544.391 180.555 550.25 179.336 554.234 176.898C558.219 174.414 560.211 170.734 560.211 165.859C560.211 162.906 559.414 160.492 557.82 158.617C556.227 156.742 553.977 155.172 551.07 153.906C549.195 153.062 546.664 152.266 543.477 151.516C540.289 150.719 536.516 149.852 532.156 148.914C527.094 147.742 523.039 146.688 519.992 145.75C516.992 144.812 514.555 143.898 512.68 143.008C510.805 142.07 509.07 141.039 507.477 139.914C504.336 137.805 501.898 135.109 500.164 131.828C498.43 128.5 497.562 124.469 497.562 119.734C497.562 110.969 500.891 104.242 507.547 99.5547C514.203 94.8203 523.836 92.4531 536.445 92.4531C548.352 92.4531 557.352 94.3047 563.445 98.0078C569.539 101.711 573.594 107.898 575.609 116.57L557.75 119.172C556.578 114.578 554.258 111.18 550.789 108.977C547.32 106.727 542.422 105.602 536.094 105.602C529.25 105.602 524.094 106.703 520.625 108.906C517.156 111.109 515.422 114.391 515.422 118.75C515.422 121.469 516.125 123.719 517.531 125.5C518.984 127.234 521.094 128.711 523.859 129.93C526.438 131.148 531.992 132.672 540.523 134.5C544.977 135.484 548.961 136.445 552.477 137.383C555.992 138.32 558.969 139.305 561.406 140.336C563.422 141.227 565.25 142.188 566.891 143.219C568.578 144.25 570.031 145.398 571.25 146.664C573.453 148.82 575.141 151.398 576.312 154.398C577.484 157.398 578.07 160.891 578.07 164.875ZM663.641 154.891C663.641 167.547 660.383 177.297 653.867 184.141C647.352 190.984 638.188 194.406 626.375 194.406C614.797 194.406 605.797 190.938 599.375 184C593 177.062 589.812 167.359 589.812 154.891C589.812 142.375 593 132.695 599.375 125.852C605.797 118.961 614.938 115.516 626.797 115.516C638.984 115.516 648.172 118.844 654.359 125.5C660.547 132.156 663.641 141.953 663.641 154.891ZM645.43 154.891C645.43 145.375 643.906 138.461 640.859 134.148C637.859 129.836 633.266 127.68 627.078 127.68C620.609 127.68 615.828 129.93 612.734 134.43C609.641 138.883 608.094 145.703 608.094 154.891C608.094 163.891 609.594 170.711 612.594 175.352C615.641 179.992 620.188 182.312 626.234 182.312C632.797 182.312 637.625 180.062 640.719 175.562C643.859 171.016 645.43 164.125 645.43 154.891ZM696.758 88.6562V193H679.32V88.6562H696.758ZM734.094 88.6562V102.367H716.727V88.6562H734.094ZM734.094 116.922V193H716.727V116.922H734.094ZM785 194.406C773.797 194.406 765.148 191.008 759.055 184.211C753.008 177.367 749.984 167.711 749.984 155.242C749.984 142.586 753.031 132.812 759.125 125.922C765.219 118.984 773.891 115.516 785.141 115.516C793.719 115.516 800.82 117.695 806.445 122.055C812.07 126.367 815.586 132.344 816.992 139.984L799.414 140.969C798.805 136.984 797.305 133.82 794.914 131.477C792.523 129.086 789.148 127.891 784.789 127.891C779.117 127.891 774.945 130.047 772.273 134.359C769.602 138.672 768.266 145.422 768.266 154.609C768.266 163.844 769.648 170.734 772.414 175.281C775.227 179.828 779.422 182.102 785 182.102C788.984 182.102 792.312 180.906 794.984 178.516C797.703 176.125 799.391 172.516 800.047 167.688L817.555 168.602C816.852 173.758 815.047 178.281 812.141 182.172C809.234 186.062 805.461 189.086 800.82 191.242C796.18 193.352 790.906 194.406 785 194.406ZM848.984 88.6562V102.367H831.617V88.6562H848.984ZM848.984 116.922V193H831.617V116.922H848.984ZM902.914 192.086C898.32 193.492 893.188 194.195 887.516 194.195C881.938 194.195 877.672 192.672 874.719 189.625C871.812 186.531 870.359 181.891 870.359 175.703V128.875H861.008V116.922H871.203L876.547 99.3438H887.586V116.922H901.93V128.875H887.586V171.273C887.586 174.93 888.242 177.602 889.555 179.289C890.914 180.93 893.07 181.75 896.023 181.75C897.523 181.75 899.82 181.422 902.914 180.766V192.086ZM983.984 154.891C983.984 167.547 980.727 177.297 974.211 184.141C967.695 190.984 958.531 194.406 946.719 194.406C935.141 194.406 926.141 190.938 919.719 184C913.344 177.062 910.156 167.359 910.156 154.891C910.156 142.375 913.344 132.695 919.719 125.852C926.141 118.961 935.281 115.516 947.141 115.516C959.328 115.516 968.516 118.844 974.703 125.5C980.891 132.156 983.984 141.953 983.984 154.891ZM965.773 154.891C965.773 145.375 964.25 138.461 961.203 134.148C958.203 129.836 953.609 127.68 947.422 127.68C940.953 127.68 936.172 129.93 933.078 134.43C929.984 138.883 928.438 145.703 928.438 154.891C928.438 163.891 929.938 170.711 932.938 175.352C935.984 179.992 940.531 182.312 946.578 182.312C953.141 182.312 957.969 180.062 961.062 175.562C964.203 171.016 965.773 164.125 965.773 154.891ZM1017.17 154.891V193H999.805V134.711C999.805 131.055 999.734 127.82 999.594 125.008C999.5 122.148 999.383 119.453 999.242 116.922H1015.84C1015.93 117.906 1016 119.172 1016.05 120.719C1016.14 122.266 1016.23 123.859 1016.33 125.5C1016.42 127.141 1016.49 128.641 1016.54 130C1016.59 131.359 1016.61 132.344 1016.61 132.953H1016.89C1018.62 127.891 1020.29 124.188 1021.88 121.844C1023.43 119.594 1025.23 117.977 1027.3 116.992C1029.36 115.961 1031.94 115.445 1035.03 115.445C1037.33 115.445 1039.27 115.773 1040.87 116.43V131.266C1038.24 130.656 1035.62 130.352 1032.99 130.352C1027.93 130.352 1024.02 132.438 1021.25 136.609C1018.53 140.781 1017.17 146.875 1017.17 154.891ZM544.812 345.922C550.578 345.922 556.086 345.078 561.336 343.391C566.586 341.703 570.711 339.477 573.711 336.711V321.594H547.695V307.672H590.445V343.32C585.195 348.711 578.492 352.906 570.336 355.906C562.227 358.906 553.602 360.406 544.461 360.406C533.867 360.406 524.82 358.391 517.32 354.359C509.867 350.281 504.172 344.398 500.234 336.711C496.297 329.023 494.328 319.789 494.328 309.008C494.328 292.789 498.664 280.32 507.336 271.602C516.055 262.836 528.477 258.453 544.602 258.453C555.992 258.453 565.297 260.516 572.516 264.641C579.734 268.719 585.008 274.977 588.336 283.414L571.32 288.547C569.023 283.344 565.578 279.453 560.984 276.875C556.391 274.297 550.883 273.008 544.461 273.008C534.148 273.008 526.297 276.125 520.906 282.359C515.516 288.594 512.82 297.477 512.82 309.008C512.82 320.633 515.633 329.703 521.258 336.219C526.883 342.688 534.734 345.922 544.812 345.922ZM628.766 315.406V359H610.414V259.93H628.766V300.219H675.383V259.93H693.664V359H675.383V315.406H628.766ZM733.32 259.93V359H714.969V259.93H733.32ZM857.773 273.781C853.086 281.047 848.82 287.891 844.977 294.312C841.18 300.734 837.945 306.898 835.273 312.805C831.898 320.164 829.297 327.641 827.469 335.234C825.641 342.781 824.727 350.703 824.727 359H806.586C806.586 351.781 807.359 344.797 808.906 338.047C810.453 331.25 812.914 324.102 816.289 316.602C818.773 311.023 822.008 304.859 825.992 298.109C830.023 291.312 835.18 283.391 841.461 274.344H790.906V259.93H857.773V273.781ZM939.477 331.156C939.477 340.391 936.453 347.586 930.406 352.742C924.406 357.852 915.805 360.406 904.602 360.406C893.539 360.406 884.938 357.875 878.797 352.812C872.656 347.703 869.586 340.531 869.586 331.297C869.586 324.922 871.414 319.555 875.07 315.195C878.773 310.836 883.625 308.164 889.625 307.18V306.898C884.281 305.68 879.992 303.008 876.758 298.883C873.523 294.711 871.906 289.883 871.906 284.398C871.906 276.477 874.766 270.172 880.484 265.484C886.203 260.797 894.148 258.453 904.32 258.453C914.727 258.453 922.766 260.75 928.438 265.344C934.156 269.891 937.016 276.289 937.016 284.539C937.016 290.023 935.398 294.828 932.164 298.953C928.977 303.078 924.641 305.68 919.156 306.758V307.039C925.531 308.07 930.5 310.719 934.062 314.984C937.672 319.203 939.477 324.594 939.477 331.156ZM919.086 285.453C919.086 275.703 914.164 270.828 904.32 270.828C894.57 270.828 889.695 275.703 889.695 285.453C889.695 290.516 890.938 294.336 893.422 296.914C895.953 299.492 899.633 300.781 904.461 300.781C909.289 300.781 912.922 299.586 915.359 297.195C917.844 294.805 919.086 290.891 919.086 285.453ZM921.477 329.68C921.477 324.195 920 320.07 917.047 317.305C914.141 314.539 909.852 313.156 904.18 313.156C898.883 313.156 894.781 314.633 891.875 317.586C888.969 320.492 887.516 324.617 887.516 329.961C887.516 336.102 888.922 340.648 891.734 343.602C894.594 346.508 898.93 347.961 904.742 347.961C910.414 347.961 914.609 346.531 917.328 343.672C920.094 340.766 921.477 336.102 921.477 329.68ZM1018.86 307.742C1018.86 325.133 1015.67 338.258 1009.3 347.117C1002.97 355.977 993.945 360.406 982.227 360.406C973.836 360.406 967.203 358.625 962.328 355.062C957.5 351.5 954.078 345.805 952.062 337.977L968.445 335.656C970.508 342.969 975.172 346.625 982.438 346.625C988.578 346.625 993.289 343.742 996.57 337.977C999.898 332.211 1001.63 323.773 1001.77 312.664C999.945 316.414 996.922 319.391 992.703 321.594C988.484 323.75 983.914 324.828 978.992 324.828C973.133 324.828 968.047 323.469 963.734 320.75C959.422 318.031 956.07 314.188 953.68 309.219C951.336 304.25 950.164 298.414 950.164 291.711C950.164 281.305 953.141 273.172 959.094 267.312C965.047 261.406 973.438 258.453 984.266 258.453C995.844 258.453 1004.49 262.555 1010.21 270.758C1015.98 278.961 1018.86 291.289 1018.86 307.742ZM1000.37 294.453C1000.37 287.703 998.844 282.312 995.797 278.281C992.797 274.203 988.789 272.164 983.773 272.164C978.852 272.164 974.961 273.922 972.102 277.438C969.242 280.906 967.812 285.688 967.812 291.781C967.812 297.828 969.219 302.656 972.031 306.266C974.891 309.875 978.805 311.68 983.773 311.68C986.867 311.68 989.656 310.977 992.141 309.57C994.625 308.117 996.617 306.102 998.117 303.523C999.617 300.898 1000.37 297.875 1000.37 294.453Z" fill="white"/>
</svg>
