<svg width="1060" height="425" viewBox="0 0 1060 425" fill="none" xmlns="http://www.w3.org/2000/svg">
<path d="M220 7.84111L267.024 147.631L267.596 149.334H269.393H421.318L298.484 235.536L296.955 236.609L297.55 238.379L344.515 377.995L221.436 291.621L220 290.614L218.564 291.621L95.4849 377.995L142.45 238.379L143.045 236.609L141.516 235.536L18.6821 149.334H170.607H172.404L172.976 147.631L220 7.84111Z" fill="#08FFFF" stroke="black" stroke-width="5"/>
<path d="M578.07 165.159C578.07 174.674 574.484 181.987 567.312 187.096C560.141 192.159 549.758 194.69 536.164 194.69C511.367 194.69 496.953 185.854 492.922 168.182L510.641 165.088C512.047 170.573 514.859 174.581 519.078 177.112C523.344 179.596 529.203 180.838 536.656 180.838C544.391 180.838 550.25 179.62 554.234 177.182C558.219 174.698 560.211 171.018 560.211 166.143C560.211 163.19 559.414 160.776 557.82 158.901C556.227 157.026 553.977 155.456 551.07 154.19C549.195 153.346 546.664 152.549 543.477 151.799C540.289 151.002 536.516 150.135 532.156 149.198C527.094 148.026 523.039 146.971 519.992 146.034C516.992 145.096 514.555 144.182 512.68 143.292C510.805 142.354 509.07 141.323 507.477 140.198C504.336 138.088 501.898 135.393 500.164 132.112C498.43 128.784 497.562 124.752 497.562 120.018C497.562 111.252 500.891 104.526 507.547 99.8384C514.203 95.104 523.836 92.7368 536.445 92.7368C548.352 92.7368 557.352 94.5884 563.445 98.2915C569.539 101.995 573.594 108.182 575.609 116.854L557.75 119.456C556.578 114.862 554.258 111.463 550.789 109.26C547.32 107.01 542.422 105.885 536.094 105.885C529.25 105.885 524.094 106.987 520.625 109.19C517.156 111.393 515.422 114.674 515.422 119.034C515.422 121.752 516.125 124.002 517.531 125.784C518.984 127.518 521.094 128.995 523.859 130.213C526.438 131.432 531.992 132.956 540.523 134.784C544.977 135.768 548.961 136.729 552.477 137.667C555.992 138.604 558.969 139.588 561.406 140.62C563.422 141.51 565.25 142.471 566.891 143.502C568.578 144.534 570.031 145.682 571.25 146.948C573.453 149.104 575.141 151.682 576.312 154.682C577.484 157.682 578.07 161.174 578.07 165.159ZM663.641 155.174C663.641 167.831 660.383 177.581 653.867 184.424C647.352 191.268 638.188 194.69 626.375 194.69C614.797 194.69 605.797 191.221 599.375 184.284C593 177.346 589.812 167.643 589.812 155.174C589.812 142.659 593 132.979 599.375 126.135C605.797 119.245 614.938 115.799 626.797 115.799C638.984 115.799 648.172 119.127 654.359 125.784C660.547 132.44 663.641 142.237 663.641 155.174ZM645.43 155.174C645.43 145.659 643.906 138.745 640.859 134.432C637.859 130.12 633.266 127.963 627.078 127.963C620.609 127.963 615.828 130.213 612.734 134.713C609.641 139.167 608.094 145.987 608.094 155.174C608.094 164.174 609.594 170.995 612.594 175.635C615.641 180.276 620.188 182.596 626.234 182.596C632.797 182.596 637.625 180.346 640.719 175.846C643.859 171.299 645.43 164.409 645.43 155.174ZM696.758 88.9399V193.284H679.32V88.9399H696.758ZM734.094 88.9399V102.651H716.727V88.9399H734.094ZM734.094 117.206V193.284H716.727V117.206H734.094ZM785 194.69C773.797 194.69 765.148 191.292 759.055 184.495C753.008 177.651 749.984 167.995 749.984 155.526C749.984 142.87 753.031 133.096 759.125 126.206C765.219 119.268 773.891 115.799 785.141 115.799C793.719 115.799 800.82 117.979 806.445 122.338C812.07 126.651 815.586 132.627 816.992 140.268L799.414 141.252C798.805 137.268 797.305 134.104 794.914 131.76C792.523 129.37 789.148 128.174 784.789 128.174C779.117 128.174 774.945 130.331 772.273 134.643C769.602 138.956 768.266 145.706 768.266 154.893C768.266 164.127 769.648 171.018 772.414 175.565C775.227 180.112 779.422 182.385 785 182.385C788.984 182.385 792.312 181.19 794.984 178.799C797.703 176.409 799.391 172.799 800.047 167.971L817.555 168.885C816.852 174.042 815.047 178.565 812.141 182.456C809.234 186.346 805.461 189.37 800.82 191.526C796.18 193.635 790.906 194.69 785 194.69ZM848.984 88.9399V102.651H831.617V88.9399H848.984ZM848.984 117.206V193.284H831.617V117.206H848.984ZM902.914 192.37C898.32 193.776 893.188 194.479 887.516 194.479C881.938 194.479 877.672 192.956 874.719 189.909C871.812 186.815 870.359 182.174 870.359 175.987V129.159H861.008V117.206H871.203L876.547 99.6274H887.586V117.206H901.93V129.159H887.586V171.557C887.586 175.213 888.242 177.885 889.555 179.573C890.914 181.213 893.07 182.034 896.023 182.034C897.523 182.034 899.82 181.706 902.914 181.049V192.37ZM983.984 155.174C983.984 167.831 980.727 177.581 974.211 184.424C967.695 191.268 958.531 194.69 946.719 194.69C935.141 194.69 926.141 191.221 919.719 184.284C913.344 177.346 910.156 167.643 910.156 155.174C910.156 142.659 913.344 132.979 919.719 126.135C926.141 119.245 935.281 115.799 947.141 115.799C959.328 115.799 968.516 119.127 974.703 125.784C980.891 132.44 983.984 142.237 983.984 155.174ZM965.773 155.174C965.773 145.659 964.25 138.745 961.203 134.432C958.203 130.12 953.609 127.963 947.422 127.963C940.953 127.963 936.172 130.213 933.078 134.713C929.984 139.167 928.438 145.987 928.438 155.174C928.438 164.174 929.938 170.995 932.938 175.635C935.984 180.276 940.531 182.596 946.578 182.596C953.141 182.596 957.969 180.346 961.062 175.846C964.203 171.299 965.773 164.409 965.773 155.174ZM1017.17 155.174V193.284H999.805V134.995C999.805 131.338 999.734 128.104 999.594 125.292C999.5 122.432 999.383 119.737 999.242 117.206H1015.84C1015.93 118.19 1016 119.456 1016.05 121.002C1016.14 122.549 1016.23 124.143 1016.33 125.784C1016.42 127.424 1016.49 128.924 1016.54 130.284C1016.59 131.643 1016.61 132.627 1016.61 133.237H1016.89C1018.62 128.174 1020.29 124.471 1021.88 122.127C1023.43 119.877 1025.23 118.26 1027.3 117.276C1029.36 116.245 1031.94 115.729 1035.03 115.729C1037.33 115.729 1039.27 116.057 1040.87 116.713V131.549C1038.24 130.94 1035.62 130.635 1032.99 130.635C1027.93 130.635 1024.02 132.721 1021.25 136.893C1018.53 141.065 1017.17 147.159 1017.17 155.174ZM544.812 346.206C550.578 346.206 556.086 345.362 561.336 343.674C566.586 341.987 570.711 339.76 573.711 336.995V321.877H547.695V307.956H590.445V343.604C585.195 348.995 578.492 353.19 570.336 356.19C562.227 359.19 553.602 360.69 544.461 360.69C533.867 360.69 524.82 358.674 517.32 354.643C509.867 350.565 504.172 344.682 500.234 336.995C496.297 329.307 494.328 320.073 494.328 309.292C494.328 293.073 498.664 280.604 507.336 271.885C516.055 263.12 528.477 258.737 544.602 258.737C555.992 258.737 565.297 260.799 572.516 264.924C579.734 269.002 585.008 275.26 588.336 283.698L571.32 288.831C569.023 283.627 565.578 279.737 560.984 277.159C556.391 274.581 550.883 273.292 544.461 273.292C534.148 273.292 526.297 276.409 520.906 282.643C515.516 288.877 512.82 297.76 512.82 309.292C512.82 320.917 515.633 329.987 521.258 336.502C526.883 342.971 534.734 346.206 544.812 346.206ZM628.766 315.69V359.284H610.414V260.213H628.766V300.502H675.383V260.213H693.664V359.284H675.383V315.69H628.766ZM733.32 260.213V359.284H714.969V260.213H733.32ZM857.773 274.065C853.086 281.331 848.82 288.174 844.977 294.596C841.18 301.018 837.945 307.182 835.273 313.088C831.898 320.448 829.297 327.924 827.469 335.518C825.641 343.065 824.727 350.987 824.727 359.284H806.586C806.586 352.065 807.359 345.081 808.906 338.331C810.453 331.534 812.914 324.385 816.289 316.885C818.773 311.307 822.008 305.143 825.992 298.393C830.023 291.596 835.18 283.674 841.461 274.627H790.906V260.213H857.773V274.065ZM939.477 331.44C939.477 340.674 936.453 347.87 930.406 353.026C924.406 358.135 915.805 360.69 904.602 360.69C893.539 360.69 884.938 358.159 878.797 353.096C872.656 347.987 869.586 340.815 869.586 331.581C869.586 325.206 871.414 319.838 875.07 315.479C878.773 311.12 883.625 308.448 889.625 307.463V307.182C884.281 305.963 879.992 303.292 876.758 299.167C873.523 294.995 871.906 290.167 871.906 284.682C871.906 276.76 874.766 270.456 880.484 265.768C886.203 261.081 894.148 258.737 904.32 258.737C914.727 258.737 922.766 261.034 928.438 265.627C934.156 270.174 937.016 276.573 937.016 284.823C937.016 290.307 935.398 295.112 932.164 299.237C928.977 303.362 924.641 305.963 919.156 307.042V307.323C925.531 308.354 930.5 311.002 934.062 315.268C937.672 319.487 939.477 324.877 939.477 331.44ZM919.086 285.737C919.086 275.987 914.164 271.112 904.32 271.112C894.57 271.112 889.695 275.987 889.695 285.737C889.695 290.799 890.938 294.62 893.422 297.198C895.953 299.776 899.633 301.065 904.461 301.065C909.289 301.065 912.922 299.87 915.359 297.479C917.844 295.088 919.086 291.174 919.086 285.737ZM921.477 329.963C921.477 324.479 920 320.354 917.047 317.588C914.141 314.823 909.852 313.44 904.18 313.44C898.883 313.44 894.781 314.917 891.875 317.87C888.969 320.776 887.516 324.901 887.516 330.245C887.516 336.385 888.922 340.932 891.734 343.885C894.594 346.792 898.93 348.245 904.742 348.245C910.414 348.245 914.609 346.815 917.328 343.956C920.094 341.049 921.477 336.385 921.477 329.963ZM1018.86 308.026C1018.86 325.417 1015.67 338.542 1009.3 347.401C1002.97 356.26 993.945 360.69 982.227 360.69C973.836 360.69 967.203 358.909 962.328 355.346C957.5 351.784 954.078 346.088 952.062 338.26L968.445 335.94C970.508 343.252 975.172 346.909 982.438 346.909C988.578 346.909 993.289 344.026 996.57 338.26C999.898 332.495 1001.63 324.057 1001.77 312.948C999.945 316.698 996.922 319.674 992.703 321.877C988.484 324.034 983.914 325.112 978.992 325.112C973.133 325.112 968.047 323.752 963.734 321.034C959.422 318.315 956.07 314.471 953.68 309.502C951.336 304.534 950.164 298.698 950.164 291.995C950.164 281.588 953.141 273.456 959.094 267.596C965.047 261.69 973.438 258.737 984.266 258.737C995.844 258.737 1004.49 262.838 1010.21 271.042C1015.98 279.245 1018.86 291.573 1018.86 308.026ZM1000.37 294.737C1000.37 287.987 998.844 282.596 995.797 278.565C992.797 274.487 988.789 272.448 983.773 272.448C978.852 272.448 974.961 274.206 972.102 277.721C969.242 281.19 967.812 285.971 967.812 292.065C967.812 298.112 969.219 302.94 972.031 306.549C974.891 310.159 978.805 311.963 983.773 311.963C986.867 311.963 989.656 311.26 992.141 309.854C994.625 308.401 996.617 306.385 998.117 303.807C999.617 301.182 1000.37 298.159 1000.37 294.737Z" fill="#09FFFF"/>
<path d="M567.312 187.096L569.043 189.547L569.053 189.54L567.312 187.096ZM492.922 168.182L492.406 165.227L489.295 165.77L489.997 168.849L492.922 168.182ZM510.641 165.088L513.547 164.343L512.858 161.656L510.125 162.133L510.641 165.088ZM519.078 177.112L517.535 179.684L517.551 179.694L517.568 179.704L519.078 177.112ZM554.234 177.182L555.8 179.741L555.811 179.735L555.822 179.728L554.234 177.182ZM551.07 154.19L549.839 156.926L549.856 156.933L549.873 156.94L551.07 154.19ZM543.477 151.799L542.749 154.71L542.769 154.715L542.789 154.72L543.477 151.799ZM532.156 149.198L531.48 152.12L531.503 152.126L531.526 152.131L532.156 149.198ZM519.992 146.034L519.097 148.897L519.11 148.901L519.992 146.034ZM512.68 143.292L511.338 145.975L511.365 145.988L511.393 146.001L512.68 143.292ZM507.477 140.198L509.207 137.747L509.178 137.727L509.149 137.707L507.477 140.198ZM500.164 132.112L497.504 133.498L497.508 133.506L497.512 133.514L500.164 132.112ZM507.547 99.8384L509.274 102.291L509.286 102.283L507.547 99.8384ZM575.609 116.854L576.042 119.823L579.27 119.352L578.531 116.175L575.609 116.854ZM557.75 119.456L554.843 120.197L555.511 122.813L558.182 122.424L557.75 119.456ZM550.789 109.26L549.156 111.777L549.169 111.785L549.181 111.793L550.789 109.26ZM517.531 125.784L515.177 127.643L515.204 127.677L515.232 127.71L517.531 125.784ZM523.859 130.213L525.142 127.501L525.106 127.484L525.069 127.468L523.859 130.213ZM540.523 134.784L541.171 131.854L541.162 131.852L541.152 131.85L540.523 134.784ZM561.406 140.62L562.619 137.876L562.597 137.866L562.575 137.857L561.406 140.62ZM566.891 143.502L565.294 146.042L565.31 146.052L565.326 146.062L566.891 143.502ZM571.25 146.948L569.089 149.029L569.12 149.061L569.152 149.092L571.25 146.948ZM575.07 165.159C575.07 173.796 571.882 180.157 565.572 184.653L569.053 189.54C577.087 183.816 581.07 175.553 581.07 165.159H575.07ZM565.582 184.645C559.125 189.203 549.455 191.69 536.164 191.69V197.69C550.061 197.69 561.156 195.114 569.043 189.547L565.582 184.645ZM536.164 191.69C524.077 191.69 514.888 189.529 508.324 185.505C501.858 181.542 497.697 175.627 495.847 167.515L489.997 168.849C492.178 178.409 497.239 185.748 505.188 190.621C513.038 195.433 523.455 197.69 536.164 197.69V191.69ZM493.438 171.137L511.157 168.044L510.125 162.133L492.406 165.227L493.438 171.137ZM507.735 165.834C509.305 171.958 512.536 176.685 517.535 179.684L520.622 174.539C517.183 172.476 514.789 169.188 513.547 164.343L507.735 165.834ZM517.568 179.704C522.468 182.558 528.923 183.838 536.656 183.838V177.838C529.484 177.838 524.219 176.634 520.588 174.519L517.568 179.704ZM536.656 183.838C544.619 183.838 551.129 182.599 555.8 179.741L552.669 174.623C549.371 176.64 544.162 177.838 536.656 177.838V183.838ZM555.822 179.728C560.725 176.671 563.211 172.005 563.211 166.143H557.211C557.211 170.031 555.713 172.725 552.647 174.636L555.822 179.728ZM563.211 166.143C563.211 162.627 562.249 159.479 560.106 156.958L555.534 160.844C556.579 162.073 557.211 163.753 557.211 166.143H563.211ZM560.106 156.958C558.143 154.649 555.477 152.837 552.268 151.439L549.873 156.94C552.476 158.074 554.31 159.403 555.534 160.844L560.106 156.958ZM552.301 151.454C550.18 150.5 547.442 149.65 544.164 148.879L542.789 154.72C545.886 155.448 548.211 156.193 549.839 156.926L552.301 151.454ZM544.204 148.889C540.975 148.082 537.168 147.207 532.787 146.265L531.526 152.131C535.863 153.064 539.603 153.923 542.749 154.71L544.204 148.889ZM532.833 146.275C527.802 145.111 523.825 144.074 520.874 143.166L519.11 148.901C522.253 149.868 526.385 150.941 531.48 152.12L532.833 146.275ZM520.887 143.17C517.961 142.256 515.668 141.39 513.967 140.582L511.393 146.001C513.441 146.975 516.024 147.937 519.097 148.897L520.887 143.17ZM514.021 140.608C512.272 139.733 510.668 138.779 509.207 137.747L505.747 142.649C507.472 143.867 509.338 144.975 511.338 145.975L514.021 140.608ZM509.149 137.707C506.412 135.869 504.314 133.544 502.816 130.71L497.512 133.514C499.482 137.242 502.26 140.308 505.804 142.688L509.149 137.707ZM502.824 130.725C501.364 127.923 500.562 124.393 500.562 120.018H494.562C494.562 125.112 495.495 129.645 497.504 133.498L502.824 130.725ZM500.562 120.018C500.562 112.14 503.485 106.368 509.274 102.291L505.82 97.3856C498.296 102.684 494.562 110.364 494.562 120.018H500.562ZM509.286 102.283C515.226 98.058 524.143 95.7368 536.445 95.7368V89.7368C523.529 89.7368 513.18 92.15 505.808 97.3937L509.286 102.283ZM536.445 95.7368C548.13 95.7368 556.481 97.5697 561.887 100.855L565.003 95.7278C558.222 91.6071 548.574 89.7368 536.445 89.7368V95.7368ZM561.887 100.855C567.129 104.04 570.806 109.44 572.687 117.533L578.531 116.175C576.381 106.924 571.949 99.9489 565.003 95.7278L561.887 100.855ZM575.177 113.885L557.318 116.487L558.182 122.424L576.042 119.823L575.177 113.885ZM560.657 118.714C559.327 113.502 556.61 109.404 552.397 106.728L549.181 111.793C551.905 113.523 553.829 116.222 554.843 120.197L560.657 118.714ZM552.422 106.743C548.273 104.052 542.716 102.885 536.094 102.885V108.885C542.128 108.885 546.368 109.968 549.156 111.777L552.422 106.743ZM536.094 102.885C529.019 102.885 523.189 104.007 519.017 106.658L522.233 111.722C524.998 109.966 529.481 108.885 536.094 108.885V102.885ZM519.017 106.658C514.62 109.45 512.422 113.723 512.422 119.034H518.422C518.422 115.626 519.693 113.336 522.233 111.722L519.017 106.658ZM512.422 119.034C512.422 122.289 513.274 125.233 515.177 127.643L519.886 123.925C518.976 122.772 518.422 121.216 518.422 119.034H512.422ZM515.232 127.71C517.062 129.896 519.598 131.614 522.65 132.959L525.069 127.468C522.59 126.376 520.906 125.141 519.831 123.857L515.232 127.71ZM522.577 132.926C525.523 134.318 531.427 135.903 539.895 137.717L541.152 131.85C532.557 130.009 527.352 128.546 525.142 127.501L522.577 132.926ZM539.876 137.713C544.297 138.69 548.238 139.641 551.704 140.565L553.25 134.768C549.683 133.817 545.656 132.846 541.171 131.854L539.876 137.713ZM551.704 140.565C555.13 141.479 557.966 142.422 560.237 143.383L562.575 137.857C559.971 136.755 556.854 135.729 553.25 134.768L551.704 140.565ZM560.194 143.364C562.094 144.203 563.792 145.098 565.294 146.042L568.487 140.963C566.708 139.844 564.749 138.817 562.619 137.876L560.194 143.364ZM565.326 146.062C566.822 146.976 568.069 147.969 569.089 149.029L573.411 144.867C571.994 143.395 570.334 142.091 568.455 140.943L565.326 146.062ZM569.152 149.092C571.037 150.937 572.494 153.152 573.518 155.774L579.107 153.591C577.787 150.213 575.869 147.271 573.348 144.804L569.152 149.092ZM573.518 155.774C574.526 158.354 575.07 161.462 575.07 165.159H581.07C581.07 160.886 580.443 157.01 579.107 153.591L573.518 155.774ZM599.375 184.284L597.166 186.314L597.173 186.322L599.375 184.284ZM599.375 126.135L597.18 124.09L597.18 124.09L599.375 126.135ZM640.859 134.432L638.397 136.145L638.403 136.154L638.409 136.163L640.859 134.432ZM612.734 134.713L615.198 136.425L615.202 136.419L615.207 136.413L612.734 134.713ZM612.594 175.635L610.074 177.264L610.08 177.273L610.086 177.282L612.594 175.635ZM640.719 175.846L638.25 174.141L638.247 174.147L640.719 175.846ZM660.641 155.174C660.641 167.328 657.519 176.237 651.694 182.356L656.04 186.493C663.246 178.924 666.641 168.333 666.641 155.174H660.641ZM651.694 182.356C645.88 188.463 637.585 191.69 626.375 191.69V197.69C638.79 197.69 648.823 194.073 656.04 186.493L651.694 182.356ZM626.375 191.69C615.43 191.69 607.306 188.436 601.577 182.246L597.173 186.322C604.287 194.007 614.163 197.69 626.375 197.69V191.69ZM601.584 182.254C595.864 176.029 592.812 167.14 592.812 155.174H586.812C586.812 168.146 590.136 178.663 597.166 186.314L601.584 182.254ZM592.812 155.174C592.812 143.156 595.867 134.303 601.57 128.18L597.18 124.09C590.133 131.655 586.812 142.162 586.812 155.174H592.812ZM601.57 128.181C607.284 122.049 615.54 118.799 626.797 118.799V112.799C614.335 112.799 604.309 116.441 597.18 124.09L601.57 128.181ZM626.797 118.799C638.447 118.799 646.717 121.968 652.162 127.826L656.557 123.741C649.627 116.287 639.521 112.799 626.797 112.799V118.799ZM652.162 127.826C657.651 133.731 660.641 142.674 660.641 155.174H666.641C666.641 141.799 663.443 131.149 656.557 123.741L652.162 127.826ZM648.43 155.174C648.43 145.473 646.902 137.786 643.31 132.701L638.409 136.163C640.91 139.703 642.43 145.844 642.43 155.174H648.43ZM643.322 132.719C639.656 127.449 634.047 124.963 627.078 124.963V130.963C632.484 130.963 636.063 132.79 638.397 136.145L643.322 132.719ZM627.078 124.963C619.831 124.963 614.025 127.541 610.262 133.014L615.207 136.413C617.632 132.885 621.388 130.963 627.078 130.963V124.963ZM610.271 133.002C606.66 138.199 605.094 145.756 605.094 155.174H611.094C611.094 146.218 612.621 140.134 615.198 136.425L610.271 133.002ZM605.094 155.174C605.094 164.424 606.62 171.921 610.074 177.264L615.113 174.007C612.567 170.068 611.094 163.925 611.094 155.174H605.094ZM610.086 177.282C613.744 182.853 619.284 185.596 626.234 185.596V179.596C621.091 179.596 617.538 177.699 615.102 173.989L610.086 177.282ZM626.234 185.596C633.557 185.596 639.42 183.031 643.191 177.546L638.247 174.147C635.83 177.661 632.037 179.596 626.234 179.596V185.596ZM643.187 177.551C646.837 172.268 648.43 164.65 648.43 155.174H642.43C642.43 164.168 640.882 170.331 638.25 174.141L643.187 177.551ZM696.758 88.9399H699.758V85.9399H696.758V88.9399ZM696.758 193.284V196.284H699.758V193.284H696.758ZM679.32 193.284H676.32V196.284H679.32V193.284ZM679.32 88.9399V85.9399H676.32V88.9399H679.32ZM693.758 88.9399V193.284H699.758V88.9399H693.758ZM696.758 190.284H679.32V196.284H696.758V190.284ZM682.32 193.284V88.9399H676.32V193.284H682.32ZM679.32 91.9399H696.758V85.9399H679.32V91.9399ZM734.094 88.9399H737.094V85.9399H734.094V88.9399ZM734.094 102.651V105.651H737.094V102.651H734.094ZM716.727 102.651H713.727V105.651H716.727V102.651ZM716.727 88.9399V85.9399H713.727V88.9399H716.727ZM734.094 117.206H737.094V114.206H734.094V117.206ZM734.094 193.284V196.284H737.094V193.284H734.094ZM716.727 193.284H713.727V196.284H716.727V193.284ZM716.727 117.206V114.206H713.727V117.206H716.727ZM731.094 88.9399V102.651H737.094V88.9399H731.094ZM734.094 99.6509H716.727V105.651H734.094V99.6509ZM719.727 102.651V88.9399H713.727V102.651H719.727ZM716.727 91.9399H734.094V85.9399H716.727V91.9399ZM731.094 117.206V193.284H737.094V117.206H731.094ZM734.094 190.284H716.727V196.284H734.094V190.284ZM719.727 193.284V117.206H713.727V193.284H719.727ZM716.727 120.206H734.094V114.206H716.727V120.206ZM759.055 184.495L756.807 186.481L756.814 186.489L756.821 186.497L759.055 184.495ZM759.125 126.206L761.372 128.193L761.379 128.185L759.125 126.206ZM806.445 122.338L804.608 124.71L804.614 124.714L804.62 124.719L806.445 122.338ZM816.992 140.268L817.16 143.263L820.559 143.073L819.943 139.725L816.992 140.268ZM799.414 141.252L796.449 141.706L796.861 144.4L799.582 144.248L799.414 141.252ZM794.914 131.76L792.793 133.882L792.803 133.892L792.814 133.902L794.914 131.76ZM772.414 175.565L769.851 177.124L769.857 177.134L769.863 177.143L772.414 175.565ZM794.984 178.799L793.003 176.546L792.994 176.555L792.984 176.564L794.984 178.799ZM800.047 167.971L800.203 164.975L797.446 164.831L797.074 167.567L800.047 167.971ZM817.555 168.885L820.527 169.291L820.968 166.059L817.711 165.889L817.555 168.885ZM800.82 191.526L802.062 194.257L802.073 194.252L802.084 194.247L800.82 191.526ZM785 191.69C774.44 191.69 766.687 188.513 761.288 182.492L756.821 186.497C763.61 194.07 773.154 197.69 785 197.69V191.69ZM761.303 182.508C755.893 176.385 752.984 167.532 752.984 155.526H746.984C746.984 168.457 750.123 178.916 756.807 186.481L761.303 182.508ZM752.984 155.526C752.984 143.326 755.92 134.359 761.372 128.193L756.878 124.218C750.143 131.834 746.984 142.414 746.984 155.526H752.984ZM761.379 128.185C766.78 122.036 774.549 118.799 785.141 118.799V112.799C773.233 112.799 763.657 116.5 756.871 124.226L761.379 128.185ZM785.141 118.799C793.194 118.799 799.61 120.836 804.608 124.71L808.283 119.967C802.031 115.122 794.243 112.799 785.141 112.799V118.799ZM804.62 124.719C809.597 128.535 812.756 133.825 814.042 140.811L819.943 139.725C818.416 131.43 814.544 124.767 808.271 119.958L804.62 124.719ZM816.824 137.273L799.246 138.257L799.582 144.248L817.16 143.263L816.824 137.273ZM802.38 140.799C801.693 136.307 799.957 132.503 797.014 129.618L792.814 133.902C794.652 135.705 795.917 138.229 796.449 141.706L802.38 140.799ZM797.035 129.639C793.932 126.536 789.703 125.174 784.789 125.174V131.174C788.593 131.174 791.115 132.204 792.793 133.882L797.035 129.639ZM784.789 125.174C778.225 125.174 773.015 127.75 769.723 133.063L774.824 136.223C776.876 132.911 780.01 131.174 784.789 131.174V125.174ZM769.723 133.063C766.604 138.098 765.266 145.537 765.266 154.893H771.266C771.266 145.874 772.599 139.813 774.824 136.223L769.723 133.063ZM765.266 154.893C765.266 164.323 766.659 171.876 769.851 177.124L774.977 174.006C772.638 170.16 771.266 163.931 771.266 154.893H765.266ZM769.863 177.143C773.25 182.619 778.437 185.385 785 185.385V179.385C780.407 179.385 777.203 177.604 774.965 173.987L769.863 177.143ZM785 185.385C789.634 185.385 793.7 183.974 796.985 181.035L792.984 176.564C790.925 178.406 788.335 179.385 785 179.385V185.385ZM796.965 181.052C800.39 178.041 802.3 173.669 803.02 168.375L797.074 167.567C796.481 171.929 795.017 174.776 793.003 176.546L796.965 181.052ZM799.89 170.967L817.398 171.881L817.711 165.889L800.203 164.975L799.89 170.967ZM814.582 168.48C813.943 173.169 812.317 177.206 809.737 180.66L814.544 184.251C817.777 179.924 819.76 174.914 820.527 169.291L814.582 168.48ZM809.737 180.66C807.144 184.131 803.771 186.847 799.556 188.805L802.084 194.247C807.151 191.893 811.324 188.561 814.544 184.251L809.737 180.66ZM799.579 188.795C795.385 190.701 790.546 191.69 785 191.69V197.69C791.267 197.69 796.974 196.57 802.062 194.257L799.579 188.795ZM848.984 88.9399H851.984V85.9399H848.984V88.9399ZM848.984 102.651V105.651H851.984V102.651H848.984ZM831.617 102.651H828.617V105.651H831.617V102.651ZM831.617 88.9399V85.9399H828.617V88.9399H831.617ZM848.984 117.206H851.984V114.206H848.984V117.206ZM848.984 193.284V196.284H851.984V193.284H848.984ZM831.617 193.284H828.617V196.284H831.617V193.284ZM831.617 117.206V114.206H828.617V117.206H831.617ZM845.984 88.9399V102.651H851.984V88.9399H845.984ZM848.984 99.6509H831.617V105.651H848.984V99.6509ZM834.617 102.651V88.9399H828.617V102.651H834.617ZM831.617 91.9399H848.984V85.9399H831.617V91.9399ZM845.984 117.206V193.284H851.984V117.206H845.984ZM848.984 190.284H831.617V196.284H848.984V190.284ZM834.617 193.284V117.206H828.617V193.284H834.617ZM831.617 120.206H848.984V114.206H831.617V120.206ZM902.914 192.37L903.792 195.238L905.914 194.589V192.37H902.914ZM874.719 189.909L872.532 191.963L872.548 191.98L872.565 191.997L874.719 189.909ZM870.359 129.159H873.359V126.159H870.359V129.159ZM861.008 129.159H858.008V132.159H861.008V129.159ZM861.008 117.206V114.206H858.008V117.206H861.008ZM871.203 117.206V120.206H873.427L874.073 118.078L871.203 117.206ZM876.547 99.6274V96.6274H874.323L873.677 98.7549L876.547 99.6274ZM887.586 99.6274H890.586V96.6274H887.586V99.6274ZM887.586 117.206H884.586V120.206H887.586V117.206ZM901.93 117.206H904.93V114.206H901.93V117.206ZM901.93 129.159V132.159H904.93V129.159H901.93ZM887.586 129.159V126.159H884.586V129.159H887.586ZM889.555 179.573L887.187 181.415L887.215 181.451L887.245 181.487L889.555 179.573ZM902.914 181.049H905.914V177.346L902.292 178.115L902.914 181.049ZM902.036 189.501C897.773 190.806 892.942 191.479 887.516 191.479V197.479C893.433 197.479 898.868 196.746 903.792 195.238L902.036 189.501ZM887.516 191.479C882.483 191.479 879.099 190.118 876.873 187.821L872.565 191.997C876.245 195.794 881.392 197.479 887.516 197.479V191.479ZM876.905 187.855C874.718 185.526 873.359 181.757 873.359 175.987H867.359C867.359 182.592 868.907 188.104 872.532 191.963L876.905 187.855ZM873.359 175.987V129.159H867.359V175.987H873.359ZM870.359 126.159H861.008V132.159H870.359V126.159ZM864.008 129.159V117.206H858.008V129.159H864.008ZM861.008 120.206H871.203V114.206H861.008V120.206ZM874.073 118.078L879.417 100.5L873.677 98.7549L868.333 116.333L874.073 118.078ZM876.547 102.627H887.586V96.6274H876.547V102.627ZM884.586 99.6274V117.206H890.586V99.6274H884.586ZM887.586 120.206H901.93V114.206H887.586V120.206ZM898.93 117.206V129.159H904.93V117.206H898.93ZM901.93 126.159H887.586V132.159H901.93V126.159ZM884.586 129.159V171.557H890.586V129.159H884.586ZM884.586 171.557C884.586 175.452 885.262 178.941 887.187 181.415L891.923 177.731C891.222 176.83 890.586 174.974 890.586 171.557H884.586ZM887.245 181.487C889.371 184.053 892.539 185.034 896.023 185.034V179.034C893.601 179.034 892.458 178.374 891.865 177.659L887.245 181.487ZM896.023 185.034C897.856 185.034 900.411 184.647 903.537 183.984L902.292 178.115C899.229 178.764 897.191 179.034 896.023 179.034V185.034ZM899.914 181.049V192.37H905.914V181.049H899.914ZM919.719 184.284L917.51 186.314L917.517 186.322L919.719 184.284ZM919.719 126.135L917.524 124.09L917.524 124.09L919.719 126.135ZM961.203 134.432L958.74 136.145L958.747 136.154L958.753 136.163L961.203 134.432ZM933.078 134.713L935.542 136.425L935.546 136.419L935.55 136.413L933.078 134.713ZM932.938 175.635L930.418 177.264L930.424 177.273L930.43 177.282L932.938 175.635ZM961.062 175.846L958.594 174.141L958.59 174.147L961.062 175.846ZM980.984 155.174C980.984 167.328 977.863 176.237 972.038 182.356L976.384 186.493C983.59 178.924 986.984 168.333 986.984 155.174H980.984ZM972.038 182.356C966.224 188.463 957.929 191.69 946.719 191.69V197.69C959.134 197.69 969.167 194.073 976.384 186.493L972.038 182.356ZM946.719 191.69C935.774 191.69 927.65 188.436 921.92 182.246L917.517 186.322C924.631 194.007 934.507 197.69 946.719 197.69V191.69ZM921.928 182.254C916.208 176.029 913.156 167.14 913.156 155.174H907.156C907.156 168.146 910.48 178.663 917.51 186.314L921.928 182.254ZM913.156 155.174C913.156 143.156 916.211 134.303 921.914 128.18L917.524 124.09C910.477 131.655 907.156 142.162 907.156 155.174H913.156ZM921.913 128.181C927.628 122.049 935.884 118.799 947.141 118.799V112.799C934.679 112.799 924.653 116.441 917.524 124.09L921.913 128.181ZM947.141 118.799C958.791 118.799 967.06 121.968 972.506 127.826L976.9 123.741C969.971 116.287 959.865 112.799 947.141 112.799V118.799ZM972.506 127.826C977.994 133.731 980.984 142.674 980.984 155.174H986.984C986.984 141.799 983.787 131.149 976.9 123.741L972.506 127.826ZM968.773 155.174C968.773 145.473 967.246 137.786 963.653 132.701L958.753 136.163C961.254 139.703 962.773 145.844 962.773 155.174H968.773ZM963.666 132.719C960 127.449 954.391 124.963 947.422 124.963V130.963C952.828 130.963 956.407 132.79 958.74 136.145L963.666 132.719ZM947.422 124.963C940.174 124.963 934.368 127.541 930.606 133.014L935.55 136.413C937.975 132.885 941.732 130.963 947.422 130.963V124.963ZM930.614 133.002C927.004 138.199 925.438 145.756 925.438 155.174H931.438C931.438 146.218 932.965 140.134 935.542 136.425L930.614 133.002ZM925.438 155.174C925.438 164.424 926.964 171.921 930.418 177.264L935.457 174.007C932.911 170.068 931.438 163.925 931.438 155.174H925.438ZM930.43 177.282C934.087 182.853 939.628 185.596 946.578 185.596V179.596C941.435 179.596 937.881 177.699 935.445 173.989L930.43 177.282ZM946.578 185.596C953.901 185.596 959.764 183.031 963.535 177.546L958.59 174.147C956.174 177.661 952.38 179.596 946.578 179.596V185.596ZM963.531 177.551C967.18 172.268 968.773 164.65 968.773 155.174H962.773C962.773 164.168 961.226 170.331 958.594 174.141L963.531 177.551ZM1017.17 193.284V196.284H1020.17V193.284H1017.17ZM999.805 193.284H996.805V196.284H999.805V193.284ZM999.594 125.292L996.595 125.39L996.596 125.416L996.597 125.441L999.594 125.292ZM999.242 117.206V114.206H996.071L996.247 117.372L999.242 117.206ZM1015.84 117.206L1018.82 116.921L1018.56 114.206H1015.84V117.206ZM1016.05 121.002L1013.05 121.093L1013.05 121.139L1013.05 121.184L1016.05 121.002ZM1016.61 133.237H1013.61V136.237H1016.61V133.237ZM1016.89 133.237V136.237H1019.03L1019.73 134.209L1016.89 133.237ZM1021.88 122.127L1019.41 120.428L1019.41 120.434L1019.4 120.441L1021.88 122.127ZM1027.3 117.276L1028.59 119.983L1028.61 119.971L1028.64 119.959L1027.3 117.276ZM1040.87 116.713H1043.87V114.704L1042.01 113.939L1040.87 116.713ZM1040.87 131.549L1040.19 134.472L1043.87 135.326V131.549H1040.87ZM1021.25 136.893L1018.75 135.235L1018.74 135.245L1018.74 135.255L1021.25 136.893ZM1014.17 155.174V193.284H1020.17V155.174H1014.17ZM1017.17 190.284H999.805V196.284H1017.17V190.284ZM1002.8 193.284V134.995H996.805V193.284H1002.8ZM1002.8 134.995C1002.8 131.302 1002.73 128.016 1002.59 125.142L996.597 125.441C996.735 128.192 996.805 131.375 996.805 134.995H1002.8ZM1002.59 125.193C1002.5 122.314 1002.38 119.596 1002.24 117.039L996.247 117.372C996.386 119.878 996.502 122.55 996.595 125.39L1002.59 125.193ZM999.242 120.206H1015.84V114.206H999.242V120.206ZM1012.85 117.49C1012.93 118.385 1013 119.579 1013.05 121.093L1019.05 120.912C1019 119.332 1018.92 117.995 1018.82 116.921L1012.85 117.49ZM1013.05 121.184C1013.15 122.727 1013.24 124.317 1013.33 125.955L1019.32 125.613C1019.23 123.969 1019.14 122.371 1019.04 120.821L1013.05 121.184ZM1013.33 125.955C1013.43 127.577 1013.49 129.054 1013.54 130.387L1019.54 130.18C1019.49 128.794 1019.42 127.271 1019.32 125.613L1013.33 125.955ZM1013.54 130.387C1013.59 131.743 1013.61 132.683 1013.61 133.237H1019.61C1019.61 132.572 1019.58 131.543 1019.54 130.18L1013.54 130.387ZM1016.61 136.237H1016.89V130.237H1016.61V136.237ZM1019.73 134.209C1021.44 129.218 1023 125.82 1024.36 123.814L1019.4 120.441C1017.58 123.122 1015.81 127.131 1014.05 132.265L1019.73 134.209ZM1024.35 123.827C1025.66 121.926 1027.09 120.701 1028.59 119.983L1026 114.568C1023.38 115.82 1021.2 117.829 1019.41 120.428L1024.35 123.827ZM1028.64 119.959C1030.17 119.195 1032.25 118.729 1035.03 118.729V112.729C1031.62 112.729 1028.55 113.294 1025.96 114.593L1028.64 119.959ZM1035.03 118.729C1037.06 118.729 1038.59 119.021 1039.72 119.487L1042.01 113.939C1039.95 113.093 1037.6 112.729 1035.03 112.729V118.729ZM1037.87 116.713V131.549H1043.87V116.713H1037.87ZM1041.55 128.627C1038.7 127.967 1035.85 127.635 1032.99 127.635V133.635C1035.38 133.635 1037.78 133.912 1040.19 134.472L1041.55 128.627ZM1032.99 127.635C1026.94 127.635 1022.08 130.214 1018.75 135.235L1023.75 138.551C1025.95 135.229 1028.92 133.635 1032.99 133.635V127.635ZM1018.74 135.255C1015.56 140.128 1014.17 146.9 1014.17 155.174H1020.17C1020.17 147.418 1021.5 142.002 1023.76 138.531L1018.74 135.255ZM573.711 336.995L575.744 339.2L576.711 338.309V336.995H573.711ZM573.711 321.877H576.711V318.877H573.711V321.877ZM547.695 321.877H544.695V324.877H547.695V321.877ZM547.695 307.956V304.956H544.695V307.956H547.695ZM590.445 307.956H593.445V304.956H590.445V307.956ZM590.445 343.604L592.594 345.697L593.445 344.823V343.604H590.445ZM570.336 356.19L569.3 353.374L569.295 353.376L570.336 356.19ZM517.32 354.643L515.88 357.275L515.89 357.28L515.9 357.286L517.32 354.643ZM507.336 271.885L505.209 269.77L505.209 269.77L507.336 271.885ZM572.516 264.924L571.027 267.529L571.034 267.533L571.04 267.536L572.516 264.924ZM588.336 283.698L589.202 286.57L592.323 285.629L591.127 282.597L588.336 283.698ZM571.32 288.831L568.576 290.042L569.647 292.469L572.187 291.703L571.32 288.831ZM521.258 336.502L518.987 338.463L518.994 338.471L521.258 336.502ZM544.812 349.206C550.875 349.206 556.694 348.318 562.254 346.53L560.418 340.818C555.478 342.406 550.281 343.206 544.812 343.206V349.206ZM562.254 346.53C567.781 344.754 572.332 342.346 575.744 339.2L571.678 334.789C569.089 337.175 565.391 339.22 560.418 340.818L562.254 346.53ZM576.711 336.995V321.877H570.711V336.995H576.711ZM573.711 318.877H547.695V324.877H573.711V318.877ZM550.695 321.877V307.956H544.695V321.877H550.695ZM547.695 310.956H590.445V304.956H547.695V310.956ZM587.445 307.956V343.604H593.445V307.956H587.445ZM588.296 341.511C583.404 346.534 577.101 350.505 569.3 353.374L571.372 359.006C579.883 355.875 586.987 351.455 592.594 345.697L588.296 341.511ZM569.295 353.376C561.538 356.246 553.267 357.69 544.461 357.69V363.69C553.936 363.69 562.916 362.134 571.377 359.004L569.295 353.376ZM544.461 357.69C534.244 357.69 525.71 355.747 518.741 352.001L515.9 357.286C523.931 361.602 533.491 363.69 544.461 363.69V357.69ZM518.76 352.011C511.844 348.227 506.573 342.789 502.905 335.627L497.564 338.362C501.771 346.575 507.89 352.903 515.88 357.275L518.76 352.011ZM502.905 335.627C499.231 328.455 497.328 319.713 497.328 309.292H491.328C491.328 320.433 493.363 330.159 497.564 338.362L502.905 335.627ZM497.328 309.292C497.328 293.604 501.511 281.996 509.463 274.001L505.209 269.77C495.817 279.212 491.328 292.542 491.328 309.292H497.328ZM509.463 274.001C517.462 265.959 529.022 261.737 544.602 261.737V255.737C527.931 255.737 514.647 260.281 505.209 269.77L509.463 274.001ZM544.602 261.737C555.655 261.737 564.399 263.741 571.027 267.529L574.004 262.32C566.195 257.857 556.329 255.737 544.602 255.737V261.737ZM571.04 267.536C577.603 271.244 582.444 276.936 585.545 284.799L591.127 282.597C587.572 273.584 581.866 266.761 573.991 262.312L571.04 267.536ZM587.47 280.826L570.454 285.958L572.187 291.703L589.202 286.57L587.47 280.826ZM574.065 287.619C571.528 281.872 567.659 277.464 562.453 274.543L559.516 279.775C563.498 282.009 566.519 285.383 568.576 290.042L574.065 287.619ZM562.453 274.543C557.322 271.663 551.285 270.292 544.461 270.292V276.292C550.481 276.292 555.459 277.498 559.516 279.775L562.453 274.543ZM544.461 270.292C533.514 270.292 524.736 273.627 518.637 280.681L523.176 284.605C527.858 279.19 534.783 276.292 544.461 276.292V270.292ZM518.637 280.681C512.617 287.643 509.82 297.326 509.82 309.292H515.82C515.82 298.195 518.415 290.112 523.176 284.605L518.637 280.681ZM509.82 309.292C509.82 321.382 512.749 331.237 518.987 338.463L523.529 334.542C518.517 328.737 515.82 320.451 515.82 309.292H509.82ZM518.994 338.471C525.291 345.712 534.034 349.206 544.812 349.206V343.206C535.435 343.206 528.475 340.23 523.522 334.534L518.994 338.471ZM628.766 315.69V312.69H625.766V315.69H628.766ZM628.766 359.284V362.284H631.766V359.284H628.766ZM610.414 359.284H607.414V362.284H610.414V359.284ZM610.414 260.213V257.213H607.414V260.213H610.414ZM628.766 260.213H631.766V257.213H628.766V260.213ZM628.766 300.502H625.766V303.502H628.766V300.502ZM675.383 300.502V303.502H678.383V300.502H675.383ZM675.383 260.213V257.213H672.383V260.213H675.383ZM693.664 260.213H696.664V257.213H693.664V260.213ZM693.664 359.284V362.284H696.664V359.284H693.664ZM675.383 359.284H672.383V362.284H675.383V359.284ZM675.383 315.69H678.383V312.69H675.383V315.69ZM625.766 315.69V359.284H631.766V315.69H625.766ZM628.766 356.284H610.414V362.284H628.766V356.284ZM613.414 359.284V260.213H607.414V359.284H613.414ZM610.414 263.213H628.766V257.213H610.414V263.213ZM625.766 260.213V300.502H631.766V260.213H625.766ZM628.766 303.502H675.383V297.502H628.766V303.502ZM678.383 300.502V260.213H672.383V300.502H678.383ZM675.383 263.213H693.664V257.213H675.383V263.213ZM690.664 260.213V359.284H696.664V260.213H690.664ZM693.664 356.284H675.383V362.284H693.664V356.284ZM678.383 359.284V315.69H672.383V359.284H678.383ZM675.383 312.69H628.766V318.69H675.383V312.69ZM733.32 260.213H736.32V257.213H733.32V260.213ZM733.32 359.284V362.284H736.32V359.284H733.32ZM714.969 359.284H711.969V362.284H714.969V359.284ZM714.969 260.213V257.213H711.969V260.213H714.969ZM730.32 260.213V359.284H736.32V260.213H730.32ZM733.32 356.284H714.969V362.284H733.32V356.284ZM717.969 359.284V260.213H711.969V359.284H717.969ZM714.969 263.213H733.32V257.213H714.969V263.213ZM857.773 274.065L860.294 275.691L860.773 274.949V274.065H857.773ZM844.977 294.596L842.402 293.055L842.398 293.062L842.394 293.069L844.977 294.596ZM835.273 313.088L838 314.339L838.004 314.332L838.007 314.325L835.273 313.088ZM827.469 335.518L830.384 336.224L830.385 336.22L827.469 335.518ZM824.727 359.284V362.284H827.727V359.284H824.727ZM806.586 359.284H803.586V362.284H806.586V359.284ZM808.906 338.331L811.83 339.001L811.831 338.996L808.906 338.331ZM816.289 316.885L819.025 318.116L819.03 318.106L816.289 316.885ZM825.992 298.393L823.412 296.863L823.409 296.868L825.992 298.393ZM841.461 274.627L843.925 276.338L847.196 271.627H841.461V274.627ZM790.906 274.627H787.906V277.627H790.906V274.627ZM790.906 260.213V257.213H787.906V260.213H790.906ZM857.773 260.213H860.773V257.213H857.773V260.213ZM855.253 272.439C850.55 279.728 846.266 286.601 842.402 293.055L847.551 296.137C851.375 289.748 855.622 282.933 860.294 275.691L855.253 272.439ZM842.394 293.069C838.55 299.572 835.263 305.833 832.54 311.852L838.007 314.325C840.628 308.532 843.81 302.465 847.559 296.123L842.394 293.069ZM832.547 311.838C829.094 319.367 826.427 327.027 824.552 334.816L830.385 336.22C832.167 328.822 834.703 321.529 838 314.339L832.547 311.838ZM824.553 334.812C822.665 342.605 821.727 350.765 821.727 359.284H827.727C827.727 351.209 828.616 343.525 830.384 336.224L824.553 334.812ZM824.727 356.284H806.586V362.284H824.727V356.284ZM809.586 359.284C809.586 352.281 810.336 345.522 811.83 339.001L805.982 337.66C804.383 344.639 803.586 351.849 803.586 359.284H809.586ZM811.831 338.996C813.327 332.425 815.717 325.466 819.025 318.116L813.553 315.654C810.111 323.304 807.579 330.643 805.981 337.665L811.831 338.996ZM819.03 318.106C821.457 312.656 824.634 306.596 828.576 299.918L823.409 296.868C819.382 303.69 816.09 309.958 813.549 315.665L819.03 318.106ZM828.572 299.923C832.556 293.207 837.67 285.347 843.925 276.338L838.997 272.916C832.689 282.001 827.491 289.986 823.412 296.863L828.572 299.923ZM841.461 271.627H790.906V277.627H841.461V271.627ZM793.906 274.627V260.213H787.906V274.627H793.906ZM790.906 263.213H857.773V257.213H790.906V263.213ZM854.773 260.213V274.065H860.773V260.213H854.773ZM930.406 353.026L932.351 355.31L932.353 355.309L930.406 353.026ZM878.797 353.096L876.878 355.402L876.889 355.411L878.797 353.096ZM875.07 315.479L872.784 313.537L872.778 313.544L872.772 313.551L875.07 315.479ZM889.625 307.463L890.111 310.424L892.625 310.011V307.463H889.625ZM889.625 307.182H892.625V304.789L890.292 304.257L889.625 307.182ZM876.758 299.167L874.387 301.005L874.392 301.011L874.397 301.018L876.758 299.167ZM928.438 265.627L926.549 267.959L926.56 267.967L926.57 267.976L928.438 265.627ZM932.164 299.237L929.803 297.386L929.797 297.394L929.79 297.402L932.164 299.237ZM919.156 307.042L918.578 304.098L916.156 304.574V307.042H919.156ZM919.156 307.323H916.156V309.876L918.677 310.284L919.156 307.323ZM934.062 315.268L931.76 317.191L931.771 317.205L931.783 317.218L934.062 315.268ZM893.422 297.198L891.262 299.279L891.271 299.29L891.281 299.3L893.422 297.198ZM915.359 297.479L913.279 295.317L913.269 295.327L913.259 295.337L915.359 297.479ZM917.047 317.588L914.979 319.762L914.987 319.77L914.996 319.778L917.047 317.588ZM891.875 317.87L893.996 319.991L894.005 319.982L894.013 319.974L891.875 317.87ZM891.734 343.885L889.562 345.954L889.579 345.972L889.596 345.989L891.734 343.885ZM917.328 343.956L915.155 341.887L915.154 341.888L917.328 343.956ZM936.477 331.44C936.477 339.954 933.727 346.252 928.46 350.743L932.353 355.309C939.18 349.487 942.477 341.395 942.477 331.44H936.477ZM928.461 350.742C923.193 355.228 915.388 357.69 904.602 357.69V363.69C916.221 363.69 925.619 361.043 932.351 355.31L928.461 350.742ZM904.602 357.69C893.967 357.69 886.132 355.256 880.705 350.781L876.889 355.411C883.743 361.062 893.112 363.69 904.602 363.69V357.69ZM880.716 350.79C875.371 346.343 872.586 340.079 872.586 331.581H866.586C866.586 341.551 869.941 349.631 876.878 355.402L880.716 350.79ZM872.586 331.581C872.586 325.82 874.221 321.161 877.369 317.407L872.772 313.551C868.607 318.516 866.586 324.591 866.586 331.581H872.586ZM877.357 317.421C880.569 313.64 884.765 311.301 890.111 310.424L889.139 304.503C882.485 305.595 876.978 308.599 872.784 313.537L877.357 317.421ZM892.625 307.463V307.182H886.625V307.463H892.625ZM890.292 304.257C885.586 303.184 881.908 300.873 879.119 297.315L874.397 301.018C878.077 305.71 882.976 308.743 888.958 310.107L890.292 304.257ZM879.129 297.328C876.319 293.704 874.906 289.529 874.906 284.682H868.906C868.906 290.804 870.728 296.285 874.387 301.005L879.129 297.328ZM874.906 284.682C874.906 277.586 877.417 272.161 882.386 268.088L878.583 263.448C872.114 268.75 868.906 275.935 868.906 284.682H874.906ZM882.386 268.088C887.398 263.98 894.583 261.737 904.32 261.737V255.737C893.714 255.737 885.008 258.181 878.583 263.448L882.386 268.088ZM904.32 261.737C914.325 261.737 921.598 263.949 926.549 267.959L930.326 263.296C923.933 258.119 915.128 255.737 904.32 255.737V261.737ZM926.57 267.976C931.475 271.875 934.016 277.353 934.016 284.823H940.016C940.016 275.792 936.838 268.474 930.305 263.279L926.57 267.976ZM934.016 284.823C934.016 289.669 932.603 293.815 929.803 297.386L934.525 301.088C938.194 296.409 940.016 290.945 940.016 284.823H934.016ZM929.79 297.402C927.081 300.909 923.405 303.149 918.578 304.098L919.735 309.985C925.876 308.778 930.873 305.815 934.538 301.071L929.79 297.402ZM916.156 307.042V307.323H922.156V307.042H916.156ZM918.677 310.284C924.461 311.22 928.734 313.568 931.76 317.191L936.365 313.345C932.266 308.437 926.601 305.488 919.635 304.361L918.677 310.284ZM931.783 317.218C934.846 320.798 936.477 325.456 936.477 331.44H942.477C942.477 324.299 940.498 318.176 936.342 313.318L931.783 317.218ZM922.086 285.737C922.086 280.392 920.734 275.834 917.506 272.637C914.283 269.444 909.697 268.112 904.32 268.112V274.112C908.787 274.112 911.584 275.217 913.283 276.9C914.977 278.577 916.086 281.332 916.086 285.737H922.086ZM904.32 268.112C898.983 268.112 894.429 269.448 891.23 272.647C888.032 275.845 886.695 280.399 886.695 285.737H892.695C892.695 281.324 893.796 278.566 895.473 276.889C897.149 275.213 899.908 274.112 904.32 274.112V268.112ZM886.695 285.737C886.695 291.253 888.05 295.946 891.262 299.279L895.582 295.116C893.825 293.293 892.695 290.346 892.695 285.737H886.695ZM891.281 299.3C894.547 302.625 899.108 304.065 904.461 304.065V298.065C900.158 298.065 897.36 296.926 895.563 295.096L891.281 299.3ZM904.461 304.065C909.747 304.065 914.264 302.755 917.46 299.621L913.259 295.337C911.579 296.984 908.831 298.065 904.461 298.065V304.065ZM917.44 299.641C920.776 296.431 922.086 291.532 922.086 285.737H916.086C916.086 290.817 914.912 293.746 913.279 295.317L917.44 299.641ZM924.477 329.963C924.477 323.955 922.848 318.911 919.098 315.399L914.996 319.778C917.152 321.797 918.477 325.003 918.477 329.963H924.477ZM919.115 315.415C915.456 311.933 910.302 310.44 904.18 310.44V316.44C909.401 316.44 912.825 317.712 914.979 319.762L919.115 315.415ZM904.18 310.44C898.314 310.44 893.353 312.091 889.737 315.765L894.013 319.974C896.21 317.742 899.452 316.44 904.18 316.44V310.44ZM889.754 315.748C886.13 319.372 884.516 324.354 884.516 330.245H890.516C890.516 325.448 891.807 322.18 893.996 319.991L889.754 315.748ZM884.516 330.245C884.516 336.774 886.003 342.218 889.562 345.954L893.907 341.816C891.841 339.647 890.516 335.997 890.516 330.245H884.516ZM889.596 345.989C893.223 349.676 898.471 351.245 904.742 351.245V345.245C899.388 345.245 895.965 343.907 893.873 341.781L889.596 345.989ZM904.742 351.245C910.872 351.245 916.007 349.698 919.502 346.023L915.154 341.888C913.211 343.932 909.956 345.245 904.742 345.245V351.245ZM919.501 346.024C923.039 342.306 924.477 336.713 924.477 329.963H918.477C918.477 336.057 917.148 339.793 915.155 341.887L919.501 346.024ZM1009.3 347.401L1006.86 345.649L1006.86 345.657L1009.3 347.401ZM962.328 355.346L960.547 357.76L960.558 357.768L962.328 355.346ZM952.062 338.26L951.642 335.29L948.321 335.76L949.157 339.008L952.062 338.26ZM968.445 335.94L971.333 335.126L970.621 332.602L968.025 332.97L968.445 335.94ZM996.57 338.26L993.972 336.76L993.968 336.768L993.963 336.776L996.57 338.26ZM1001.77 312.948L1004.77 312.986L999.077 311.633L1001.77 312.948ZM992.703 321.877L994.068 324.549L994.08 324.543L994.092 324.537L992.703 321.877ZM953.68 309.502L950.966 310.782L950.971 310.793L950.976 310.803L953.68 309.502ZM959.094 267.596L961.198 269.734L961.207 269.726L959.094 267.596ZM1010.21 271.042L1007.75 272.757L1007.76 272.767L1010.21 271.042ZM995.797 278.565L993.38 280.343L993.392 280.358L993.404 280.374L995.797 278.565ZM972.102 277.721L974.416 279.629L974.423 279.622L974.429 279.614L972.102 277.721ZM972.031 306.549L969.665 308.393L969.672 308.403L969.68 308.412L972.031 306.549ZM992.141 309.854L993.618 312.465L993.637 312.454L993.655 312.444L992.141 309.854ZM998.117 303.807L1000.71 305.316L1000.72 305.306L1000.72 305.296L998.117 303.807ZM1015.86 308.026C1015.86 325.132 1012.71 337.522 1006.86 345.649L1011.73 349.153C1018.63 339.561 1021.86 325.701 1021.86 308.026H1015.86ZM1006.86 345.657C1001.14 353.66 993.063 357.69 982.227 357.69V363.69C994.827 363.69 1004.8 358.86 1011.74 349.145L1006.86 345.657ZM982.227 357.69C974.23 357.69 968.294 355.99 964.098 352.924L960.558 357.768C966.113 361.828 973.441 363.69 982.227 363.69V357.69ZM964.109 352.932C960.002 349.902 956.871 344.904 954.968 337.512L949.157 339.008C951.285 347.273 954.998 353.666 960.547 357.76L964.109 352.932ZM952.483 341.231L968.866 338.91L968.025 332.97L951.642 335.29L952.483 341.231ZM965.558 336.754C966.713 340.85 968.681 344.209 971.639 346.528C974.61 348.856 978.289 349.909 982.438 349.909V343.909C979.32 343.909 977.034 343.133 975.341 341.805C973.635 340.468 972.24 338.343 971.333 335.126L965.558 336.754ZM982.438 349.909C989.758 349.909 995.415 346.355 999.178 339.744L993.963 336.776C991.163 341.697 987.398 343.909 982.438 343.909V349.909ZM999.169 339.76C1002.87 333.345 1004.63 324.305 1004.77 312.986L998.774 312.91C998.636 323.809 996.925 331.644 993.972 336.76L999.169 339.76ZM999.077 311.633C997.568 314.727 995.048 317.268 991.314 319.218L994.092 324.537C998.796 322.08 1002.32 318.668 1004.47 314.262L999.077 311.633ZM991.338 319.206C987.558 321.138 983.458 322.112 978.992 322.112V328.112C984.37 328.112 989.41 326.93 994.068 324.549L991.338 319.206ZM978.992 322.112C973.613 322.112 969.1 320.87 965.334 318.496L962.134 323.571C966.994 326.635 972.653 328.112 978.992 328.112V322.112ZM965.334 318.496C961.537 316.102 958.55 312.706 956.383 308.202L950.976 310.803C953.591 316.237 957.306 320.528 962.134 323.571L965.334 318.496ZM956.393 308.223C954.275 303.732 953.164 298.351 953.164 291.995H947.164C947.164 299.045 948.397 305.335 950.966 310.782L956.393 308.223ZM953.164 291.995C953.164 282.183 955.952 274.898 961.198 269.734L956.989 265.458C950.329 272.013 947.164 280.994 947.164 291.995H953.164ZM961.207 269.726C966.448 264.526 973.988 261.737 984.266 261.737V255.737C972.887 255.737 963.646 258.854 956.981 265.467L961.207 269.726ZM984.266 261.737C995.041 261.737 1002.69 265.495 1007.75 272.757L1012.67 269.326C1006.3 260.182 996.646 255.737 984.266 255.737V261.737ZM1007.76 272.767C1013 280.234 1015.86 291.83 1015.86 308.026H1021.86C1021.86 291.315 1018.95 278.256 1012.67 269.316L1007.76 272.767ZM1003.37 294.737C1003.37 287.552 1001.74 281.459 998.19 276.756L993.404 280.374C995.943 283.734 997.367 288.422 997.367 294.737H1003.37ZM998.213 276.787C994.654 271.949 989.754 269.448 983.773 269.448V275.448C987.824 275.448 990.939 277.024 993.38 280.343L998.213 276.787ZM983.773 269.448C978.037 269.448 973.257 271.546 969.774 275.828L974.429 279.614C976.665 276.865 979.666 275.448 983.773 275.448V269.448ZM969.787 275.813C966.349 279.983 964.812 285.522 964.812 292.065H970.812C970.812 286.42 972.135 282.397 974.416 279.629L969.787 275.813ZM964.812 292.065C964.812 298.565 966.327 304.109 969.665 308.393L974.398 304.705C972.111 301.771 970.812 297.659 970.812 292.065H964.812ZM969.68 308.412C973.158 312.803 977.972 314.963 983.773 314.963V308.963C979.638 308.963 976.623 307.515 974.383 304.686L969.68 308.412ZM983.773 314.963C987.34 314.963 990.646 314.147 993.618 312.465L990.663 307.243C988.667 308.373 986.394 308.963 983.773 308.963V314.963ZM993.655 312.444C996.603 310.719 998.96 308.324 1000.71 305.316L995.524 302.298C994.275 304.446 992.647 306.082 990.626 307.264L993.655 312.444ZM1000.72 305.296C1002.51 302.16 1003.37 298.611 1003.37 294.737H997.367C997.367 297.707 996.721 300.204 995.512 302.319L1000.72 305.296Z" fill="black"/>
</svg>
