<svg width="768" height="490" viewBox="0 0 768 490" fill="none" xmlns="http://www.w3.org/2000/svg">
<path d="M30.8594 189.5H58.0078V228.563C68.8151 213.719 81.25 202.586 95.3125 195.164C109.375 187.742 125.065 184.031 142.383 184.031C172.591 184.031 198.437 194.904 219.922 216.648C241.406 238.393 252.148 264.565 252.148 295.164C252.148 326.414 241.471 352.977 220.117 374.852C198.893 396.596 173.242 407.469 143.164 407.469C126.237 407.469 110.677 403.953 96.4844 396.922C82.2917 389.891 69.4661 379.409 58.0078 365.477V479.734H30.8594V189.5ZM140.234 210.398C116.536 210.398 96.5495 218.667 80.2734 235.203C64.1276 251.74 56.0547 272.313 56.0547 296.922C56.0547 313.068 59.6354 327.586 66.7969 340.477C74.0885 353.367 84.4401 363.589 97.8516 371.141C111.393 378.693 125.651 382.469 140.625 382.469C155.339 382.469 169.141 378.693 182.031 371.141C195.052 363.458 205.404 352.781 213.086 339.109C220.768 325.438 224.609 311.115 224.609 296.141C224.609 281.036 220.768 266.714 213.086 253.172C205.534 239.63 195.312 229.148 182.422 221.727C169.531 214.174 155.469 210.398 140.234 210.398ZM515.234 189.5V402H488.281V365.477C476.823 379.409 463.932 389.891 449.609 396.922C435.417 403.953 419.857 407.469 402.93 407.469C372.852 407.469 347.135 396.596 325.781 374.852C304.557 352.977 293.945 326.414 293.945 295.164C293.945 264.565 304.687 238.393 326.172 216.648C347.656 194.904 373.503 184.031 403.711 184.031C421.159 184.031 436.914 187.742 450.977 195.164C465.169 202.586 477.604 213.719 488.281 228.563V189.5H515.234ZM405.859 210.398C390.625 210.398 376.562 214.174 363.672 221.727C350.781 229.148 340.495 239.63 332.812 253.172C325.26 266.714 321.484 281.036 321.484 296.141C321.484 311.115 325.325 325.438 333.008 339.109C340.69 352.781 350.977 363.458 363.867 371.141C376.888 378.693 390.82 382.469 405.664 382.469C420.638 382.469 434.831 378.693 448.242 371.141C461.654 363.589 471.94 353.367 479.102 340.477C486.393 327.586 490.039 313.068 490.039 296.922C490.039 272.313 481.901 251.74 465.625 235.203C449.479 218.667 429.557 210.398 405.859 210.398ZM572.851 107.469H600.195V402H572.851V107.469ZM666.601 102C672.851 102 678.19 104.214 682.617 108.641C687.044 113.068 689.258 118.406 689.258 124.656C689.258 130.776 687.044 136.049 682.617 140.477C678.19 144.904 672.851 147.117 666.601 147.117C660.482 147.117 655.208 144.904 650.781 140.477C646.354 136.049 644.141 130.776 644.141 124.656C644.141 118.406 646.354 113.068 650.781 108.641C655.208 104.214 660.482 102 666.601 102ZM652.93 189.5H680.469V402H652.93V189.5Z" fill="white"/>
<path d="M80.4194 437.693H87.1869C90.848 437.693 93.4836 438.034 95.0938 438.718C96.7193 439.386 97.9953 440.48 98.922 441.999C99.8638 443.503 100.335 445.311 100.335 447.422C100.335 449.762 99.7195 451.706 98.489 453.256C97.2737 454.805 95.6179 455.884 93.5216 456.491C92.2911 456.841 90.0504 457.015 86.7996 457.015V471.211H80.4194V437.693ZM86.7996 450.795H88.8276C90.4226 450.795 91.5315 450.681 92.1544 450.453C92.7772 450.225 93.2633 449.853 93.6127 449.336C93.9773 448.805 94.1596 448.167 94.1596 447.422C94.1596 446.131 93.6583 445.189 92.6557 444.597C91.9265 444.156 90.5745 443.936 88.5997 443.936H86.7996V450.795ZM104.459 446.42H109.791V449.542C110.368 448.311 111.135 447.377 112.093 446.739C113.05 446.101 114.098 445.782 115.237 445.782C116.042 445.782 116.885 445.994 117.766 446.42L115.83 451.775C115.1 451.41 114.5 451.228 114.029 451.228C113.072 451.228 112.26 451.82 111.591 453.005C110.938 454.19 110.611 456.514 110.611 459.978L110.634 461.185V471.211H104.459V446.42ZM132.509 445.782C134.849 445.782 137.044 446.367 139.094 447.536C141.16 448.706 142.771 450.293 143.925 452.299C145.08 454.304 145.657 456.469 145.657 458.793C145.657 461.132 145.072 463.32 143.902 465.355C142.748 467.391 141.168 468.986 139.163 470.14C137.158 471.28 134.947 471.849 132.532 471.849C128.977 471.849 125.939 470.589 123.417 468.067C120.911 465.53 119.658 462.454 119.658 458.838C119.658 454.965 121.078 451.737 123.919 449.154C126.41 446.906 129.274 445.782 132.509 445.782ZM132.6 451.638C130.671 451.638 129.061 452.314 127.77 453.666C126.494 455.003 125.856 456.719 125.856 458.816C125.856 460.973 126.486 462.72 127.747 464.056C129.023 465.393 130.633 466.062 132.578 466.062C134.522 466.062 136.14 465.386 137.431 464.034C138.722 462.682 139.368 460.942 139.368 458.816C139.368 456.689 138.73 454.965 137.454 453.643C136.193 452.306 134.575 451.638 132.6 451.638ZM156.936 446.42V449.154C158.06 448.03 159.276 447.187 160.582 446.625C161.889 446.063 163.286 445.782 164.775 445.782C168.01 445.782 170.76 447.005 173.024 449.45C175.287 451.896 176.419 455.033 176.419 458.861C176.419 462.553 175.249 465.644 172.91 468.135C170.57 470.611 167.798 471.849 164.593 471.849C163.165 471.849 161.835 471.599 160.605 471.097C159.374 470.581 158.152 469.745 156.936 468.591V480.28H150.761V446.42H156.936ZM163.476 451.524C161.516 451.524 159.891 452.192 158.6 453.529C157.308 454.866 156.663 456.613 156.663 458.77C156.663 460.973 157.308 462.758 158.6 464.125C159.891 465.477 161.516 466.153 163.476 466.153C165.375 466.153 166.97 465.462 168.261 464.079C169.568 462.697 170.221 460.935 170.221 458.793C170.221 456.666 169.583 454.927 168.307 453.575C167.031 452.208 165.42 451.524 163.476 451.524ZM206.406 460.616H186.422C186.711 462.378 187.478 463.783 188.723 464.831C189.984 465.864 191.587 466.381 193.531 466.381C195.856 466.381 197.853 465.568 199.524 463.943L204.765 466.403C203.459 468.257 201.894 469.632 200.071 470.528C198.248 471.409 196.083 471.849 193.577 471.849C189.688 471.849 186.521 470.627 184.075 468.181C181.629 465.72 180.406 462.644 180.406 458.952C180.406 455.17 181.622 452.033 184.052 449.542C186.498 447.035 189.559 445.782 193.235 445.782C197.139 445.782 200.314 447.035 202.76 449.542C205.206 452.033 206.428 455.329 206.428 459.431L206.406 460.616ZM200.162 455.717C199.752 454.334 198.939 453.21 197.724 452.344C196.524 451.478 195.126 451.045 193.531 451.045C191.8 451.045 190.28 451.532 188.974 452.504C188.154 453.111 187.394 454.182 186.695 455.717H200.162ZM210.006 446.42H215.338V449.542C215.915 448.311 216.682 447.377 217.639 446.739C218.596 446.101 219.645 445.782 220.784 445.782C221.589 445.782 222.432 445.994 223.313 446.42L221.376 451.775C220.647 451.41 220.047 451.228 219.576 451.228C218.619 451.228 217.806 451.82 217.138 453.005C216.485 454.19 216.158 456.514 216.158 459.978L216.181 461.185V471.211H210.006V446.42ZM227.164 437.282H233.362V446.42H237.053V451.775H233.362V471.211H227.164V451.775H223.974V446.42H227.164V437.282ZM237.646 446.42H244.003L250.452 461.983L257.561 446.42H263.941L248.401 480.28H241.975L247.08 469.366L237.646 446.42ZM291.445 437.693H297.916L310.813 471.211H304.182L301.562 464.307H287.89L285.156 471.211H278.525L291.445 437.693ZM294.726 446.579L290.26 458.086H299.169L294.726 446.579ZM315.097 446.42H321.295V448.949C322.708 447.764 323.984 446.944 325.123 446.488C326.278 446.017 327.455 445.782 328.655 445.782C331.116 445.782 333.205 446.64 334.921 448.357C336.364 449.815 337.086 451.972 337.086 454.828V471.211H330.934V460.342C330.934 457.38 330.797 455.413 330.524 454.441C330.265 453.468 329.802 452.732 329.134 452.23C328.48 451.714 327.668 451.456 326.695 451.456C325.435 451.456 324.348 451.881 323.437 452.732C322.541 453.567 321.918 454.729 321.568 456.218C321.386 456.993 321.295 458.671 321.295 461.254V471.211H315.097V446.42ZM361.445 436.849H367.643V471.211H361.445V468.591C360.229 469.745 359.007 470.581 357.776 471.097C356.561 471.599 355.239 471.849 353.811 471.849C350.606 471.849 347.834 470.611 345.494 468.135C343.155 465.644 341.985 462.553 341.985 458.861C341.985 455.033 343.117 451.896 345.38 449.45C347.644 447.005 350.393 445.782 353.629 445.782C355.118 445.782 356.515 446.063 357.822 446.625C359.128 447.187 360.336 448.03 361.445 449.154V436.849ZM354.905 451.524C352.976 451.524 351.373 452.208 350.097 453.575C348.821 454.927 348.183 456.666 348.183 458.793C348.183 460.935 348.829 462.697 350.12 464.079C351.426 465.462 353.029 466.153 354.928 466.153C356.887 466.153 358.513 465.477 359.804 464.125C361.095 462.758 361.741 460.973 361.741 458.77C361.741 456.613 361.095 454.866 359.804 453.529C358.513 452.192 356.88 451.524 354.905 451.524ZM387.695 437.693H394.075V465.127H403.372V471.211H387.695V437.693ZM425.885 446.42H432.083V471.211H425.885V468.591C424.67 469.745 423.447 470.581 422.216 471.097C421.001 471.599 419.679 471.849 418.251 471.849C415.046 471.849 412.274 470.611 409.934 468.135C407.595 465.644 406.425 462.553 406.425 458.861C406.425 455.033 407.557 451.896 409.82 449.45C412.084 447.005 414.833 445.782 418.069 445.782C419.558 445.782 420.955 446.063 422.262 446.625C423.568 447.187 424.776 448.03 425.885 449.154V446.42ZM419.345 451.524C417.416 451.524 415.813 452.208 414.537 453.575C413.261 454.927 412.623 456.666 412.623 458.793C412.623 460.935 413.269 462.697 414.56 464.079C415.866 465.462 417.469 466.153 419.368 466.153C421.328 466.153 422.953 465.477 424.244 464.125C425.535 462.758 426.181 460.973 426.181 458.77C426.181 456.613 425.535 454.866 424.244 453.529C422.953 452.192 421.32 451.524 419.345 451.524ZM438.372 446.42H444.57V448.949C445.982 447.764 447.259 446.944 448.398 446.488C449.552 446.017 450.73 445.782 451.93 445.782C454.391 445.782 456.479 446.64 458.196 448.357C459.639 449.815 460.361 451.972 460.361 454.828V471.211H454.208V460.342C454.208 457.38 454.072 455.413 453.798 454.441C453.54 453.468 453.077 452.732 452.408 452.23C451.755 451.714 450.942 451.456 449.97 451.456C448.709 451.456 447.623 451.881 446.712 452.732C445.815 453.567 445.193 454.729 444.843 456.218C444.661 456.993 444.57 458.671 444.57 461.254V471.211H438.372V446.42ZM484.719 436.849H490.917V471.211H484.719V468.591C483.504 469.745 482.281 470.581 481.051 471.097C479.836 471.599 478.514 471.849 477.086 471.849C473.881 471.849 471.108 470.611 468.769 468.135C466.43 465.644 465.26 462.553 465.26 458.861C465.26 455.033 466.392 451.896 468.655 449.45C470.918 447.005 473.668 445.782 476.904 445.782C478.392 445.782 479.79 446.063 481.096 446.625C482.403 447.187 483.611 448.03 484.719 449.154V436.849ZM478.18 451.524C476.25 451.524 474.648 452.208 473.372 453.575C472.096 454.927 471.458 456.666 471.458 458.793C471.458 460.935 472.103 462.697 473.395 464.079C474.701 465.462 476.304 466.153 478.203 466.153C480.162 466.153 481.788 465.477 483.079 464.125C484.37 462.758 485.016 460.973 485.016 458.77C485.016 456.613 484.37 454.866 483.079 453.529C481.788 452.192 480.155 451.524 478.18 451.524ZM510.514 437.693H516.848V471.211H510.514V437.693ZM523.365 446.42H529.563V448.949C530.976 447.764 532.252 446.944 533.391 446.488C534.546 446.017 535.723 445.782 536.923 445.782C539.384 445.782 541.473 446.64 543.19 448.357C544.633 449.815 545.354 451.972 545.354 454.828V471.211H539.202V460.342C539.202 457.38 539.065 455.413 538.792 454.441C538.533 453.468 538.07 452.732 537.402 452.23C536.749 451.714 535.936 451.456 534.964 451.456C533.703 451.456 532.617 451.881 531.705 452.732C530.809 453.567 530.186 454.729 529.837 456.218C529.654 456.993 529.563 458.671 529.563 461.254V471.211H523.365V446.42ZM548.43 446.42H550.641C550.656 443.169 550.709 441.247 550.8 440.655C550.967 439.288 551.537 438.209 552.509 437.419C553.497 436.614 554.887 436.211 556.679 436.211C557.97 436.211 559.429 436.508 561.054 437.1V441.84C560.158 441.581 559.421 441.452 558.844 441.452C558.115 441.452 557.583 441.604 557.249 441.908C557.006 442.136 556.884 442.607 556.884 443.321L556.861 446.42H560.803V451.706H556.861V471.211H550.641V451.706H548.43V446.42ZM576.116 445.782C578.455 445.782 580.65 446.367 582.701 447.536C584.767 448.706 586.377 450.293 587.532 452.299C588.686 454.304 589.264 456.469 589.264 458.793C589.264 461.132 588.679 463.32 587.509 465.355C586.355 467.391 584.775 468.986 582.77 470.14C580.764 471.28 578.554 471.849 576.139 471.849C572.584 471.849 569.546 470.589 567.024 468.067C564.518 465.53 563.264 462.454 563.264 458.838C563.264 454.965 564.685 451.737 567.525 449.154C570.017 446.906 572.88 445.782 576.116 445.782ZM576.207 451.638C574.278 451.638 572.668 452.314 571.376 453.666C570.1 455.003 569.462 456.719 569.462 458.816C569.462 460.973 570.093 462.72 571.354 464.056C572.63 465.393 574.24 466.062 576.184 466.062C578.129 466.062 579.747 465.386 581.038 464.034C582.329 462.682 582.975 460.942 582.975 458.816C582.975 456.689 582.337 454.965 581.061 453.643C579.8 452.306 578.182 451.638 576.207 451.638ZM592.91 446.42H598.242V449.542C598.819 448.311 599.586 447.377 600.543 446.739C601.5 446.101 602.548 445.782 603.688 445.782C604.493 445.782 605.336 445.994 606.217 446.42L604.28 451.775C603.551 451.41 602.951 451.228 602.48 451.228C601.523 451.228 600.71 451.82 600.042 453.005C599.389 454.19 599.062 456.514 599.062 459.978L599.085 461.185V471.211H592.91V446.42ZM609.27 446.42H615.514V449.268C616.577 448.098 617.754 447.225 619.046 446.648C620.352 446.07 621.772 445.782 623.307 445.782C624.856 445.782 626.254 446.162 627.499 446.921C628.745 447.681 629.748 448.79 630.507 450.248C631.495 448.79 632.702 447.681 634.13 446.921C635.573 446.162 637.146 445.782 638.847 445.782C640.609 445.782 642.159 446.192 643.495 447.012C644.832 447.833 645.789 448.903 646.367 450.225C646.959 451.547 647.255 453.696 647.255 456.674V471.211H640.989V458.633C640.989 455.823 640.64 453.924 639.941 452.937C639.242 451.934 638.194 451.433 636.796 451.433C635.733 451.433 634.776 451.737 633.925 452.344C633.09 452.952 632.467 453.795 632.057 454.874C631.647 455.937 631.441 457.653 631.441 460.023V471.211H625.175V459.203C625.175 456.985 625.008 455.382 624.674 454.395C624.355 453.392 623.869 452.648 623.216 452.162C622.562 451.676 621.772 451.433 620.846 451.433C619.813 451.433 618.871 451.744 618.02 452.367C617.185 452.975 616.554 453.833 616.129 454.942C615.719 456.051 615.514 457.798 615.514 460.183V471.211H609.27V446.42ZM671.523 446.42H677.721V471.211H671.523V468.591C670.308 469.745 669.085 470.581 667.854 471.097C666.639 471.599 665.317 471.849 663.889 471.849C660.684 471.849 657.912 470.611 655.572 468.135C653.233 465.644 652.063 462.553 652.063 458.861C652.063 455.033 653.195 451.896 655.458 449.45C657.722 447.005 660.471 445.782 663.707 445.782C665.196 445.782 666.593 446.063 667.9 446.625C669.206 447.187 670.414 448.03 671.523 449.154V446.42ZM664.983 451.524C663.054 451.524 661.451 452.208 660.175 453.575C658.899 454.927 658.261 456.666 658.261 458.793C658.261 460.935 658.907 462.697 660.198 464.079C661.504 465.462 663.107 466.153 665.006 466.153C666.966 466.153 668.591 465.477 669.882 464.125C671.173 462.758 671.819 460.973 671.819 458.77C671.819 456.613 671.173 454.866 669.882 453.529C668.591 452.192 666.958 451.524 664.983 451.524ZM684.762 437.282H690.96V446.42H694.651V451.775H690.96V471.211H684.762V451.775H681.572V446.42H684.762V437.282ZM700.439 436.211C701.533 436.211 702.467 436.606 703.242 437.396C704.031 438.186 704.426 439.143 704.426 440.267C704.426 441.376 704.039 442.326 703.264 443.116C702.49 443.89 701.563 444.278 700.484 444.278C699.375 444.278 698.426 443.883 697.636 443.093C696.861 442.288 696.474 441.316 696.474 440.176C696.474 439.083 696.861 438.148 697.636 437.374C698.411 436.599 699.345 436.211 700.439 436.211ZM697.317 446.42H703.561V471.211H697.317V446.42ZM720.855 445.782C723.195 445.782 725.39 446.367 727.441 447.536C729.507 448.706 731.117 450.293 732.272 452.299C733.426 454.304 734.003 456.469 734.003 458.793C734.003 461.132 733.418 463.32 732.249 465.355C731.094 467.391 729.514 468.986 727.509 470.14C725.504 471.28 723.294 471.849 720.878 471.849C717.324 471.849 714.285 470.589 711.764 468.067C709.257 465.53 708.004 462.454 708.004 458.838C708.004 454.965 709.424 451.737 712.265 449.154C714.756 446.906 717.62 445.782 720.855 445.782ZM720.947 451.638C719.017 451.638 717.407 452.314 716.116 453.666C714.84 455.003 714.202 456.719 714.202 458.816C714.202 460.973 714.832 462.72 716.093 464.056C717.369 465.393 718.979 466.062 720.924 466.062C722.868 466.062 724.486 465.386 725.777 464.034C727.069 462.682 727.714 460.942 727.714 458.816C727.714 456.689 727.076 454.965 725.8 453.643C724.539 452.306 722.921 451.638 720.947 451.638ZM739.107 446.42H745.305V448.949C746.718 447.764 747.994 446.944 749.134 446.488C750.288 446.017 751.465 445.782 752.665 445.782C755.126 445.782 757.215 446.64 758.932 448.357C760.375 449.815 761.096 451.972 761.096 454.828V471.211H754.944V460.342C754.944 457.38 754.807 455.413 754.534 454.441C754.276 453.468 753.812 452.732 753.144 452.23C752.491 451.714 751.678 451.456 750.706 451.456C749.445 451.456 748.359 451.881 747.447 452.732C746.551 453.567 745.928 454.729 745.579 456.218C745.397 456.993 745.305 458.671 745.305 461.254V471.211H739.107V446.42Z" fill="white"/>
<path d="M710.902 140.685V112.931H700.99V107.28H727.536V112.931H717.647V140.685H710.902ZM731.82 140.685V107.28H741.914L747.976 130.066L753.968 107.28H764.086V140.685H757.819V114.389L751.189 140.685H744.694L738.086 114.389V140.685H731.82Z" fill="white"/>
</svg>
